<svg id="Layer_1" data-name="Layer 1" fill='none' xmlns="http://www.w3.org/2000/svg" version="1.1"
  viewBox="0 0 1283 610">
  <defs>
    <style>

      .cls-1 {
      fill: none;
      stroke: #C9FF18;
      stroke-width: 2px;
      stroke-dasharray: 1000;
      stroke-dashoffset: 1000;
      animation: dash 5s linear infinite;
      }

      @keyframes dash {

      0% {
      stroke-dashoffset: 1000;
      opacity: 0;
      }
      20% {
      opacity: 1;
      }
      80% {
      opacity: 1;
      }
      100% {
      stroke-dashoffset: 0;
      opacity: 0;
      }
      }

      .pulse {
      stroke-width: 1px;
      stroke: #58F0D4;
      stroke-dasharray: 1000;
      stroke-dashoffset: 1000;
      animation: pulse 4s linear infinite;


      }

      @keyframes pulse {
      0% {
      stroke-dashoffset: 1000;
      opacity: 0;
      }
      20% {
      opacity: 1;
      }
      80% {
      opacity: 1;
      }
      100% {
      stroke-dashoffset: 0;
      
      }
      }

      .cls-2 {
      fill: none;
      stroke: #C9FF18;
      stroke-width: 1px;
      stroke-dasharray: 1000;
      stroke-dashoffset: 1000;
      animation: dash 5s linear infinite;
      animation-delay: 0.5s;
      }

      .cls-3 {
      fill: none;
      stroke: #C9FF18;
      stroke-width: 1px;
      stroke-dasharray: 1000;
      stroke-dashoffset: 1000;
      animation: dash 5s linear infinite;
      animation-delay: 0.5s;
      }

 


    </style>
  </defs>
  <path class="cls-1 firstLetter"
    d="M22.4101391,132.5356445h78.7441749c9.4716201,0,17.1498852,7.6782651,17.1498852,17.1498852v207.246128c0,9.4716201,7.6782651,17.1498852,17.1498852,17.1498852h124.6377296c9.4716201,0,17.1498852,7.6782651,17.1498852,17.1498852v62.3193702c0,9.4716201-7.6782651,17.1498852-17.1498852,17.1498852H22.4101391c-9.4716201,0-17.1498852-7.6782651-17.1498852-17.1498852V149.6855297c0-9.4716201,7.6782651-17.1498852,17.1498852-17.1498852Z" />
  <path class="cls-2 secondLetter"
    d="M289.3227539,319.0092773v-169.3237476c0-9.4716201,7.6782651-17.1498852,17.1498852-17.1498852h80.6763038c9.4716201,0,17.1498852,7.6782651,17.1498852,17.1498852v167.8745289c0,42.0292969,21.7392578,59.9033203,52.1743164,59.9033203,30.4345703,0,52.1738281-16.4248047,52.1738281-57.4873047v-170.2905445c0-9.4716201,7.6782651-17.1498852,17.1498852-17.1498852h80.6763038c9.4716201,0,17.1498852,7.6782651,17.1498852,17.1498852v166.9087086c0,115.4589844-67.1499023,160.8701172-168.1162109,160.8701172-100.9667969,0-166.184082-46.3769531-166.184082-158.4550781Z" />
  <path class="cls-3 thirdLetter"
    d="M659.3764648,149.6855297c0-9.4716201,7.6782651-17.1498852,17.1498852-17.1498852h135.0249195c89.8554688,0,151.2080078,40.0966797,151.2080078,120.2900391v.9658203c0,81.6435547-62.3183594,125.1210938-153.6230469,125.1210938h-19.5659351c-9.4716201,0-17.1498852,7.6782651-17.1498852,17.1498852v57.4883155c0,9.4716201-7.6782651,17.1498852-17.1498852,17.1498852h-78.7441749c-9.4716201,0-17.1498852-7.6782651-17.1498852-17.1498852V149.6855297ZM802.855957,298.2368164c28.9853516,0,48.3085938-13.0439453,48.3085938-37.1982422v-.9667969c0-24.6376953-17.8740234-37.1982422-47.8261719-37.1982422h-13.7680836c-9.4716201,0-17.1498852,7.6782651-17.1498852,17.1498852v41.0635109c0,9.4716201,7.6782651,17.1498852,17.1498852,17.1498852h13.2856617Z" />
  <path class="cls-3 fourthLetter"
    d="M1004.0673657,132.5356445h254.1074562c9.4716201,0,17.1498852,7.6782651,17.1498852,17.1498852v58.4541359c0,9.4716201-7.6782651,17.1498852-17.1498852,17.1498852h-142.9951515c-9.4716201,0-17.1498852,7.6782651-17.1498852,17.1498852v.0000343c0,9.4716201,7.6782651,17.1498852,17.1498852,17.1498852h130.918003c9.4716201,0,17.1498852,7.6782651,17.1498852,17.1498852v47.3428077c0,9.4716201-7.6782651,17.1498852-17.1498852,17.1498852h-130.918003c-9.4716201,0-17.1498852,7.6782651-17.1498852,17.1498852v2.4150734c0,9.4716201,7.6782651,17.1498852,17.1498852,17.1498852h145.4101905c9.4716201,0,17.1498852,7.6782651,17.1498852,17.1498852v58.4541359c0,9.4716201-7.6782651,17.1498852-17.1498852,17.1498852h-256.5224952c-9.4716201,0-17.1498852-7.6782651-17.1498852-17.1498852V149.6855297c0-9.4716201,7.6782651-17.1498852,17.1498852-17.1498852Z" />
</svg>