<?xml version="1.0" encoding="UTF-8"?>
<svg id="Layer_1" data-name="Layer 1" xmlns="http://www.w3.org/2000/svg" version="1.1" viewBox="0 0 1283 610">
  <defs>
    <style>
      .cls-1 {
        stroke-dasharray: 0 0 5.0093274 5.0093274;
      }

      .cls-1, .cls-2, .cls-3, .cls-4, .cls-5 {
        fill: none;
        stroke: #ddd;
      }

      .cls-2 {
        stroke-dasharray: 0 0 5.012394 5.012394;
      }

      .cls-3 {
        stroke-dasharray: 0 0 5.0056305 5.0056305;
      }

      .cls-4 {
        stroke-dasharray: 0 0 4.9823828 4.9823828;
      }

      .cls-5 {
        stroke-dasharray: 0 0 4.9834146 4.9834146;
      }
    </style>
  </defs>
  <path class="cls-5" d="M22.4101391,132.5356445h78.744173c9.4716187,0,17.1498871,7.6782532,17.1498871,17.1498718v207.2461395c0,9.4716187,7.6782684,17.1498871,17.1498871,17.1498871h124.6377411c9.4716187,0,17.1498718,7.6782684,17.1498718,17.1498871v62.3193665c0,9.4716187-7.6782532,17.1498871-17.1498718,17.1498871H22.4101391c-9.4716196,0-17.1498852-7.6782684-17.1498852-17.1498871V149.6855164c0-9.4716187,7.6782656-17.1498718,17.1498852-17.1498718Z"/>
  <path class="cls-3" d="M289.3227539,319.0092773v-169.323761c0-9.4716187,7.6782532-17.1498718,17.1498718-17.1498718h80.6763306c9.4716187,0,17.1498718,7.6782532,17.1498718,17.1498718v167.8745422c0,42.0292969,21.7392578,59.9033203,52.1743164,59.9033203,30.4345703,0,52.1738281-16.4248047,52.1738281-57.4873047v-170.2905579c0-9.4716187,7.6782837-17.1498718,17.1499023-17.1498718h80.6762695c9.4716187,0,17.1499023,7.6782532,17.1499023,17.1498718v166.9087219c0,115.4589844-67.1499023,160.8701172-168.1162109,160.8701172-100.9667969,0-166.184082-46.3769531-166.184082-158.4550781Z"/>
  <g>
    <path class="cls-4" d="M659.3764648,149.6855164c0-9.4716187,7.6782837-17.1498718,17.1499023-17.1498718h135.0249023c89.8554688,0,151.2080078,40.0966797,151.2080078,120.2900391v.9658203c0,81.6435547-62.3183594,125.1210938-153.6230469,125.1210938h-19.565918c-9.4716187,0-17.1499023,7.6782684-17.1499023,17.1498871v57.4883118c0,9.4716187-7.6782837,17.1498871-17.1499023,17.1498871h-78.7441406c-9.4716187,0-17.1499023-7.6782684-17.1499023-17.1498871V149.6855164Z"/>
    <path class="cls-1" d="M802.855957,298.2368164c28.9853516,0,48.3085938-13.0439453,48.3085938-37.1982422v-.9667969c0-24.6376953-17.8740234-37.1982422-47.8261719-37.1982422h-13.7680664c-9.4716187,0-17.1499023,7.6782532-17.1499023,17.1498718v41.0635376c0,9.4716187,7.6782837,17.1498718,17.1499023,17.1498718h13.2856445Z"/>
  </g>
  <path class="cls-2" d="M1004.0673828,132.5356445h254.1074219c9.4716797,0,17.1499023,7.6782532,17.1499023,17.1498718v58.4541626c0,9.4716187-7.6782227,17.1498718-17.1499023,17.1498718h-142.9951172c-9.4716797,0-17.1499023,7.6782532-17.1499023,17.1498718v.000061c0,9.4716187,7.6782227,17.1498718,17.1499023,17.1498718h130.9179688c9.4716797,0,17.1499023,7.6782532,17.1499023,17.1498718v47.3428345c0,9.4716187-7.6782227,17.1498718-17.1499023,17.1498718h-130.9179688c-9.4716797,0-17.1499023,7.6782532-17.1499023,17.1498871v2.4150696c0,9.4716187,7.6782227,17.1498871,17.1499023,17.1498871h145.4101562c9.4716797,0,17.1499023,7.6782684,17.1499023,17.1498871v58.4541321c0,9.4716187-7.6782227,17.1498871-17.1499023,17.1498871h-256.5224609c-9.4716187,0-17.1499023-7.6782684-17.1499023-17.1498871V149.6855164c0-9.4716187,7.6782837-17.1498718,17.1499023-17.1498718Z"/>
</svg>