<?xml version="1.0" encoding="UTF-8"?>
<svg id="Layer_3" data-name="Layer 3" xmlns="http://www.w3.org/2000/svg" version="1.1" xmlns:xlink="http://www.w3.org/1999/xlink" viewBox="0 0 1066.666748 533.333313">
  <defs>
    <style>
      .cls-1 {
        stroke-width: 1.3333333px;
      }

      .cls-1, .cls-2, .cls-3 {
        fill: none;
      }

      .cls-1, .cls-3 {
        stroke: #bcbec0;
        stroke-miterlimit: 13.3333325;
      }

      .cls-2 {
        stroke-width: 0px;
      }

      .cls-4 {
        clip-path: url(#clippath);
      }

      .cls-3 {
        stroke-width: 1.439357px;
      }
    </style>
    <clipPath id="clippath">
      <rect class="cls-2" x="0" width="1066.666748" height="533.333313" transform="translate(1066.6667481 533.333313) rotate(180)"/>
    </clipPath>
  </defs>
  <g class="cls-4">
    <g>
      <path class="cls-1" d="M1127.0462095,359.6375329c-17.8218676-19.6358393-53.6965716-28.8414922-83.8210887-21.5089058-30.1245171,7.3326931-51.9540649,30.5842122-51.0046007,54.3270379.4555492,11.3905062,5.5715672,22.4127991,6.7766162,33.772692,4.2784713,40.3287451-47.6302246,76.9681037-101.5628852,76.2312504-53.9326757-.7368533-101.741943-34.0157854-114.0107436-73.4116239-12.2689598-39.3958385,7.5514315-82.1105035,44.2562867-111.7562624,21.5338678-17.3925327,48.2333891-30.7373855,70.7754703-47.3957315,22.5422234-16.658346,41.5031488-38.3306652,40.909371-62.0611176-.8085334-32.3141321-38.5683931-58.6959978-79.8011774-68.0892774-34.0644995-7.760213-73.1164482-6.0774398-102.6470452,8.8358397-29.5305971,14.9132794-46.6429365,44.3334383-35.4810329,69.6879973,8.7202138,19.8079992,33.0086417,36.9306653,29.0715037,57.5803711-3.5831468,18.7939193-29.807646,30.5814388-54.7269717,33.9188254-24.9193257,3.3373865-50.866207,1.0644266-75.4877194,5.4732798-24.6215124,4.4088532-49.3407314,18.9239459-48.557798,37.9000519,1.0706489,25.9469857,44.0877534,37.1420786,65.2744567,57.6700778,26.795948,25.962879,12.8627207,66.9813308-21.5943122,87.23253-34.4568906,20.2513059-82.5271509,22.8776525-125.3279353,15.9847461-70.489888-11.3522129-135.6508514-49.8853314-153.564879-102.2619694-17.914056-52.376638,22.5649789-115.1400489,92.4327869-128.4807418,37.6115219-7.1816531,77.6544751-.37408,115.9426904-5.1369598,38.2882153-4.7628798,78.4506351-30.1742922,67.6526968-58.1334378-6.3189337-16.361706-27.3854592-26.502399-42.2115577-39.4066118-25.8818858-22.5270391-30.1553793-61.0225043.2318222-80.1239436,31.3356603-19.6975993,77.8562884-10.1137063,118.273267-5.4803198,45.8142081,5.2520531,94.5395439,2.2372266,135.2213593-14.4150395,40.6816732-16.652266,71.8111326-48.3900782,73.1800215-83.1347168,2.0635023-52.3786647-63.8145455-95.5862364-132.8320068-103.7409027-69.0176035-8.1545597-138.5482233,10.4946129-201.5591925,33.1349321-34.566544,12.4200529-68.8917368,26.4658123-95.5950982,47.0875715-26.7033614,20.6217592-45.1262601,48.8813848-41.729851,77.5147704,5.4256358,45.7419716,63.4985277,82.6222902,60.481852,128.4891684-2.0989157,31.9103988-38.6345264,60.5327977-81.0500308,63.4952509-42.4155044,2.9623466-75.515595-28.5430389-85.4344577-59.6141844-5.9402244-18.607466-11.0235028-30.2484255-19.2044099-48.3714115-13.5862051-30.0971722-63.4332477-46.1410116-103.8603431-36.6360519-40.4270954,9.5050663-68.3510079,40.3297051-71.390297,72.0231439-3.039289,31.6934388,16.1493342,63.1542376,45.6574601,85.9551967,24.8000013,19.1627726,59.3837541,37.1918919,58.9577986,63.8952509-.6879289,43.1330117-92.8280225,64.3363175-85.3360399,107.1048493,3.4259913,19.5570126,27.8456903,33.1729054,52.1996827,40.6194118,24.3538501,7.4465064,51.1408382,11.3464529,72.4354881,22.9222391,46.8926602,25.490879,48.1567314,81.9566902,12.9742229,116.4589822-35.1825085,34.50226-95.89593,49.4330755-153.778639,50.8729901-58.1892296,1.4475306-118.5175178-9.611637-163.4315835-37.3965106-44.9139234-27.7849589-71.5367877-73.8259172-58.5947067-116.3993556,9.9002319-32.5672521,40.4121631-59.2447977,72.1393833-82.6871435,31.7272202-23.4422391,66.2984937-45.6810649,88.2539082-74.7432505,21.9555224-29.0622922,28.7072726-67.5267174,3.267521-94.9443164-41.0273807-44.2174916-145.0644022-42.4751984-170.051853-92.9806898-13.3959121-27.076159,4.6789692-58.1953044,32.8305803-77.8999437C-39.2541897,61.910931-2.6441958,50.8081048,32.1748292,38.4749852,66.9937829,26.141759,102.2433128,11.2247463,123.1421583-13.0318928c20.8988455-24.2565324,22.2683034-60.2257044-6.6040892-79.3348236,2.400569,4.1260798,4.8009958,8.252053,7.2014226,12.3780262"/>
      <path class="cls-1" d="M1106.5571063,364.0497994c-13.9063562-15.1220261-46.7633802-13.6789328-64.7708477-1.22688-18.0074676,12.4520529-24.1661168,31.7748255-26.4334236,50.0658114-2.2671646,18.2910926-1.6432356,37.1144519-9.7656894,54.4449046-12.5980451,26.8794656-45.9232735,46.7807982-82.841462,53.4981313-36.9181886,6.7172264-76.6217995,1.2369066-110.5341212-11.6036262-19.2840543-7.3016531-37.3226686-17.175786-49.5213536-30.5470922-14.3519296-15.7316261-19.6598054-35.2249587-20.5139922-54.2759446-2.4705424-55.1065579,31.8324638-110.4597291,89.5923246-144.5706612,15.4066346-9.0986663,32.360535-16.7731194,46.577069-26.9032523,14.2163918-10.1302396,25.812908-23.4535458,26.4512013-38.1531719.6199467-14.2750928-9.4688716-28.0702923-24.031859-37.2735986-14.5628452-9.203413-33.1527128-14.2198395-51.926616-16.615146-12.7954495-1.6326399-26.1474309-2.1031466-38.5786331.6954666-12.4313606,2.7986132-23.8677346,9.2697596-28.5659037,18.344106-7.4174582,14.3259728,3.0889246,29.8910922,10.0569605,44.343465,9.4573516,19.6155726,12.4172806,41.5358917,3.7991824,61.367891-8.6182404,19.8318926-30.003486,37.0783986-57.0759323,41.8550384-18.4298493,3.2517332-37.8029347.7291733-56.596749,2.4476799-18.7939565,1.7185066-39.2234687,10.0454396-41.8030955,24.1127457-2.5635557,13.9803728,13.0797518,25.521919,24.3227035,36.8376519,22.0861167,22.2292258,29.7995393,52.1294913,20.362648,78.9330103-9.4367097,26.803519-35.9676977,49.7122114-69.665975,61.103571-56.5452829,19.1145593-195.9230678,16.2700794-256.6046277-56.9743978-60.6815041-73.2443705-51.2000039-159.2888473,21.807389-191.288846,73.0075059-31.9999988,195.34721-7.0353064,221.866678-38.3999985,26.5196102-31.3646921-36.9777797-49.2071448-48.8296077-84.6924768-11.8517821-35.485332-5.2148395-73.1741839,44.0888922-94.5075164,49.3037755-21.3333325,160.2371145,21.3333325,219.0222389-4.9778132,58.7851571-26.311039,53.0962679-100.2666628-70.1629028-110.2221825-123.2593342-9.9555196-234.192676,29.1555189-254.1037886,84.6221834-19.9111126,55.4666646,58.9152987,121.7912487,28.4444466,175.6444733-30.4708044,53.8532246-129.8962317,57.5999978-173.5111243,22.7555191-43.6148362-34.844372-35.0815025-106.6666626-103.3481726-114.488849-68.2666702-7.8221864-94.8147248,75.3959438-17.0666675,126.2313552,77.7481702,50.8353047,67.3186168,85.6797834,22.7555567,118.3908221-44.5629496,32.7111454-66.3702789,73.2444772-22.7555567,86.0444767,43.6148343,12.7999995,110.933339,33.4221854,115.6741748,108.0888492,4.7406654,74.6666638-86.2815638,120.1778088-240.8297367,115.1999956-154.5480995-4.9777065-224.7111627-91.7333298-212.3851884-162.8443671,12.3259743-71.111144,163.4289902-129.8295417,182.0444583-193.422286,18.6154681-63.5926376-108.0888971-73.2443705-164.0295947-129.4221817-55.9408398-56.1778112-4.7408359-116.6221822,71.1111165-147.911141C34.1333359,7.4666664,146.0149061-18.1333326,89.1260143-97.0666629"/>
      <path class="cls-1" d="M1109.3935864,313.0852147c-27.4026681-11.5927462-62.3004476-12.5933862-90.8032046-2.6037332-28.5028992,9.9897596-49.8672381,30.7091188-55.5899762,53.9115713-3.635058,14.7384528-1.2713245,29.8785055-.9179023,44.8646383.3534222,14.9861328-1.6544712,30.7477322-12.745814,43.2159984-17.1982231,19.3336526-54.3709894,25.5591457-82.8379064,16.3756794-28.466917-9.1833596-47.4139204-31.3158388-51.3961429-54.3645846s5.5611895-46.6107716,21.8621325-66.3767441c16.3010853-19.7659726,39.0044464-36.1201053,62.9632032-50.8603714,21.1712011-13.0254928,43.9075578-25.2772257,59.4498875-42.1860251,19.3464899-21.0472525,25.6573169-48.5531715,16.8039831-73.2398905-8.8533338-24.6866124-32.7106861-46.1068782-63.5245544-57.0353045-33.5948817-11.9147729-68.1275768-13.1971195-104.9433654-9.4026663-36.8156463,3.7944532-72.6358793,17.1259727-95.2453737,39.2453318s-30.2429882,53.3486913-15.2770852,78.8599437c6.939307,11.8289062,18.6326765,23.6913058,14.8511296,36.2995186-2.8797157,9.6010663-14.464143,16.5903994-26.8572458,19.8232526-12.3931223,3.2328532-25.7550235,3.4433065-38.8310775,4.2609065-29.0321081,1.8154666-58.9400208,7.2488531-81.0241464,21.4991992-22.0839833,14.2503461-33.9080551,39.1012252-21.3963389,58.8331711,15.257743,24.0627191,58.2419941,31.7721588,75.9638794,54.8655979,18.1336187,23.6299724.2407822,52.574078-31.2689794,62.4945043-38.8869709,12.2429862-84.5250888,12.1979729-123.1647352-.5870933-43.5795933-14.4196261-77.2127328-44.723625-88.2137914-79.481917-8.7474935-27.6387189-3.1668354-58.0323178,17.3714767-81.8999435,20.5384544-23.8676258,56.3157362-40.4596251,94.1515426-41.7603184,31.6606361-1.08832,64.1600033,7.9263997,94.5100631,1.0779733,18.1134236-4.0873598,33.7961479-13.8983461,42.4068506-26.5298123,8.6108449-12.6314662,10.0323561-27.9110389,3.8439824-41.3169051-6.1755736-13.3781328-19.1394143-24.2522657-31.2426683-35.1162653-12.103254-10.8638929-24.0105257-22.6946125-27.3120725-36.6334919-3.3015468-13.9389861,4.8593069-30.4030922,22.6336723-35.1692787,31.3574416-8.4084263,59.4951141-9.3459196,92.7776758-8.5075197,33.2827039.8384,66.9035949,3.4127999,99.6715974-1.0397866,45.4885167-6.1810131,87.3019944-26.375999,113.6246269-54.8785046,26.3226325-28.5023989,36.8298685-64.9605309,28.5523926-99.0719962"/>
      <path class="cls-1" d="M454.1396507-33.9021854c-44.3322334,22.5439991-66.3020123,67.1813308-52.1331227,105.9217026,6.600792,18.047466,19.9530677,34.199572,31.5652283,50.7637314,11.6122776,16.5641594,21.8100633,34.4863987,21.1926766,53.1947713-.6172445,18.7084793-14.6915563,38.2849052-38.438402,44.0312517-23.4877168,5.6836265-49.7183586-3.6409599-65.5900478-17.8155727-15.8717164-14.1746128-23.6152901-32.3439988-30.9960549-50.0069314-7.3807648-17.662826-15.1222052-35.8324253-30.9910771-50.0088514-25.8126534-23.0595191-71.4891414-31.3847455-109.5948856-21.9107192-38.1057442,9.4739196-67.3939945,35.2204787-76.9924306,64.4558909-9.598436,29.2354122-.3926756,61.1383443,21.7617078,86.2470367,13.5601455,15.3684261,31.5413024,28.2582389,46.0678813,43.1215984,14.5264685,14.8633594,25.8089579,32.8858654,22.8020956,51.1761047-3.5545602,21.6223992-25.6971391,38.4226119-45.277475,54.5155179-19.5802705,16.0927994-38.8553648,35.9901853-34.6780471,57.5498645,4.1442472,21.3883725,30.2869685,36.5621319,56.8132632,45.0074649,26.5264369,8.445333,55.6491406,12.7032528,79.919933,24.3554124,24.270905,11.6521596,42.9620644,34.3699187,32.822615,54.6009579"/>
      <path class="cls-1" d="M-52.6117018,490.1078213c24.396233-35.479252,67.3163429-61.2812777,103.815012-90.3369566,36.4984908-29.0555722,68.813088-66.2085308,63.0122699-105.890236-4.3155913-29.5212789-29.4610847-55.3373846-59.6080386-74.5925305-13.4169607-8.5695997-28.2753437-15.2924794-42.4058694-23.0842658-12.9782054-7.1563731-27.251771-10.2486396-42.5789188-14.2961061-34.7161626-9.1676796-74.6033835-29.0117322-51.1462439-60.640211,10.6207297-14.3203195,30.272429-23.4195191,49.7105105-30.9020788C-.0071111,78.1218104,33.4838426,68.4852241,65.3566976,56.3401579c31.8729972-12.1451729,62.5902965-27.137599,85.0936932-47.9723715,22.5033967-20.8347725,36.0318596-48.2413848,30.230046-74.6989838"/>
      <path class="cls-1" d="M1097.6153103,289.8179089c-32.881495-6.6319997-69.3725902-2.4484266-98.1110095,11.2478929-28.738277,13.6962128-49.2864025,36.6968519-55.2460828,61.839891-4.0294402,16.9998927-1.6775239,34.672532-7.0114137,51.469118-5.3339025,16.796586-21.9734767,33.7079454-44.9743807,34.4438387-15.7772669.5047466-30.698669-7.0761597-38.8821363-17.2054393-8.18331-10.1293863-10.4582967-22.3995725-9.86779-34.2349854,1.1172978-22.3913591,12.1176184-44.443305,30.8707571-61.8861843,22.8873967-21.2881059,55.9040029-35.0666653,81.2364841-54.7354646,37.1968019-28.8806389,55.9308829-70.584104,49.6201981-110.4584491-4.0480825-25.5780257-19.199017-51.6874647-50.2583492-64.8394642-13.3552489-5.6552531-26.1233791-6.0212264-40.7681443-7.759253-6.077867-.72128-14.034774-1.7342933-17.2741698-6.2490664-7.3518937-10.2508796,8.8610138-22.7117858,15.8162497-30.3068788,10.5126405-11.4797862,17.9637924-25.4244257,23.8683034-38.5498652,12.3107562-27.3666123,16.5855297-56.7921045,11.9763917-85.4829834"/>
      <path class="cls-1" d="M905.9398516,417.4782774c3.7033246-7.3105064,3.2763735-15.3638394,3.8158224-23.1736524,1.5230579-22.0468258,11.3378139-43.7379183,28.0203392-61.926291,3.5219913-3.8399999,7.3810493-9.0515197,3.5562668-12.7250128-4.2099202-4.0434132-12.8480718-1.6371199-18.3715565,1.3890133-21.688477,11.8826662-38.0653672,29.1238389-45.9545623,48.3795182-6.2004625,15.1342928-7.6912505,32.3866654-2.5935646,47.8451182,5.1713425,15.6823461,23.7616368,15.5410127,31.5272549.2113067Z"/>
      <path class="cls-1" d="M1106.3332485,273.5999895c-20.1749434-7.9721597-45.0875756-6.5814397-66.3065634-.3169067-21.2188455,6.2646398-39.5400554,16.904426-57.5650163,27.3806923-5.5897721,3.2487465-13.0046584,6.6427731-19.2123743,4.1023998-5.154418-2.1092266-6.3849248-7.538773-4.3312358-11.6644262,2.053689-4.1256532,6.503526-7.2698664,10.7015117-10.3487996,25.5158057-18.7141326,46.9920627-40.9773851,58.9676119-66.1917841,11.9756806-25.214399,13.9545607-53.5336513,1.8157408-78.7041037-12.1387991-25.1703457-39.2221782-46.6664516-73.3209533-54.5658646-8.7007293-2.0156799-18.7797343-3.7159465-23.276659-9.6547196-6.1627736-8.1385597,2.240569-17.8531193,9.1511471-25.6465057,31.1149527-35.090132,36.0512018-82.3772769,12.5964806-120.6716754"/>
      <path class="cls-1" d="M1120.4260492,244.8355106c-5.3853869-6.6514131-17.5355742-8.6867197-27.6121614-6.8323197-18.1542502,3.3409065-30.0286593,15.3182928-46.1374601,21.5314125-4.8725336,1.8793599-11.008285,2.8444799-15.6902408.7099733-4.2523024-1.9384533-6.112427-5.9896531-5.8349514-9.716053.2774756-3.7260799,2.3189335-7.2333864,4.3293869-10.6471463,30.9521082-52.5562647,52.284438-130.6497017-29.8604104-164.5299137-7.1967293-2.9683199-15.1570497-5.3447465-20.5370322-9.9991463-8.1517515-7.0525864-8.2508804-17.6709327-4.5196802-26.5752523,3.731058-8.9043197,10.6845872-16.834666,15.5731919-25.4180257,11.9583183-20.9961592,10.715296-45.9803716-3.2957157-66.2499175"/>
      <path class="cls-1" d="M1086.8725542,218.836365c-4.5659025,4.7761065-10.148125,9.0045863-16.470472,12.4764795-1.9140268,1.0510933-4.0786491,2.0742399-6.4483559,1.9935999-3.4936891-.1188267-6.1155559-2.7032532-6.5814759-5.3028265-.46592-2.5994666.6846578-5.1922131,1.8190223-7.6733864,7.4512975-16.298666,14.9027563-32.5974388,22.3542056-48.8961048"/>
      <path class="cls-1" d="M1086.4305275,139.751568c-1.4737067-27.271039-20.2605521-53.7314113-49.6081092-69.870184-12.1860273-6.7014397-27.1856369-12.8312528-30.8798594-23.8204791-2.8680535-8.5311997,2.1747201-17.2904527,6.5632714-25.4498124,13.1663651-24.4798924,21.2307818-52.2241047,9.4897783-77.1084771"/>
      <path class="cls-1" d="M1094.612999,78.580797c-.82176-10.4884263-13.9700721-17.7532793-26.2307569-22.8357325-12.2605517-5.0823465-26.1148458-10.5390929-30.4897438-20.5202125-3.8408535-8.7628797.95872-18.1522126,4.4999113-26.985919,9.2347738-23.0363725,9.9182938-47.9650115,1.9539811-71.2665573"/>
      <path class="cls-1" d="M1090.7912032,40.7598918c-11.013405-3.0456532-23.1088367-6.8187731-27.9426859-14.8412794-3.6920891-6.1276798-2.1448534-13.2277328-.5277867-19.8418126,4.683378-19.1562659,9.366756-38.3126385,14.0499918-57.4689045"/>
      <path class="cls-1" d="M1119.9591332,380.3602905c-23.6411743-10.3727722-57.9766068-2.8505554-70.4558964,15.4355469-9.6334229,14.1160278-6.6072178,30.9375916-7.5746231,46.778656-2.416357,39.5699158-33.7810421,77.8679504-80.8547611,95.8288879-28.2363586,10.7735596-60.5077209,14.2374268-92.1853027,14.5368652-28.7658691.2719116-58.9917908-2.3135986-82.6356812-14.6047974-18.6903992-9.7162476-31.500946-24.6431885-40.8473511-40.1920166-24.5124207-40.7784424-27.6551209-88.5326843-8.6158142-130.9232788,2.0905151-4.6546326,4.4727478-9.4777527,3.5783081-14.3432617-.8312378-4.5217285-6.1298828-6.8603516-12.9291382-9.0926819-34.3897095-11.290741-63.5015564,5.5073242-67.0663147,7.8098145-2.039856,1.3175354-3.1348267,2.7063904-3.836853,3.8825989-2.1252747,3.560791-2.0453491,7.9883423-.387146,11.7857666,2.347229,5.3754578,7.2119446,9.8813782,11.5091858,14.5298157,28.8473511,31.2044678,33.4704285,73.4742432,15.0135498,108.832428-18.4567566,35.3581543-58.5248718,63.4257813-105.597168,77.4053955"/>
      <path class="cls-1" d="M979.8884303,544.9615792c32.0857734-7.6045864,58.7147525-27.131519,69.574273-51.0183447,5.4434136-11.9736529,7.0644626-24.7043191,10.596125-37.0744519,3.5316528-12.3701329,9.3959116-24.9147724,21.4537966-33.760852,12.0578851-8.845973,31.6202683-12.9138128,46.305709-6.6908797"/>
      <path class="cls-1" d="M1074.4852824,466.1162489c-.6392889,35.1123187-24.0696901,69.596584-61.5722698,90.6199432"/>
      <path class="cls-1" d="M771.1235603,562.7540052c-17.0248542-3.9665065-29.9687838-14.8578128-37.3622064-27.024319-7.3932804-12.1665062-9.9696542-25.6260257-12.112214-38.8996252-.7938845-4.9181865-3.5747741-11.2523729-10.176285-11.0807462-6.1919292.1610667-8.6820982,5.9429331-9.7956983,10.5140263-8.747236,35.906772-34.7696373,69.3042107-72.1867415,92.6454365"/>
      <path class="cls-1" d="M869.3103742,223.5798315c3.2241779-7.1934931,3.6404624-15.2798928-.2999467-22.2698658-5.8786136-10.4283729-20.2939744-16.7874127-34.7895484-19.9489059-6.7593959-1.4742399-13.8899918-2.4180266-20.8368366-1.5643733-6.9468448.8536533-13.7166229,3.7374932-17.0343831,8.3939197-5.5297425,7.7606397-.2141867,17.1049593,3.351735,25.4878924,5.3541143,12.5862395-2.8668994,40.6985584,19.6716262,44.222505,21.70169,3.3931732,44.1385267-21.3836792,49.9373537-34.321172Z"/>
      <path class="cls-1" d="M846.202533,217.7994583c1.3509539-8.387413-4.5878047-17.8867193-15.4211563-20.2014926-3.8408535-.8206933-8.6340271-.4514133-10.8647828,2.0329599-1.6886045,1.8807466-1.4033067,4.3523198-1.0521758,6.6043731,1.4963359,9.596693,2.9926559,19.1933859,4.488976,28.7899722.1986688,1.2740266.4309334,2.6136532,1.4550756,3.6413865,7.0816715,7.1036797,20.7857788-17.0901327,21.3940633-20.8671992Z"/>
      <path class="cls-1" d="M679.4513778,236.2030843c-8.4317871-16.804266-13.5277518-34.9897587-10.0161427-52.750398,3.5117513-17.7605327,16.6297608-35.035732,37.6728197-43.5970117,6.3823648-2.5966932,14.5847474-5.8150398,13.9060447-11.2370129-.6786662-5.4218665-9.6487645-7.4746664-16.8409426-8.2214397-22.5764989-2.3439999-46.22324-4.6120532-67.6367679,1.2420266-21.4135478,5.8540798-39.3527487,22.6828791-33.934224,39.2866118,4.0659913,12.4590929,19.1790943,20.7551992,30.054686,30.6546122,21.95129,19.9813326,26.735788,49.6898114,11.7590762,73.0164239-2.2960357,3.5762132-5.091698,7.3307731-4.3151647,11.2569596,2.9415824,14.8706128,30.6267038,6.4315731,39.3238776.28512,15.1573341-10.7118929,6.1765692-27.6796789.0267378-39.9358918Z"/>
      <path class="cls-1" d="M652.1110031,172.9295934c1.2424534-1.9180799,1.4301867-4.1065598,1.8404979-6.2166398,1.593438-8.196053,6.9592181-15.9524261,14.9764274-21.6489592,3.2467913-2.3068799,7.2752359-4.9452798,6.6252803-8.2639997-.4435911-2.2658132-3.1524979-4.0011732-6.0972092-4.6070398-2.9447113-.6058666-6.0821336-.2823467-9.0632538.2130133-8.8934405,1.4778666-17.486792,4.5567998-23.738739,9.5255463-6.251947,4.9687465-9.9269694,11.9518929-8.6801071,18.719466,1.0501689,5.7000531,17.3889431,22.6962125,24.1371035,12.2786129Z"/>
      <path class="cls-1" d="M431.2280763,440.1492099c15.0232185,18.2111993,38.9188041,32.0254921,65.85515,38.9618118,26.8538325,6.9150931,72.3875593,8.816533,87.9377112-13.5358928,25.5542057-36.7330119-56.517834-56.8349845-71.6751681-84.5017568-10.9525339-19.9925326,2.541369-43.1474117,21.80537-59.2231444,5.3560892-4.4695465,11.6420273-9.9814396,9.2127294-15.7080527-2.7825779-6.5592531-14.493606-7.671573-23.5976545-6.8015997-40.8543553,3.9036799-78.2664573,24.2014924-95.9950271,52.0814914-17.7285698,27.8801056-15.2120897,62.4598376,6.4568892,88.7271433Z"/>
      <path class="cls-1" d="M556.1229449,443.2117164c-5.2522669-20.7432525-60.783932-42.985705-69.2528391-59.4187711-9.1918227-17.8358393,2.3387023-38.0359452,18.0374765-53.1029313,2.4328535-2.3349332,5.1212567-4.9822931,4.6051558-7.920213-.6232178-3.5467732-5.9810136-5.7526398-10.7319472-5.4341331-4.7510758.3185067-8.9001249,2.4728532-12.6115562,4.7201065-38.9745798,23.5991458-54.2192383,66.8676241-35.875984,101.8261295,7.5736182,14.4340261,20.5262233,27.498879,37.9698978,35.8323186,15.1825316,7.2533331,39.5675284,10.6333863,55.2087025,2.2145066,11.0482495-5.9466664,14.286223-12.2591995,12.651094-18.7170126Z"/>
      <path class="cls-1" d="M540.4030151,443.1794739c.1873169-3.9096985-6.6890869-5.3843994-22.9450684-16.0879211-4.9579468-3.2644653-12.9334717-8.5158691-19.7802124-14.7692261-4.7796021-4.3653564-17.6629639-16.1321716-21.8901367-31.1208801-6.7199707-23.8279114,17.1889923-41.9421742,9.4945068-46.417572-6.4615103-3.7582538-32.6953735,26.1217957-27.6922607,62.2417603,3.3452148,24.1506958,20.649231,38.4702148,26.1098633,42.9889832,6.0200806,4.981781,15.7789307,12.8360596,29.6864624,13.4985352,12.618042.6010437,26.7521362-4.8083496,27.0168457-10.3336792Z"/>
      <path class="cls-1" d="M574.5266216,234.917431c.765462-4.7217065-1.7524404-9.3898663-4.7628583-13.5764261-7.0963204-9.868693-17.2699031-18.483306-29.4751304-24.9581857-3.1586135-1.6755199-6.9074492-3.2778665-10.6874317-2.6596266-4.6486758.7602133-7.2608715,4.6038398-7.7137071,8.156053-.4526934,3.5523199.5812623,7.1442131.08576,10.6932263-1.1568589,8.2855464-10.1063116,14.5325861-15.9479712,21.6182392-2.5676564,3.1146665-4.6280299,6.8434131-3.3272654,10.3730129,1.990969,5.4023465,10.6072183,7.627093,18.0633609,8.006293,14.07244.71584,51.6457271-4.5778132,53.765243-17.652586Z"/>
      <path class="cls-1" d="M553.7988914,229.9785512c1.0711954-6.0673064-3.0939024-12.0505595-8.6146849-16.557546-2.6467557-2.1607466-7.1982937-4.1412265-10.1317694-2.1998932-.9467964.6266666-1.4512356,1.5378133-1.9248357,2.4157866-2.0819912,3.8589865-4.1639824,7.717973-6.2459737,11.5768529-1.9033601,3.5277865-3.8314669,7.4251731-2.2499557,11.0409596,4.6739683,10.6865063,27.6791481,2.1490133,29.1672193-6.2761598Z"/>
      <path class="cls-1" d="M791.7766457-22.9146658c5.1983484,9.5969063,10.4557516,19.3830393,11.2210495,29.6215455.7652978,10.2386129-3.6652091,21.1899725-14.9708808,27.7911456-11.0552183,6.4550398-26.5705258,7.718613-41.0072199,7.3069864-44.0844822-1.2570666-87.2977111-15.4189861-130.8588365-10.5549863-35.854225,4.0033065-67.8711292,21.7394125-81.4367121,45.1125316-4.9541691,8.5359997-10.0608005,19.3032526-23.1490856,20.7910392-8.1883026.93088-16.4022053-2.7010132-20.7328722-7.611733-4.3305247-4.9108265-5.4600536-10.8509863-5.7362734-16.6047994-1.8572559-38.6936519,34.0493059-76.9205304,85.8189086-91.3645832"/>
      <path class="cls-1" d="M760.4203419-12.6275195c12.8096718,5.5874131,11.7154139,21.0764792.9809067,28.7383456-10.734365,7.6618664-26.9131392,9.088853-41.7033977,8.401493-44.4602334-2.0662399-88.921889-19.3511459-131.7094467-10.0583463-22.9404456,4.9822931-42.6450511,17.7707727-52.514136,34.0820254-3.3221691,5.4906665-7.5498671,12.4282662-15.5882675,12.3339729-6.3003025-.07392-10.8795739-5.1213865-10.8549694-9.8471463.0246044-4.7258665,3.3716624-9.0513063,6.865067-12.9843195,19.389441-21.8303992,46.692269-39.6653852,78.1856751-51.0730647"/>
      <path class="cls-1" d="M744.5349722-11.1713062c3.5952182,3.7975465,1.6305779,9.4169596-2.8669157,12.6284795-4.4976358,3.2115199-10.8131561,4.5143465-16.931272,5.3126398-35.6144374,4.6467198-73.9705127-4.8967465-98.8197028-24.5876257"/>
      <path class="cls-1" d="M409.0660129-24.870399c-39.3271487,28.7399456-52.2717893,75.9377038-31.2624371,113.9860223,11.8557873,21.4707192,33.5835039,40.7338651,35.242384,63.9397309.7158045,10.0119463-3.5734757,21.2109859-15.1872008,26.1768523-11.4116272,4.8792531-26.5112191,2.0188799-36.5314863-4.3515732-10.020125-6.3703464-15.9910408-15.5479461-21.1886944-24.5957324-11.745565-20.4457592-19.7717343-47.3561582-40.8167843-63.6270909-20.1298499-15.5631994-48.9456381-25.1159457-77.6962884-26.4645323-56.0733895-2.6302932-104.2587075,26.1521057-129.8612688,61.7770643-18.3462755,25.527999-12.6361606,47.9798382-2.9145601,74.4610105.8129081,2.2145066,1.6270223,4.5676798.7725512,6.7733331-1.5746845,4.0652798-8.3980804,5.8644264-13.8855829,4.8728531s-9.8921249-3.9649065-14.0428807-6.8337064c-18.3798054-12.7029328-34.9956285-29.0812789-59.0808572-35.5817586-10.470543-2.8260266-21.7028283-3.7756799-32.2104913-6.5233064-10.507663-2.7477332-20.8244638-7.8982397-24.3747574-15.8081061-13.7654055-30.6698655,75.8824239-46.6117316,101.0294121-54.0632513,41.0465085-12.1626662,84.6199863-30.9335455,112.9270455-56.6955712,28.4599481-25.9010123,48.2386513-57.2364778,56.0955452-90.3139166"/>
      <path class="cls-1" d="M384.4698161-25.075199c-20.5506855,18.8918393-32.8783661,42.7347184-34.6823129,67.0788241-1.8039468,24.3439991,6.9250848,49.0646381,24.557939,69.5480507,5.5381336,6.4334931,12.1192984,12.8213328,13.387094,20.4198392,1.267769,7.5985064-5.6914492,16.6095994-15.8909164,16.256426-6.080427-.2104533-11.1075561-3.5661865-15.0165341-7.0654931-23.1813701-20.7513592-25.2662057-51.0462914-46.6757713-72.8422372-21.8446233-22.2387192-63.8025988-31.9821854-98.5807695-22.8922658-5.6674136,1.4812799-11.2344184,3.4215465-17.2133302,3.8136532-5.9790227.3921067-12.6914535-1.1845333-15.5654803-5.1362131-4.4168536-6.0730664,2.1963379-13.1742928,8.1561604-18.4540793,34.0744551-30.1857055,59.1761097-66.0372242,72.9651237-104.212156"/>
      <path class="cls-1" d="M365.8738057-35.7514653c-28.625752,12.8927995-43.9093795,40.4819185-35.8931657,64.7925309,1.9264001,5.8420264,3.824498,13.8108795-3.4709335,16.316586-4.3621263,1.4982399-9.6412449-.3344-12.765014-3.0654932-3.123769-2.7310932-4.772978-6.2125864-7.1179381-9.351893-9.9453161-13.3143462-34.1781351-19.3783459-52.790616-13.2102395-4.6266313,1.5332266-8.885476,3.7045332-13.7042496,4.8580265-4.8187736,1.1534933-10.6200183,1.0808533-14.3337252-1.4948266-3.8927646-2.6999466-4.2663824-7.3743997-2.3893335-11.0934396,1.876876-3.7190399,5.5580447-6.7338664,9.0328182-9.737493,24.8653935-21.4939725,43.0405711-47.3141315,52.679256-74.8372238"/>
      <path class="cls-1" d="M320.9978839-21.8681592c-1.1874134,7.4274131-2.3748268,14.8547194-3.5622402,22.2820258-.5377422,3.3635199-1.7493334,7.3851731-6.0272645,8.4719997-3.1491982.8001066-6.575474-.4593066-9.1472785-2.0398933-2.5716624-1.5805866-4.8180625-3.5496532-7.8626137-4.5518932-7.9453871-2.6154666-17.6372631,2.3397332-25.6228991-.20608-5.4628981-1.7415466-8.1700982-6.5711997-8.1055293-11.0228262.1316978-9.0764797,9.0700508-16.570666,17.6664187-22.9601058,8.5964804-6.3894398,17.9329431-13.4027728,19.2386854-22.4267725"/>
      <path class="cls-1" d="M59.4718262,165.462607c1.3040007-3.4714665-.1520356-7.1375997-1.0988089-10.6735996-4.7496536-17.7395193,4.5444269-37.1919986,23.2355223-48.6316781,3.8299368-2.3441066,8.5191118-5.3032531,7.4125148-8.9165863-.8056889-2.6311466-4.6576701-4.2168532-8.2568538-4.2412798-3.5993602-.02432-7.0001781,1.14016-10.2623294,2.2810666-25.3083035,8.8505597-50.6167852,17.7011193-75.9250894,26.551679-6.0524094,2.1165866-13.1019388,5.4278398-12.6077165,10.4227196.3797334,3.8367999,5.1626671,6.4569598,9.4859385,8.5277863,13.5061344,6.4694398,27.0115576,12.9396262,40.5184388,19.4083193,6.2785425,3.0069332,23.318295,16.399466,27.4983836,5.2715731Z"/>
      <path class="cls-1" d="M47.1977633,119.7190355c1.961529-2.3652266,4.2685158-5.6230398,1.6403912-7.590933-2.0926579-1.5669333-5.6116625-.8267733-8.3218848.06048-5.1336182,1.6806399-10.1660452,3.5354665-15.076232,5.5570131-6.5123919,2.6809599-13.3565524,6.1991464-15.0666325,11.6209062-2.6831646,8.5071997,14.0862947,22.7382391,26.5678598,20.0212259,7.6391826-1.6629333,5.5859203-5.7598931,5.1440358-10.6676263-.6421334-7.1317331-.1938489-12.6001062,5.1124625-19.0010659Z"/>
      <path class="cls-1" d="M234.8548751,552.8400856c7.8840893-12.0975995,1.0197334-27.3010123-11.708445-36.7978653-12.7280362-9.4967463-30.1044638-14.4905594-47.089638-18.8535459-16.9853164-4.3629865-34.5430773-8.515413-48.649958-16.8446927-17.4095653-10.2793596-27.9775303-26.4356257-29.8259926-42.995625-1.8486045-16.560106,4.6626136-33.3699187,16.6408542-47.3501849,10.1044627-11.7931729,23.8179568-21.5656525,35.4606951-32.5320521,11.6427384-10.9662929,21.5195033-23.9041058,21.7361078-37.9212786.2747733-17.7702393-14.7147385-33.3782387-29.0332459-47.5380249-2.8236801-2.7924266-6.4704003-5.8796798-11.1288895-5.6044798-4.2885691.25344-7.3844626,3.4821332-7.8974582,6.6855464-.5128534,3.2034132.9089423,6.3812264,2.2378668,9.4499196,8.5434315,19.7285326,13.9868452,41.2233584,6.0388981,61.091411-11.2968539,28.2398923-46.2562157,46.6049049-73.1285371,68.1241574C12.5794143,448.5320362-12.3549876,499.5925143-8.963414,549.9184857"/>
      <path class="cls-1" d="M192.970713,547.0719791c1.3633423-10.5684263-7.2403915-20.7223459-18.5308775-27.1278923-11.2904218-6.4055464-25.0211575-9.7988263-38.3841832-13.3043195-13.3632007-3.5054932-26.9765703-7.3826131-37.4902064-14.4931194-12.0327117-8.137813-18.9275032-19.9508259-21.2361966-31.9785588-1.8018134-9.387413-.7707023-18.4009593,1.5709867-27.5891189.6641778-2.6058666,4.3855647-4.5566932,2.0563912-7.3226664-7.7883737-9.2489596-26.9545258,10.6793596-30.201886,14.8788261-30.0716464,38.8888519-36.0793979,87.77205-15.9927831,130.1285284"/>
      <path class="cls-1" d="M152.5756176,547.1926191c-3.7454224-8.6465063-13.8077874-14.9194661-24.3832901-19.3626659-10.575645-4.4431998-22.1327656-7.5716264-32.183895-12.6536528-12.1912895-6.1640531-21.8076456-15.1501861-27.1930325-25.4109857-2.3809423-4.5361065-6.3800892-10.4350929-12.6981695-9.290133-4.2349513.7674666-6.1272181,4.4219732-7.0823826,7.6100264-7.0119826,23.4054391,1.4331734,49.1277848,22.1337611,67.4152508"/>
      <path class="cls-1" d="M118.899527,542.367126c-17.1946675-6.0692264-32.0530505-15.8087461-42.3746866-27.7758923-1.3155556-1.5253333-2.6003912-3.1207465-4.5128536-4.2355198-1.9124623-1.1146666-4.6491025-1.6494933-6.7871292-.7957333-3.8132973,1.5226666-3.0536535,5.7503998-1.5401245,8.7849597,6.173867,12.3784529,15.8398586,23.7699191,28.1769259,33.2067187"/>
      <path class="cls-1" d="M427.6149205,551.551659s-62.4785099-15.7294927-106.6170366-76.1738638c-44.1385267-60.4444777-33.5735484-121.057382-38.382082-131.6397816-4.8083914-10.5825063-19.0306143,12.8841595-30.4083927,29.2397856-11.3777784,16.3555194-46.4591668,28.6024522-39.8222243,49.8567448,6.6370538,21.2542925,116.6222282,39.7432518,128.9481743,119.3876221"/>
      <path class="cls-1" d="M283.3140869,441.9787598c1.0734863-2.0845032.5699463-4.777771-.0172119-6.7707825-8.6833496-29.4735107-5.4935303-51.786377-13.3052979-52.914032-1.828125-.263916-3.9381714,1.5584412-8.0836182,5.2138672-9.1122437,8.0351563-18.8372803,16.6106567-18.0886841,27.6115417.4719849,6.9358521,4.5019531,12.1261292,8.1501465,15.2350769,4.1637573,3.5482788,26.3861084,21.2531128,31.3446655,11.6243286Z"/>
      <path class="cls-1" d="M306.8693855,299.5653219c-1.416249,5.0489598-2.0782934,11.3379196-8.3656538,13.4316795-4.6784002,1.5579733-10.3755383-.3575467-13.4957518-3.4010665-3.1203557-3.0434132-4.2636802-6.9401597-5.2835558-10.7023996-5.2586669-19.3994659-10.1101516-40.0123718-27.4244281-54.9543446-12.0725339-10.4184529-29.0023837-16.9343994-42.5324111-26.2913057-17.5722676-12.1524262-28.9992548-29.1880522-31.5353616-47.0137582-1.9293868-13.5615995,2.8683379-29.3449589,18.8427387-35.8618653,13.5402674-5.5238398,30.9791305-2.3759999,43.3597178,4.5103998,16.2473253,9.0371197,25.6972516,23.3944524,31.9715572,37.8172786,6.2742759,14.4227194,10.0019205,29.4898122,17.8935184,43.4585583,7.8916562,13.9688528,20.893328,27.2113056,39.6638178,32.8658121,5.4803634,1.6508799,11.371805,2.6347732,16.4076097,4.9490131,17.0649336,7.8423464,4.9750758,16.9257594-8.3537071,18.6070393-15.8934764,2.0049066-27.7111481,10.3330129-31.1480905,22.5849591Z"/>
      <path class="cls-1" d="M217.8509276,151.6817009c13.0013567,3.2543999,26.4217613,14.7887994,31.5844283,20.9875192,21.2316455,25.4925857,20.5535299,59.6602644,54.7568384,79.0120503,7.4635382,4.2228265,16.9408009,10.0498129,13.5862051,16.5945594-2.9494046,5.7543464-14.4068274,6.2394664-21.0230055,2.5813332-6.6160359-3.6581332-9.8215827-9.729813-13.5852389-15.2103461-17.3132516-25.212159-50.7097333-41.6543984-74.8868012-63.4594109-9.7575827-8.800213-24.4654946-32.3639454-3.8114135-40.2022385,4.1423647-1.5720533,8.7338671-1.4662399,13.3789873-.3034667Z"/>
      <path class="cls-1" d="M-19.7505437,371.6817992c21.5094061-13.6502395,43.3633103-29.5747189,48.4284128-50.3626647,3.2624001-13.3896528-1.2747378-27.7438923-12.2041256-38.6102385-10.9294942-10.8663463-28.0861888-18.0808526-46.1485546-19.4057593"/>
      <path class="cls-1" d="M-5.8170316,340.1550804c11.0058675-8.467413,15.3609967-21.4762658,10.9934942-32.8386121-4.3673603-11.3624529-17.2871124-20.6362659-32.6139758-23.4102391"/>
      <path class="cls-1" d="M37.2477539-9.8968529C14.5338322,5.1809065-14.1312011,14.0524795-42.2109899,22.6561058"/>
    </g>
    <path class="cls-3" d="M680.3413153,353.9753404c-4.4884949,2.5895691-7.5292053,4.9638672-8.9887085,8.6586914-3.9397583,9.9737244,16.8193665,16.2230835,18.4806519,33.3117065.3368225,3.4646301-.1679077,6.3022156,1.9299622,10.3649597,2.3129272,4.479187,9.8707581,11.7612915,14.359436,10.2064819,5.3539734-1.8545227-.855072-13.7733459,6.5358276-27.5244141,6.0411682-11.2398376,16.5624695-15.1340332,15.6923218-25.1867981-.1981812-2.2894287-.8986511-3.8756104-1.0549622-4.2197876-5.416687-11.9274292-30.6422729-15.0219421-46.9545288-5.6108398Z"/>
  </g>
</svg>