
<svg id="Layer_2" fill='none' data-name="Layer 2" xmlns="http://www.w3.org/2000/svg" version="1.1" xmlns:xlink="http://www.w3.org/1999/xlink" viewBox="0 0 1066.666748 533.333313">
  <defs>
    <style>
      .cls-1 {
        stroke: #C9FF18;
        stroke-miterlimit: 13.3333325;
        stroke-width: 1.3333333px;
      }

      .cls-1, .cls-2 {
        fill: none;
        stroke: #C9FF18;
        stroke-width: 1px;
        stroke-dasharray: 1000;
        stroke-dashoffset: 1000;
        animation: dash 3s linear infinite;
      }
      @keyframes dash {

        0% {
        stroke-dashoffset: 1000;
        opacity: 0;
        }
        20% {
        opacity: 1;
        }
        80% {
        opacity: 1;
        }
        100% {
        stroke-dashoffset: 0;
        opacity: 0;
        }
        }

      .cls-2 {
        fill:none;
        stroke: #C9FF18;
        stroke-width: 0px;
        stroke-dasharray: 1000;
        stroke-dashoffset: 1000;
        animation: dash 5s linear infinite;
        animation-delay: 0.3s
      }



      .cls-3 {
        clip-path: url(#clippath);
      }
    </style>
    <clipPath id="clippath">
      <rect class="cls-2" x="0" width="1066.666748" height="533.333313" transform="translate(1066.666748 533.333313) rotate(-180)"/>
    </clipPath>
  </defs>
  <g class="cls-3">
    <g>
      <path class="cls-1" d="M1059.4886594-9.7816529c-7.9128182,1.7208533-13.9723385,6.5684264-18.2843743,11.8335995-4.3120358,5.2650665-7.272107,11.0963196-11.4837339,16.4069327-4.6176713,5.8225064-10.7302405,10.9752529-17.9037876,15.0922661-4.360818,2.5027199-9.2812805,4.6715732-14.7241252,5.2169598-5.4427025.5454933-11.4858673-.8267733-14.6131919-4.2119465-4.1974047-4.5437865-2.0032001-10.6538663-1.2185717-16.1501861,2.5924385-18.162026-14.8438646-36.7402653-38.5147636-41.0371184"/>
      <path class="cls-1" d="M1086.0251941,29.4362656c-10.4379739-2.2829866-22.1902234-.90976-31.2073971,3.6466132-9.0171738,4.5563732-15.1281786,12.2094929-16.2275564,20.3222392-.6904889,5.0957865-.2582756,11.3869862-6.1505425,13.9764261-8.0264537,3.5273599-17.9511476-4.0962132-26.9425792-2.3061332-6.8398937,1.3617066-9.6779383,7.2904531-11.9955917,12.3052795-2.3176535,5.0147198-6.8118759,10.7531729-13.882454,10.5311996-7.4713604-.2346667-11.2544717-7.0726397-11.0050139-12.6779729s2.6210135-11.4340262-.0638578-16.6684794c-3.8664535-7.5383464-17.0396453-11.2893862-18.8000845-19.2575993-1.2552409-5.6823464,3.9506616-10.9502929,5.5017372-16.5913594,2.3465246-8.5341863-4.1338313-17.341866-13.2458673-22.7480525-9.1120489-5.4061865-20.4872544-8.0973864-31.5832905-10.6806396"/>
      <path class="cls-1" d="M1079.5640382,99.6670896c-10.4588805-5.1311998-21.1171566-10.3323729-33.1207128-12.9419728-12.0036984-2.6097066-25.7739391-2.2878932-36.0228996,3.0762665-7.7248004,4.0429865-12.6070051,10.4095996-19.0226499,15.5825061-6.4156448,5.1730131-16.0630053,9.3737596-24.9645524,7.0627197-7.9439648-2.0625066-12.3036451-8.6769063-13.0870051-14.9542394-.7835023-6.2774398,1.1510045-12.5493329,1.638969-18.8435193.4878222-6.2942931-.8034257-13.1727995-6.7353603-17.6402127-6.551467-4.9338665-16.6838053-5.5545598-25.7133524-7.1743997-9.0295471-1.6198399-19.0176721-5.9089064-19.3800543-12.8668795-.2736356-5.2559998,5.1456003-9.6143996,7.4289782-14.5878394,3.9803602-8.6694397-2.2966046-18.4898126-11.8232184-24.2362657-9.5264716-5.7464531-21.6755211-8.319253-33.4611928-10.7559463"/>
      <path class="cls-1" d="M1080.1800027,129.9023951c-12.4110323-1.1614933-21.6446589-8.752853-31.165726-14.8359461-9.5209249-6.0831998-23.1604634-11.1409062-34.0723326-6.5563731-6.4100873,2.6931199-9.9130208,7.9949864-14.9580699,12.0010662-7.7549515,6.1579731-19.6997699,9.1786663-30.8430238,7.799893-11.1433961-1.3788799-21.1614003-7.1172264-25.867948-14.8170661-5.6648536-9.2678396-3.6969246-20.2583459-8.4542582-29.8088522-6.0423114-12.1298129-23.6778679-20.3853859-40.8611576-19.1277859-5.3222403.3895467-10.5329783,1.5879466-15.8803919,1.6181333-5.3472714.0302933-11.2007117-1.4408533-13.7517518-4.9657598-2.7497246-3.7992532-.7495111-8.5849597,2.3846401-12.2130129,3.1341513-3.6279465,7.3679504-6.7672531,9.5735472-10.7611729,5.0467558-9.1391997-2.7239824-20.1564792-14.3516452-24.8255991-11.6276628-4.6691198-25.7507569-4.2459732-38.6238597-2.0924799-12.8729607,2.1533866-25.239468,5.8965331-38.2395753,7.566293-32.2456194,4.1416532-69.5756836-4.8956798-76.4226883-31.7381321"/>
      <path class="cls-1" d="M1085.1055852,178.4703932c-7.6356363,4.9508265-19.7075921,3.9962665-28.264677-.0184533-8.5569427-4.0146132-14.5116452-10.4175996-20.6043033-16.4530127-6.0926581-6.0353064-12.9612807-12.0969595-22.34041-14.8938661-23.3590056-6.9655464-52.6889271,8.677973-73.7638438-1.5986133-15.4069341-7.512853-15.9778141-23.8263458-22.1354678-36.8124786-4.8948625-10.3228796-17.9060631-20.4488526-32.0745261-17.7806927-9.1151792,1.7164799-15.0865074,8.0540797-22.5814767,12.3064529-7.4951115,4.2522665-20.4845522,5.4983465-24.552819-.8554666-5.5287469-8.6343463,12.8557368-16.9541327,10.8051917-26.4082123-1.5190756-7.0042664-13.6775118-10.8561063-14.3030052-17.9368526-.5933511-6.7163731,9.7669694-12.1604262,8.3097604-18.8023459-1.3603556-6.2011731-12.1874495-8.5001597-20.3026499-6.9348264-8.1153426,1.5653333-15.210383,5.5145598-23.4412101,6.6925864-16.5020453,2.3618132-33.6731039-6.8404264-49.6648559-2.9799466-11.8131206,2.8517332-22.8626501,12.5026129-33.9939573,8.3878397-9.7136361-3.5907199-8.8477871-14.3096528-15.163023-20.9077325-7.3627026-7.6924797-22.0724827-7.9407997-34.2586329-10.4175996-23.0742767-4.6898132-41.2757354-20.6666659-43.8520911-38.4921585"/>
      <path class="cls-1" d="M1093.1351678,224.2260181c-14.5080896,7.3767464-34.9791307,1.8779733-47.5424735-7.2887464-12.5634851-9.1668263-20.4580988-21.3787725-32.4433083-30.9713055-11.9850673-9.5924263-31.2096727-16.4454394-46.9383135-10.6438396-10.1219561,3.7335465-18.1494054,12.3307729-29.3676232,11.4465062-9.6281477-.7589333-15.6128591-8.494933-16.9552947-15.6857594-1.3424356-7.1908264.2971022-14.6231461-1.8631112-21.7011192-3.8098491-12.4827729-20.5720188-21.9814392-37.6233264-21.3202125-14.4512007.56032-26.9835392,7.3444264-40.6796821,10.8467196-13.6962851,3.5023999-32.5006239,1.9543466-37.6193441-8.1967997-3.7869513-7.509973,2.0288001-15.7949861,8.9056716-21.9484792s15.3095119-11.8873595,18.0306343-19.6527992c4.4446024-12.6842662-9.576945-26.0615457-26.5649636-29.1713056-16.9878764-3.1098665-35.0294773,1.9489066-49.0897092,9.7465596-7.6154315,4.2233598-14.4969963,9.2793596-22.8911125,12.5694929-8.3942224,3.2900265-19.0517874,4.5370665-27.1402687.8413866-17.207468-7.8623997-9.529724-29.0526922-21.9100269-40.9756784-8.1365337-7.8361597-22.8519834-9.6479996-36.0944374-9.7053863-13.2423118-.0574933-27.1493703.9508266-39.1176765-3.3003732-19.3389309-6.8693331-26.3667002-24.4636791-31.3396427-40.0729585"/>
      <path class="cls-1" d="M1085.5459052,261.2968434c-12.3406229,5.9498664-28.4033437-2.2040533-36.7000197-11.2783996-8.296676-9.074453-15.1530674-20.3649059-29.0468993-23.8974924-7.6741693-1.9511466-16.4135831-1.11296-23.6690501-3.8189865-12.922454-4.8195198-19.015681-19.8462926-33.4000373-18.9679993-15.7888008.9640533-20.2983833,20.8596259-36.1368196,21.0749859-8.4111649.1143467-14.888832-6.0284798-16.6104186-12.2043729-1.7217423-6.1758931-.1359645-12.5685329-.1846045-18.8777593-.0662756-8.5965863-3.4157649-17.3891193-10.9184006-23.8883191-7.502507-6.4993064-19.491841-10.3337596-30.7234149-8.618133-11.7151295,1.7896533-22.1647656,9.173653-33.9168728,7.5258664-10.0747383-1.4126933-16.6890833-9.0358397-26.4415302-11.4004262-11.4971028-2.7876266-23.3703834,2.3346132-34.5463484,5.7794131-11.1761072,3.4447999-26.7781879,4.2309332-32.6961794-3.6699732-5.5617425-7.4252797,1.8678045-16.375466,8.9594316-23.0271991,8.0964271-7.5942397,16.1929964-15.1885861,24.2894065-22.7828258,4.2388082-3.9758932,8.719804-8.531093,8.0170673-13.5942395-1.10121-7.934933-14.7017796-11.7401596-24.915913-9.5129596-10.214241,2.2271999-17.9977791,8.2441597-26.4356818,13.1017595s-19.4643921,8.820693-29.4496726,6.0708264c-14.812303-4.0793598-16.676552-18.7394126-19.859201-30.3307722-3.4555735-12.5851729-14.5665626-26.1112523-31.6808549-26.701119-14.0000718-.48256-25.3454235,7.7635197-36.7812285,13.8403195-9.2869694,4.9348265-21.3384544,8.134293-32.3923928,5.0047998-9.5172492-2.6943999-19.5979611-9.666133-18.3064187-17.9474126.6677334-4.2813865,4.2218669-7.9548797,6.3482314-11.9595729,5.3924981-10.1562663,1.0978134-22.0918392-7.5851382-30.8724255-8.6828093-8.7805863-21.1694944-14.9619194-33.6992728-20.5474126"/>
      <path class="cls-1" d="M1087.6793809,293.2106555c-14.5014052,3.6377599-30.4711127-2.0141866-41.6513443-9.837973-11.1800895-7.823893-19.3991121-17.7829327-30.5618504-25.6206924-11.1627383-7.8378664-27.0946147-13.5281062-41.6200555-9.944853-14.7200008,3.6312532-24.1856137,15.7833594-39.4410687,17.821866-12.3764629,1.6537599-24.9308592-4.3637332-31.1793794-12.5450662-6.2486759-8.1812264-7.2578848-18.0412793-6.4974364-27.452479.5185561-6.4163198,1.7807783-12.9207462.0665738-19.2188793-1.7142045-6.2982398-7.2506315-12.5348262-15.5908275-14.0155728-20.7580602-3.6853332-33.8237173,22.3975458-55.005585,20.5052792-19.4003921-1.7331199-22.3509345-24.1267191-40.1119475-30.2316788-10.0458506-3.4531199-21.6715223-.6402133-32.4986162,1.0184533-10.8270939,1.6585599-24.3178679,1.2584533-30.053406-5.8258131-3.5514496-4.3865598-2.8387557-9.9236263-2.0094579-15.0177061s1.5399641-10.6317863-2.0142934-15.0169594c-3.554418-4.3851732-13.2485696-6.0967464-17.0712186-1.8404266-2.2644623,2.5213866-1.5601779,5.8808531-2.5139201,8.835413-2.4905957,7.7149864-16.763592,10.6300796-25.873068,6.5887997-9.1096182-4.0411732-13.1035029-12.6068262-12.9361073-20.5437859.1675378-7.936853,3.7171005-15.5767461,6.3701337-23.2612258,2.6530135-7.6844797,4.4011896-15.9359994,1.0315378-23.4607991-3.3698135-7.5247997-13.3081607-13.9062395-23.7805725-12.7549862-8.3499891.9181866-14.0613494,5.7214931-20.6645853,9.1343997-6.9485515,3.5913599-14.8495652,4.0773332-23.3053879,4.2274132-17.7430982.3147733-35.646864-3.6887465-50.0812826-11.4653862-9.3606405-5.0430931-17.7110765-12.3331195-18.2896365-20.9662925-.5872356-8.7604263,6.8589286-16.7262927,8.2176004-25.438399,1.6915912-10.8466129-6.4745248-21.4988792-17.633992-28.5138122-11.1593486-7.0149331-25.0203274-11.0591996-38.6079309-14.9847461"/>
      <path class="cls-1" d="M1089.7630787,320.4086278c-18.7933876,5.6919464-42.3637355.5394133-54.1363331-11.8341329-7.1971456-7.5645864-10.1037413-17.122666-17.8033791-24.4036257-14.4622833-13.6761595-45.6257338-14.5774928-61.4495213-1.7773866-6.5974048,5.3367465-10.4830583,12.3121062-17.1370675,17.609066-6.6540092,5.2970665-18.2188098,8.5377063-25.967788,4.1573332-7.7532448-4.3828265-7.0816715-13.4414928-12.9449251-19.2455459-5.8110581-5.7524264-16.3918231-6.9857064-25.5911835-9.1027197-9.1995027-2.1170133-19.2484988-7.2689064-18.3332987-14.4532261,1.2074667-9.4774396,20.2160366-13.1874128,21.4667389-22.6616525.9385245-7.1087997-9.5643027-12.5075195-19.0890676-12.4892795-9.5247649.0181333-18.2904898,3.5725865-27.2463658,6.0042664-8.9560182,2.4316799-19.7250855,3.5918932-27.3927125-.64608-11.341085-6.2682664-9.3678938-20.3784526-19.8761255-27.4161056-14.7003911-9.8454396-40.6628999,1.4170666-56.8359851-7.0300797-5.6338492-2.9425066-8.8880543-7.7629864-13.3595213-11.6701862-4.4713062-3.9071999-11.6717333-7.0905597-17.9928003-5.0813865-12.7990051,4.0681598-6.9558239,23.1238391-20.5297788,25.371519-8.8376893,1.4634666-15.2029874-6.8996264-14.615183-13.6731728.5878045-6.7735464,4.7872002-13.4327462,3.1670046-20.1110392-3.513458-14.4812794-32.1686772-21.8463992-29.9643749-36.4724253,1.1916801-7.9069864,11.6612273-15.8591994,5.9667711-22.5732258-5.4423978-6.4166398-18.5875718-3.3100799-27.3830211.4741333-11.8707206,5.1073065-25.1830057,2.4873599-38.5385264.2475733s-25.9616724-6.4388264-38.4521975-10.6331729c-11.4205872-3.8350932-23.7946323-8.395413-28.7707037-17.0062927-5.5267558-9.5639463.0587378-20.4614392,4.9954136-30.2052255,4.9366758-9.743893,8.9733693-21.4098125,1.0942578-29.9964789-5.5627381-6.0622931-15.7256541-8.7868797-25.464748-9.6836263-9.7390938-.8968533-19.6747388-.3437867-29.3363215-1.6283733-6.1033248-.81152-12.0344184-2.3495466-18.2037343-2.8002132-6.1694581-.4507733-12.9125241.3709867-17.3482676,3.6182399-6.6232892,4.8486398-5.8439114,13.0653862-10.6067917,19.0172793-6.441387,8.0497064-23.7688901,9.341653-32.1972639,2.4005332-3.9172269-3.2261332-5.8443381-7.6039464-9.8321072-10.7810129-7.825521-6.2345598-23.2550412-5.4680531-29.9158771,1.4860799-4.0706847,4.2498132-6.0728892,10.6945063-12.9220273,11.6922662-5.1217069.7461333-10.0952183-2.5271466-11.4953961-6.2967464-1.4001778-3.7694932-.0979911-7.7921064,1.5832179-11.4964262,1.6813512-3.7043199,3.7674669-7.3975464,3.9590402-11.3079462.4084622-8.3389863-9.3425783-16.2038394-20.4616832-16.5035727"/>
      <path class="cls-1" d="M1108.4177997,372.4132125c-3.1466668-9.5807996-15.4827386-15.8885327-27.8596281-19.2342393-12.3768895-3.3457065-25.7319835-4.6985598-37.4795397-9.1409063-24.5351835-9.277973-45.4395757-47.6220782-78.5864573-40.7607451-11.9591828,2.4764799-18.1476987,12.0089595-24.4509879,20.0235726-6.303147,8.014613-17.3304898,16.267946-29.2531215,13.6942928-10.983965-2.3710932-15.0489608-12.3171195-16.5478408-20.8154659s-3.1473779-18.3142393-12.7988629-22.9065591c-8.9395205-4.2535465-20.5454233-1.9639466-30.8480016-.13632-10.3027205,1.8276266-22.9289256,2.5085866-29.6992726-3.5956265-9.4216538-8.4948263.3464534-22.9565858-8.5175471-31.7823988-5.4485336-5.4249598-15.622543-6.3687464-23.5925345-9.5930663-11.548445-4.6718932-18.0629343-13.9626661-25.3361791-22.1533858-7.2732448-8.1907197-17.6527653-16.3660794-30.7739038-16.402666-15.5965347-.0434133-26.5082325,11.0523729-35.283344,20.7228792-8.7749693,9.6703996-21.4984544,20.1901859-36.8708285,18.2149326-10.7917006-1.3866666-17.3531031-8.5300263-20.4276633-15.8585594-3.5330846-8.4212263-7.8367293-17.127786-4.8878936-26.132479,3.0273424-9.2442663,11.9837672-17.6531193,10.6929783-27.1226656-1.806649-13.2533328-21.9323745-20.2915192-30.4877527-31.9667188-3.3254402-4.5379198-4.8432358-9.747093-8.4508449-14.1619195-3.6077725-4.4149332-10.5059561-8.066133-17.1205698-6.5823997-4.8119469,1.0792533-7.9613377,4.5082665-10.144285,7.900693-2.1825423,3.3919999-3.8951824,7.0862931-7.4471826,9.7484796-9.8187605,7.3587197-22.9609256-4.2410665-32.9159128-6.6040531-11.297565-2.6817066-23.6545434-.0112-35.3536018-1.4294399-31.8725705-3.8649599-21.4803922-51.244158-14.8932515-66.8943974,3.4523265-8.2022397,8.3831712-16.733226,5.6313133-25.083199-2.321209-7.0427731-10.4541872-12.8089595-19.9602033-14.1512528-9.5061341-1.3422933-19.8780921,1.8108799-25.4551946,7.738453-4.771698,5.0717865-5.9699203,11.5451729-9.7137783,17.0811727-4.8054302,7.1055997-13.9932452,12.4572795-24.362099,14.1903995s-21.7171922-.1861333-30.0908104-5.0889598c-5.8480359-3.4239999-10.1505427-8.1079464-15.6292275-11.8597329-5.4788542-3.7518932-12.9972629-6.6316797-20.1655477-5.1976531-9.5908983,1.9186133-14.7348199,10.6622929-24.4178501,12.2999462-8.9691027,1.5169066-17.7324098-4.0350932-21.1874144-10.4253863s-3.2115202-13.5068795-4.3406224-20.3502926c-1.1291023-6.8435197-4.2631113-14.1633061-12.0305784-17.852906-7.9125337-3.7585065-18.161352-2.6628266-27.2766592-4.2775465-16.0638586-2.8455466-27.9685703-15.3951994-26.2862236-27.7101856"/>
      <path class="cls-1" d="M1073.625549,454.0154494c-7.053227,3.0389332-16.4312186-1.32672-19.2566054-7.0475731-2.8253868-5.7208531-1.1579734-12.0606929.2074924-18.0747726,3.7694678-16.6027727,4.9713879-33.5325854,3.5736278-50.3417581-.4765867-5.7314131-1.5751112-11.9710929-7.0983115-15.9483727-8.8194849-6.3507198-23.8112723-3.6511999-34.5520373-8.0323197-14.8347741-6.0509864-18.2296187-24.0283724-34.8376196-26.3204257-14.1643385-1.9547733-24.774259,9.3059196-30.739486,19.1374926-5.9650847,9.8316796-14.4558941,21.5318392-28.8580281,21.5612792-8.6216538.0177067-15.973263-4.4202665-22.5230234-8.625173-9.4543649-6.0698664-19.4971032-12.8802128-21.7153433-22.0646392-1.4263467-5.9052798-.5967645-13.6771195-7.9443915-16.0539727-7.0778461-2.2894932-14.1851029,3.1639465-17.901512,8.2287997-3.7162669,5.0647465-8.3231293,11.2197329-16.0311475,11.2531196-9.1000894.03936-13.5021675-8.5321597-13.2343473-15.3544527.2678045-6.8222931,2.3406935-14.4490661-3.2038402-19.8612259-7.2224715-7.0500264-23.7444279-6.3297064-29.3235215-14.1741861-4.8886047-6.8737064,1.7305601-16.6694394-5.0436269-22.5752525-6.3129603-5.5036798-18.9418676-2.9257599-26.9259392-7.0307197-6.5699559-3.3780265-7.9431115-10.0364796-10.1562316-15.7754661-2.2129779-5.7389864-7.8604804-12.1002662-15.7732986-11.4130129-12.4649251,1.0827733-10.8929428,15.8200527-19.7117166,22.5151991-9.7223116,7.3811197-21.9002322,2.7470932-33.6228995,4.5190398-17.1209964,2.5878399-24.4953812,19.6617592-32.3453172,29.7560522-2.7854426,3.5818665-6.3624537,7.565653-11.8621873,7.989973-6.1304892.47296-11.0887828-3.8632532-13.1810348-8.210773-3.7940417-7.8835197-10.5184509-17.002986-10.8208153-25.4536524-.4352-12.1660795,13.7060985-23.0855458,9.5771027-35.212692-1.3833956-4.0631465-4.0463647-7.8172797-5.7068092-11.8218662-6.4745248-15.6157861,8.3269693-31.7015455-1.5534934-46.2564249-3.6014935-5.3054931-11.278365-9.5443196-19.101441-8.534933-9.5106849,1.2273066-15.6438764,9.3849596-25.2562502,10.0273063-10.5198939.7031466-17.5179387-7.5334397-23.6891034-13.9634128-7.3875915-7.6964264-14.9960541-9.1340797-26.5418203-8.5473063-12.4912128.63488-25.0262535-1.6390399-35.245774-7.1918931-13.2144362-7.1803731-21.4378678-19.2630393-21.4397414-31.5015455-.0012552-7.4298664,2.7033849-15.3697061-1.8528464-21.9671458-2.5979735-3.7620265-7.5491559-7.5396264-5.5780981-11.5099729,1.6651379-3.3541332,7.4803204-4.5293865,9.7786316-7.6660264,3.4577068-4.7188265-4.1405158-10.6365863-11.2713961-10.0122663-7.1308804.6244266-12.4037695,5.3157331-15.616143,10.1310929s-5.2191292,10.1625596-9.6893161,14.3758928-12.6397162,6.9852797-18.9108632,4.3641598c-6.8879648-2.8789332-8.0955737-10.5986129-15.0692985-13.3589328-7.6741693-3.0376532-17.5675742,1.6962133-25.5943124-.77632-6.8067559-2.0967466-9.8699383-8.685653-16.8736996-10.3783463-9.420204-2.2769066-17.233068,5.3983998-25.7518671,9.1772796-13.1313784,5.8249598-32.5007661.8312533-38.0812819-9.8180263-3.072569-5.8630398-2.2651734-12.3954129-2.6514783-18.6885326-.3862463-6.2930131-2.5608242-13.1967995-9.4704068-16.7788794-10.9937783-5.6993064-27.6801436-.0181333-38.6847309-5.7054931-5.6957158-2.9435732-9.242596-8.678293-16.0931564-9.395413-9.1118938-.9538133-16.7509342,7.9226664-25.618348,6.0837331-7.781721-1.6137599-10.5993961-10.6266663-18.6712187-10.7554129-8.4900982-.1352533-11.2317484,9.5180796-19.2823477,11.5446396-6.8955353,1.7356799-13.8699385-3.1766399-16.0684097-8.376533-2.1986134-5.1999998-1.5709867-10.8842663-3.7075913-16.0986661-2.1364623-5.2145065-8.9518938-10.2065063-15.9069875-8.6099197"/>
      <path class="cls-1" d="M1083.6563406,475.8246219c-19.2994143-.8961066-41.8227221-4.3641598-49.8899937-17.5438927-4.9198936-8.0377597-2.7618239-17.496746.9965512-25.8797857,3.7582224-8.3830397,9.0560005-16.5145594,10.3037161-25.309119,1.2475734-8.7945597-2.7409068-18.8125859-13.1714851-22.9383458-9.9470227-3.9345065-23.315059-1.6913066-32.0493527-7.0039464-6.6406403-4.0393598-8.890596-11.5890129-16.553968-14.4330661-6.2426909-2.3167999-13.984558-.52288-19.4790294,2.6876799-5.4946136,3.2105599-9.4395738,7.6439464-14.1159829,11.5154129-8.0260271,6.6446931-18.8319299,11.8063995-30.7387749,12.6052262-11.9069873.7988266-24.7513751-3.4806399-30.038046-11.5220262-3.3415113-5.0825598-3.9746846-11.6300796-10.1357516-14.9105061-9.3818316-4.9950931-21.45209,1.7293866-32.2843039,4.6380798-20.444161,5.4894931-45.6510601-6.4872531-47.7669002-22.6958925-1.5549156-11.9110395,6.7666492-25.8933323-3.8711469-34.8140787-4.129138-3.4627199-10.2657427-5.1398398-15.1204985-8.0250664-7.6135826-4.5246932-11.5022228-11.6117329-17.1605342-17.5337593-5.6581692-5.9221331-15.2184897-11.1281062-24.4807124-8.9318397-13.3326229,3.1612799-15.2384008,18.620906-28.3932459,22.1762125-8.2150404,2.2203732-17.1828631-1.2600533-25.9074858-.9876266-13.1254051.4098133-23.0111301,9.0387197-29.4599126,17.622506-6.4486403,8.583893-11.7030406,18.2681593-22.4231834,23.9630924-10.7200005,5.6948264-29.275877,4.3322665-33.009495-5.1140265-3.9943113-10.1059196,11.2981339-19.1647993,11.6084628-29.7027189.2665245-9.0474663-10.2306139-15.9083727-19.4221521-21.7713058-9.191396-5.8628264-18.804481-13.9455995-16.0403919-22.7544525,1.6733868-5.3334398,7.005867-7.8916264,11.7067384-11.5847462,5.0220091-3.9454932,9.5948805-9.2095996,12.4720362-14.2197328,2.8381868-4.9426131,4.0160713-10.6045863,1.8875734-15.7438927-3.4439113-8.3156263-14.3486585-13.3791995-24.428659-17.6998393-9.1768894-3.9334399-20.6987388-7.1782397-28.9483393-11.8501329-7.8796804-4.4623998-11.3931384-12.1078395-20.5711886-15.5722661-11.934413-4.5049598-25.9912315.2923733-38.4368144,3.9371732-12.4455829,3.6446932-29.1692104,5.2534398-36.8799308-2.9299199-10.3961605-11.0333862,6.4811843-28.5459189-4.6727113-39.1547718-8.9014049-8.4663463-27.8795392-4.9509331-39.5665087-11.2293329-13.6873251-7.3530664-13.4718585-25.8843723-29.6280462-29.4387189-15.6235117-3.4366932-35.2052371,14.2982395-48.8969711,5.8125864-4.3194313-2.6769066-7.4951115-6.5998931-12.7428273-8.0730664-6.4519401-1.8111999-13.6324274.7250133-20.4872544.2113067-7.8260626-.58656-14.2535118-5.1370665-18.014152-10.3178663-6.8349159-9.415893-5.0848714-29.9256522-25.0571391-29.5795189-3.4889957.06048-6.9838226.9096533-10.4162442.4363733-4.4732854-.6167466-7.8709745-3.3388799-10.4771969-6.1345064-2.6060801-2.7954132-4.8578847-5.8889598-8.4751649-7.956373-7.5861337-4.3357865-19.2257745,1.5073066-26.3867747,4.4573865-15.3834675,6.3373864-34.3340106,19.2972793-38.9202509,32.3870921-1.426489,4.0716798-1.8464712,8.4310397-4.6064358,12.0968529-2.7601068,3.6659199-9.0579916,6.3749331-14.0201252,4.4069332-5.3331914-2.1151999-5.5125336-7.671573-8.0921604-11.7618129-2.4217601-3.8401065-7.1899026-6.5080531-10.6413517-9.8761596-5.2630758-5.1359998-7.0317515-11.8647462-5.4513781-18.1753593,1.7830066-7.1207464,9.6031294-12.2053329,11.0963206-19.3250126,2.3867735-11.3814396-12.6365873-20.0213326-25.2764457-26.5691723-12.6398584-6.5479464-26.1131391-17.563626-19.7016188-28.0335989"/>
      <path class="cls-1" d="M1086.5356297,507.318914c-3.5591113,3.9323732-11.9196451,3.5893332-16.9244453.6740266s-7.6130137-7.5028264-10.464285-11.7473062c-2.8512713-4.2445865-6.5747914-8.614613-12.512854-10.2745596-5.9494403-1.6631466-13.3259385-.3482667-18.3025787-3.3053865-6.3900448-3.7971199-4.2679469-11.7306662-8.9759293-16.7224527-7.7259491-8.1917864-27.3777792-3.3705599-36.2562863-10.8764796-6.4091025-5.4182398-3.2907379-14.0547195,1.9434668-20.1417592,5.2342047-6.0869331,12.4323562-11.7018662,13.7631296-18.8759459,1.0959645-5.9082664-2.4103823-12.1715195-8.8017071-15.7220261-6.3913248-3.5503999-15.4018141-4.2404265-22.6180278-1.7320533-5.5095469,1.9151999-10.3146672,5.5832531-16.3871297,5.5774931-4.6729958-.0043733-8.7887649-2.2330666-13.3246585-3.0753065-14.5265785-2.6970666-27.6864014,9.0093863-42.6332466,8.458133-11.572765-.42688-20.0935832-7.8660264-28.1208903-14.1327995-8.0273218-6.2666664-19.5808721-12.2882129-30.358046-9.0967463-7.0454048,2.0863999-11.1387028,7.4433064-16.0484986,11.7692796-4.9097958,4.3259732-12.994134,8.0374397-19.7220988,5.4275198-7.6461515-2.9658666-7.1233426-11.2568529-4.6957513-17.450986,2.4277335-6.1940264,5.3447114-13.6118395-.2715022-18.5046393-4.7150936-4.1076265-14.1317696-4.8351998-16.700872-9.9012263-2.646329-5.2182398,4.131698-11.5178662.47104-16.3790927-2.6370846-3.5019732-9.0638227-3.9926398-13.3430051-6.4165331-11.7129962-6.6344531-3.8953246-24.6966391-17.5092631-28.8120522-6.4915914-1.9624533-13.8379385,1.1024-18.5444987,4.9876265s-8.1063826,8.709333-13.6593257,11.9050662c-8.6089776,4.9542398-22.4267206,5.8897064-32.7804989,7.9793064-5.0835914,1.0260266-10.2367294,2.0733866-14.7780274,4.0706132-4.5414402,1.9971199-8.4748804,5.0950398-9.7163383,8.932053-1.0218667,3.1581865-.1897245,6.6255997-1.9504357,9.595093-2.9991824,5.0577065-11.588125,6.2409598-18.7249787,7.6513064-9.3213871,1.8420266-18.0835565,5.2098131-25.5751124,9.754133-7.4486048,4.5180798-14.3331563,9.212373-24.6755568,8.5175463-14.2801294-.9594666-27.2618681-14.0562128-23.4432012-24.7173324,2.4152179-6.7431464,11.0933339-13.0220795,9.0847294-20.4174926-1.1520001-4.2415998-5.7686758-7.3691731-9.7961472-10.4697596-4.0275691-3.1004799-7.9291515-7.0547197-7.0621648-11.3342929,1.1714845-5.7834664,10.3025783-8.9313063,12.5636273-14.5300261,2.4531912-6.0741331-3.9018669-11.8905595-8.1080893-17.3977593-7.4544359-9.7599996-8.5870938-22.0979192-2.9866668-32.5321588,3.5266846-6.5706664,9.7648361-11.4106662,11.5419028-18.3672526,1.777209-6.9564797-1.2852623-15.1354661-9.5955916-18.5003726-9.1702049-3.7131732-21.8837345-.7405866-29.871646-5.7604264-6.3761302-4.0070398-7.6147204-12.0205862-15.3062642-14.3969061-9.9196926-3.0648532-19.3970975,6.0693331-30.1166714,6.3956264-10.1805761.3099733-19.5137432-7.4280531-29.2070664-5.0737065-4.6789442,1.1365333-7.8312999,4.3610665-11.9395565,6.3889064-5.6956906,2.8115199-13.4237621,3.1240532-19.4895402.78816s-10.2304716-7.2281597-10.5031116-12.3380262c-.3360711-6.2968531,4.6761247-11.9377062,7.8445515-17.7742927,3.1682846-5.8366931,3.8611656-13.6516261-2.9100349-17.3830393-6.0892189-3.3557332-15.0516371-1.5941333-21.697113-4.2917332-5.2505603-2.1314133-7.9849249-6.6274131-9.3064538-10.9941329s-1.6094135-8.9302397-3.7061691-13.1228795c-2.0967823-4.1925332-6.6497426-8.1343997-12.5964806-8.533013-4.7300541-.31712-9.1783116,1.6405333-12.9649784,3.7899732-11.2296105,6.3745064-19.6883921,9.0505597-28.075237-.5454933-7.5251204-8.6099197-19.4386499-14.8018128-33.5745439-14.8408528-9.3869516-.02592-20.5451388,2.0366933-26.8413169-3.1849599-3.8593424-3.2007465-4.080498-7.9181864-4.8783647-12.1918929s-3.1702757-9.1149863-8.681956-10.3537063c-5.4879292-1.2333866-11.5386317,1.7719466-16.9813342.4309333-7.5201426-1.8527999-7.6964982-9.6349863-11.2838002-14.9269328-3.7224939-5.4917331-12.6806455-8.6673063-20.7015526-7.3386664-8.0207649,1.3286399-14.3621696,7.0387197-14.6544363,13.1954128-.2001067,4.2170665,1.6638579,9.380053-2.7690668,11.9785595-2.8249919,1.6558933-6.8679115,1.264-10.2724272,2.1075199-5.3075914,1.3149866-8.4491382,5.5166931-9.5210993,9.6311463-1.072039,4.1145598-.5854968,8.370133-1.2956445,12.5284262-1.4116657,8.2647464-7.9752215,16.0951461-17.7525732,20.0516259-9.7773845,3.9563732-22.60025,3.6395732-31.5264016-1.3211733-8.9261516-4.9606398-13.0318229-14.5277861-8.8773693-22.2555725,2.615609-4.8650665,8.1850315-9.9059196,5.2390403-14.6635728-3.4608357-5.5891198-15.6189875-5.0365865-19.7001966-10.3850663-2.8632179-3.7525332-.3208533-8.408853,1.8043734-12.4278395,2.125369-4.0189865,3.4498846-9.263573-.8813512-12.1166929-3.4006757-2.2399999-9.9417605-2.9118932-9.7550227-6.3034664.0940089-1.7086933,2.1031823-2.9375999,3.6590935-4.1877332,5.6952892-4.5761065,6.1806936-12.2900262,1.0852978-17.248106-5.0952536-4.9580798-15.1650141-6.5703464-22.5156278-3.6049065-8.7168004,3.5164799-13.9404807,12.4601595-23.8377257,12.3858129-10.679325-.0802133-15.2174941-10.3773863-24.1974057-14.7131728-6.1059208-2.9481599-14.1234148-2.8814932-20.9992908-1.1297066s-12.870401,4.9939198-18.7497259,8.190613c1.3376001-.1312,2.675058-.2625067,4.0126581-.3938133"/>
      <path class="cls-1" d="M1081.6923939,523.4304867c-9.8612627,3.5596799-21.8080722-.7508266-29.3164104-6.7225597-7.5081959-5.9716264-12.5468451-13.5608528-20.5457077-19.1627726-14.0536896-9.8422396-35.1035751-11.9693862-54.1643405-10.070933-6.0949336.6071466-12.2097784,1.5742933-18.3348632,1.17248-6.125227-.4018133-12.4598051-2.4587732-15.4771919-6.4766931-2.7683557-3.6866132-2.2401423-8.3203197-.3167289-12.2979195,1.9234134-3.9775998,5.0985247-7.5361064,7.6027737-11.3274662,7.5896893-11.4909862,7.4854404-27.4154656-6.1693159-35.1332253-12.5651918-7.1018664-30.4096727-4.3409065-45.1928201-.30144-14.7831474,4.0393598-30.6429171,9.114773-45.6779401,5.6372264-7.7235204-1.7863466-14.608783-5.7608531-22.6697967-6.2023464-15.3408008-.84-28.0864725,11.2820262-43.3937254,10.1492263-11.8618863-.87776-20.2894238-9.874133-21.5611579-18.7628793-1.7342579-12.1205329,7.0230759-23.2391458,5.4818136-35.4691186-1.4089956-11.1812262-8.2734938-22.0554658-19.5501696-29.5269322-3.4067738-2.2572799-7.2776362-4.2590932-11.6988987-5.0515198-4.4212624-.7925333-9.4802494-.1938133-12.7379918,2.1839999-1.7429334,1.2721066-2.8647824,2.9480532-4.4943647,4.3020798-7.6091737,6.3225598-21.5068455,4.2257065-31.4692283,5.0167465-12.4505606.9885866-24.1912901,5.7771731-29.7405171,14.5419728-5.3273603,8.4141863-5.5879114,19.8940792-16.5727297,24.2402124-10.9703117,4.3402665-25.3869524-1.8941866-36.5292108,2.1923199-4.6533691,1.7066666-7.9035737,4.9518931-11.8597695,7.4598397-6.129067,3.8853332-13.8982407,3.8834132-20.7981522,1.0344533-4.8027025-1.9831466-7.8977426-5.7002664-12.3898317-8.0575997-6.8920892-3.6169599-15.9192186-3.5532799-24.2235746-4.5587198-9.6430938-1.1675733-19.3250376-4.1893332-25.3735835-9.941653-6.0485692-5.7524264-7.4187382-14.6058661-1.3441658-20.3428259,3.3971437-3.2083199,8.5036328-5.0599465,13.0595797-7.3204264,4.5558047-2.2604799,8.9742227-5.4182398,9.5251916-9.4943996,1.0646756-7.8790397-11.9236273-12.4609062-16.1421042-19.7209592-3.997867-6.8805331.6134278-14.8177061,6.2094227-21.0399992,10.0613926-11.1874129,19.5225842-24.0174924,18.5064064-37.9847452-.4930845-6.7778131-4.6357336-13.8031995-12.578134-17.0578127-4.2439113-1.7389866-9.9578316-2.8419199-11.1637339-6.3544531-1.0137834-2.9530666,1.9214223-5.7473064,3.3058135-8.6145063,2.5299912-5.2397865-.4630756-11.3901862-6.047597-15.0662394-5.5844747-3.6761599-13.2684573-5.1479465-20.6988577-5.1570131-7.5292448-.00928-14.8124452,2.2226132-22.1640789,2.1498666-8.1847226-.0808533-16.264083.46048-24.4649012.9611733-12.4416006.7595733-25.4178146.9056-36.8671308-2.8243199-11.4493161-3.7299199-20.9442144-12.2965329-19.987201-21.6310392.7041423-6.8668797,6.673067-14.0455461,2.3971557-20.1403726-3.5295291-5.0310398-12.237654-6.3954131-17.9394854-10.1413329-6.7090492-4.4076798-8.6769782-11.7107196-14.676623-16.6603727-5.1128891-4.2183465-12.7492273-6.3238398-20.3138855-6.8807464-7.5648004-.5569066-15.1748274.28128-22.6937184,1.1173333-5.9570919.6625066-11.7244878.0363733-15.8522035-3.2525865-4.1275735-3.2888532-6.0664892-7.7389864-8.628196-11.8266662-2.5615646-4.0877865-6.3318759-8.211733-12.1025428-9.5037863-9.5550583-2.1395199-19.8111299,4.3922132-29.3144193,2.1267199-12.9291384-3.0820265-12.8019918-19.0023459-25.4239302-22.7324791-6.7898315-2.0065066-14.6995208.63552-19.5889788,4.6989865-4.889458,4.0633598-7.5529959,9.3111463-10.6983828,14.2501328-5.965227,9.3665063-13.9980807,17.9900793-23.6723212,25.4132257-7.0347704,5.3977598-16.8728186,10.4849063-26.455468,8.178453-7.1772448-1.7275733-12.2380806-7.2908797-19.7201077-7.9780264-8.0773693-.7418666-14.763663,4.4629332-19.5544188,9.3964796-4.790898,4.9335465-10.1851027,10.5658663-18.263752,11.2998396-8.0954315.7355733-15.7176897-4.3127465-17.7823644-10.2294396-2.0646055-5.9166931.3877324-12.2632529,4.4208704-17.5787727,3.1900446-4.2044798,7.5426137-8.8137597,5.5462403-13.4136528-1.9283912-4.4430932-9.0279827-6.5906131-11.4803552-10.8859729-2.8711477-5.0289065,1.5905058-10.5144529,4.5254038-15.5226661,3.2578846-5.5593598,7.8667382-15.2021328,2.5710935-20.7324792-2.6039468-2.7193599-7.3824715-4.0983465-9.3188271-7.1149864-2.4820623-3.8668799.8045512-8.413013.3949511-12.6935462-.3475911-3.6335999-3.6154661-7.0015997-8.071396-8.4513063-4.4559647-1.4497066-9.9002316-.9618133-13.8484629,1.1601066-3.6232535,1.9474133-5.8596981,5.0202665-9.1047827,7.3123197-4.701298,3.3205332-11.3783472,4.8130131-17.8312902,4.6236798-6.4529072-.18944-12.6929076-1.9434666-18.2533703-4.4063998-5.314276-2.3539199-10.1256541-5.3683198-15.7511123-7.2725331-5.6254582-1.9043199-12.5437165-2.5355732-17.7645525-.0666667"/>
      <path class="cls-1" d="M1031.9009602,539.2647261c-6.6148981,1.5061333-13.2177073-2.9400532-15.7340452-7.7690664-2.5163488-4.8290131-2.5949868-10.2291196-5.1980803-15.0321061-4.9998225-9.2250663-18.5026854-14.4814928-31.6818505-15.6907727-13.1791651-1.2093866-26.4435337.8254933-39.6225442,2.0354133-12.0441025,1.1058133-27.6006414-.0875733-31.366686-8.7385597-3.012409-6.9198931,3.8394313-13.7944528,9.196516-19.8645326,5.3572269-6.0699731,9.0008182-15.1850661,1.5372668-19.8383992-11.9881829-7.4743464-32.0979795,8.1372797-44.4879535,1.0410666-6.3520714-3.6380799-7.145387-11.9462395-14.8258288-13.6045861-3.7943321-.8193066-7.7745634.44384-11.3626881,1.6797866-7.9469515,2.7374932-15.8940453,5.4748798-23.8409968,8.2122664-12.0038406,4.1349332-24.355699,8.3377063-37.5404108,8.941973-12.569174.5761066-27.2930147-3.7703465-30.0347749-12.9882662-1.557049-5.2345598,1.1537067-10.5703463,2.6830224-15.8094927s1.4010312-11.5559462-4.1442135-14.9423994c-6.8886759-4.2069332-20.167681-2.7704532-22.4561789-9.2083196-1.0302578-2.8981332,1.1141689-5.8180264,2.4332801-8.649493,4.6402847-9.9604263-2.2062934-22.1469858-14.9515385-26.6133323-12.7451029-4.4662398-29.6012815-.5858133-36.8105263,8.4743463-5.7959825,7.2838397-6.4563203,17.5724793-16.2743475,21.7831458-5.1091914,2.1911466-11.5411917,2.0558933-16.6647475,4.2280532-6.9607826,2.9510399-9.7353961,9.2365863-13.771094,14.4136528-9.5735472,12.2811729-29.2593793,19.1663993-47.9488024,17.7295993-20.8356988-1.6018133-30.785566-13.6664528-47.8690158-20.8483192-16.3286764-6.8645331-36.7049974-5.6214398-53.9313805-11.1148796-7.3172158-2.3334399-14.6404985-6.7937064-14.7632363-12.7563728-.0957156-4.6509865,4.2902758-8.9347197,3.7708802-13.5699195-.7008711-6.2535464-9.4500983-9.836053-15.1806834-14.4088528-10.7522602-8.5801597-10.5522957-23.5651191.4268337-31.9820788,7.5266848-5.7702398,19.2529076-8.8068263,23.4619745-16.236266,2.7043557-4.7735465,1.5598934-10.2705063,3.146216-15.3188261,1.6815176-5.3515731,6.3249311-9.892053,11.2742647-13.9480528,4.9491914-4.0558932,10.3765339-7.862613,14.2057252-12.5509329,12.2436273-14.9907194-4.3086224-28.5163722-23.5993612-32.7282121-12.249174-2.6743466-25.3127124-2.1893333-37.9831486-1.0725333-10.0861161.88896-21.36505,1.9407999-29.4495304-2.6686932-8.8979916-5.0732798-11.4854667-15.8492794-22.2035922-18.2270926-7.8912004-1.7506133-15.8267741,2.1442133-22.5629878,5.6892798-6.7362137,3.5451732-15.1977252,7.0751997-22.7511478,4.6260265-9.0609782-2.9380266-10.1987561-12.4977062-6.8221159-19.4547193,3.376498-6.9571197,9.7772094-13.1582928,11.1071295-20.4943992,2.0541157-11.3294929-10.8391828-22.8952525-26.0700458-23.3859191-5.812224-.1872-12.1548806.92288-17.1036453-1.3708799-8.625636-3.9979732-6.077867-14.7545594-13.591894-19.8610126-6.6875737-4.5447465-17.3181164-2.2236799-25.3643391.8413866-8.0462226,3.0649599-17.2588098,6.7311997-25.574828,4.1021865-10.2134353-3.2290132-11.9913251-13.6173861-19.816961-19.5044259-5.1919647-3.9057065-13.210454-5.5545598-20.3325166-4.1809065-7.1219204,1.3736533-13.085014,5.7191464-15.1204985,11.0188796-3.1472357,8.1942397,2.0654934,18.615466-6.0825603,24.5628791-5.9667914,4.3551998-12.8706851,4.8843731-21.1686411,4.3719465-8.297956-.5124266-17.3486942-1.4660266-24.359539,1.9023999-8.3777426,4.0250665-10.2625047,12.3785595-14.537705,19.1164793-4.1295315,6.5083731-11.6391496,12.1930662-21.0632212,13.6051195-9.4239294,1.4121599-20.413441-2.5653332-22.8687656-9.5337596-1.7258668-4.8977065.6883556-10.4773329-2.4641423-14.9575461-3.384178-4.8095998-11.483165-6.1875198-18.4635743-7.659413-6.9805515-1.4718933-14.8940808-4.6666665-15.1741163-10.1009063-.2294045-4.4501332,4.9733691-8.131733,5.5640181-12.5631995.6759823-5.0710398-4.6683376-9.3175463-9.2979205-13.0479995-4.6294758-3.7304532-9.2097427-8.791893-6.7714848-13.5486928,3.0681602-5.9854931,15.621263-7.711573,16.4532631-14.0936528.5262222-4.0349865-4.1769247-7.2642131-6.2425955-11.0107729-2.0220805-3.6677332-1.4584538-7.823893-.5826493-11.7382396.8758045-3.9142399,2.0318938-7.907413,1.0895645-11.8130129-.9425067-3.9054932-4.6266313-7.7661864-9.8648183-8.3309863-4.865138-.5245866-9.4375827,1.8546133-12.8487829,4.5085865s-6.3848185,5.7790931-10.7353966,7.4943997c-7.9048539,3.1167999-17.5283213.6472533-25.7157709-2.0278399-8.1874495-2.6749866-17.391788-5.5715198-25.7270064-3.1666132"/>
      <path class="cls-1" d="M995.150025,541.8376327c-5.4313247-.9165866-8.9700982-4.8904531-10.7938139-8.8355197-1.8235734-3.9450665-2.5399468-8.2067197-5.1884092-11.8793595-6.6838759-9.2687996-23.3763567-11.6813862-37.1723397-9.6861863s-26.4622947,7.2285864-40.2416376,9.2873596c-8.2433426,1.23168-18.1720187.8251733-23.1850678-4.2348798-4.2793247-4.3196798-3.2873246-10.3679996-1.2174223-15.5206394,2.0698881-5.1526398,5.0572803-10.3644796,4.1363771-15.7013327-1.4732659-8.537813-12.9945465-14.5530661-24.4229559-15.3582927-11.4282672-.80512-22.6416367,2.4294399-33.0311128,6.0897064-10.3896183,3.6602665-20.6971744,7.8628264-32.0359839,9.203093-11.3386672,1.3403733-24.2685168-.83744-31.0188105-7.8004264-4.6152536-4.7607465-5.8824536-11.1934929-11.4993784-15.3044261-8.7886227-6.4324264-24.7860816-4.7505065-32.7702772-11.7480529-5.4455469-4.7723732-5.0386491-11.9048529-2.8313601-17.9641593,2.2074312-6.0593064,5.9227025-11.9266129,6.1424359-18.205866.2195911-6.2792531-4.5969253-13.3501862-12.8883207-14.2362661-6.1339025-.6555733-12.0856184,2.3192532-15.6794319,6.1044264-3.5939557,3.7852799-5.4111292,8.325973-7.7698848,12.6231462-3.8264891,6.9713064-7.2226137,10.8474663-16.8187742,14.2190928-5.8360892,2.0504533-12.0412451,3.5943465-17.3892276,6.2916264-6.9455648,3.5029332-11.9826495,8.7097597-17.9864187,13.0837328-24.5469879,17.8835193-71.4520214,4.8282665-91.9158091-11.1868796-.8125156-.63584-1.605689-1.2856533-2.3783823-1.9487999-6.2617603-5.3750398-11.5828628-11.7445329-20.0109521-15.0599461-7.7602137-3.0526932-17.0231475-3.0209066-25.7039658-2.1233066-8.680676.8974933-17.265352,2.5875199-26.0282324,2.6009599-10.7706566.0165333-21.7551656-2.7007999-29.5095482-8.3069864-7.7543826-5.6062931-11.8237873-14.2424528-9.2236805-22.0814925,2.5218589-7.602773,10.7607929-13.8908795,11.5200006-21.7046392.7755378-7.9820797-6.3776714-14.9844261-12.2847295-21.6495992-5.9070581-6.6651731-10.9579383-15.3082661-5.974187-22.3852791,4.7203558-6.7025064,17.6900276-8.6516263,21.5988633-15.4047994,2.0194134-3.4889599.6735645-7.2542931,3.3649779-10.8639996,3.0119572-4.0396798,7.8809604-7.3689597,12.9163135-9.9670396,9.5741409-4.9400531,21.1585682-10.5493329,21.4415904-19.2625059.3222756-9.9193596-14.9666141-16.2347727-28.1964103-16.2476794-13.229654-.0129067-26.1536724,3.7934932-39.3666865,3.2936532-8.7449867-.3307733-17.2201253-2.5413332-25.9662235-2.8547199-13.6079651-.4875733-26.7269703,3.6190932-40.2624021,4.7789865-13.5354318,1.1598933-29.787166-2.0509866-34.580624-11.6152529-4.5279291-9.034453,3.2499202-18.6270926,9.8736361-26.902079,6.6236877-8.2749864,12.1895828-19.3739726,4.2375113-26.9624523-7.1970137-6.8679464-22.3505366-7.2115197-28.3473081-14.6998394-3.6883913-4.6057598-3.7858135-11.6450129-10.5187561-13.4793595-6.8632181-1.8698666-12.8701162,3.6616532-19.2398232,6.3393064-9.8252805,4.1301332-21.9528545,1.3563733-32.9740817-.38592-11.021085-1.7421866-24.9628457-1.3823999-30.4521971,5.9938131-6.0751648,8.163413,2.5449246,19.7287459-4.8588802,27.249919-4.1365651,4.2021332-11.9780984,5.3941331-18.8866854,4.7343998-6.9087292-.6596266-13.3993251-2.8037332-20.183041-3.9859198-14.7095091-2.5634132-30.7865616-.3472-43.3194689,5.9716264-5.4750206,2.7603199-10.2764432,6.2484264-15.9519297,8.7708797-5.6753781,2.5224532-12.6987384,4.0149332-18.8908099,2.3077332-6.8440181-1.8870399-10.8622228-7.0373331-15.1048541-11.4854396-4.2491735-4.4549332-10.2677339-8.2058664-17.7046765-9.0490663-7.5737604-.8586666-14.631823,2.8467199-22.2259569,2.2645332-8.1294228-.6231466-14.1459922-6.2817064-16.432499-12.1657595-2.5157691-6.4743464-1.5869157-13.6636795,2.5395202-19.6553593,4.8307204-7.0141864,13.7241969-12.3026129,17.2092104-19.7519992,2.9037513-6.2071464,1.4466845-13.4618662-3.7661869-18.7519993-4.5558047-4.6233598-11.7478767-7.8332797-14.6802147-13.1448528-4.1915737-7.5927464,1.8477513-16.594986-1.6409601-24.3850657-2.3927468-5.3425065-9.0201607-9.1535997-16.1737968-10.8789329-7.1537783-1.7253333-14.8387567-1.6568533-22.3404106-1.328"/>
      <path class="cls-1" d="M886.8711217,540.3863261c-9.7103649-.50112-19.6114499-1.0343466-28.6289081-3.7821865-9.0176155-2.7477332-17.1669494-8.1351464-19.4169052-15.2374394-1.6592915-5.2378665.0123886-10.7174396-.2086247-16.0985594s-3.3796422-11.4850129-10.2862227-12.9518928c-11.7606406-2.4975999-22.2319106,10.1801596-33.9938151,7.6857597-4.7399825-1.00512-8.2028093-4.3409065-13.0255651-5.0924798-10.3648716-1.6153599-21.0148989,9.206933-29.7491926,4.7205332-8.1008537-4.1610665-.8162309-15.0380794-7.2735293-20.5853859-4.2378135-3.6405332-11.9499384-2.9354666-18.1367476-1.5843199-6.186667,1.3511466-13.2518407,2.9653332-18.7025076.38784-10.717725-5.0683731-2.4416712-18.5102926-8.986596-26.6471457-5.192818-6.4557864-20.2040899-6.0527998-24.7681435.66496-3.0394313,4.4735998-1.5116801,9.9261863,1.0468978,14.5659728s6.1118581,9.0700797,7.1047115,14.0355195c.9928342,4.9654398-1.5189334,10.8454396-7.7614937,12.6593062-8.3518582,2.4267732-16.6940453-3.5660799-21.1886944-9.3766396-4.4947913-5.8104531-9.0978138-12.8251728-17.8831654-14.1337595-9.9989338-1.4892799-19.121921,5.5100798-29.3147037,5.3762131-9.2580983-.1214933-18.1913609-6.1111464-26.8387569-3.6279465-4.4236802,1.2702933-7.2506315,4.4370132-10.6221517,6.9324797-3.3713779,2.4954666-8.6172449,4.4568532-12.706134,2.6632532-6.1080181-2.6793599-3.3934224-10.5185063-8.6587738-14.0638928-5.7631292-3.8806399-14.7830052.7314133-18.7588276,5.7164798-3.9756802,4.9850665-7.8519471,11.3425062-15.5448897,12.0154662-8.6236449.7543466-14.7384896-6.6738131-15.0633252-13.1806928-.3246933-6.5069864,2.6901335-13.0102395,1.4370134-19.4537593-2.5510401-13.1164795-21.0944011-11.2979196-33.4796817-8.3620263-8.6694404,2.0549333-19.9351477,3.0506665-25.2067568-2.5051732-3.4063646-3.5898665-2.9384535-8.8586663-7.1107103-11.9605329-4.5630325-3.3925332-12.0336818-2.4606932-18.3639932-1.6361599s-14.3176541.7256533-17.3698853-3.5146665c-4.1725158-5.7970131,5.316978-12.9250128,2.4418135-19.1498659-3.0939024-6.6984531-17.6786498-6.9115731-20.8157877-13.5988261-1.9012268-4.0527998,1.7082312-8.5539197,6.4890047-10.9210662,4.7806847-2.3671466,10.5524895-3.2520532,15.9124187-4.7685332,5.3599292-1.5163733,10.775325-4.0392532,12.631894-8.1036797,1.9073423-4.1753598-.51584-8.8207997-4.0699735-12.3384529s-8.2069601-6.3476264-11.7361784-9.8794663c-10.2960361-10.3039996-8.5374582-26.3095457,3.8687291-35.210452,3.1469513-2.2578132,7.2578848-5.0334931,5.8214403-8.117013-1.2265245-2.6327466-5.9254047-3.5362132-7.4356626-6.0845864-1.9639468-3.3138132,2.7539913-6.8228264,7.4249959-7.759893s9.8864361-.6439466,14.0145785-2.5321599c5.907627-2.7020799,7.0934503-9.3911463,3.2968535-13.7299195-3.7964802-4.3387732-11.3349695-6.2805331-18.2044454-5.6572798s-13.0880272,3.4526932-18.2107032,6.9414397c-6.708907,4.5690665-12.2958229,10.5318396-20.8163566,12.8462928-10.2336005,2.7798399-21.3897966-.52256-31.705175-3.1266132-10.3153783-2.6041599-22.8111656-4.2517332-31.1665794.97952-10.3406939,6.4743464-25.4784013,3.8505599-34.3313084-3.7638399-8.8530493-7.614293-8.1476271-20.4207992,1.5128179-27.4615456,3.7705957-2.7481599,8.542436-4.6037332,12.4794025-7.2174931,3.9368828-2.6137599,7.1269274-6.4591998,6.0902696-10.3251196-1.3488356-5.0301865-9.0046582-7.7748264-11.4514495-12.5662929-3.4099202-6.6775464,4.4819913-13.6513061,4.5624891-20.8015992.0597333-5.3039998-4.7375647-10.4458663-11.4020984-12.2209062-6.6645337-1.7751466-14.7113252-.0542933-19.1254765,4.0899198-3.9520713,3.7105065-4.857458,8.7105063-5.2724625,13.4492795-.4151467,4.7387732-.5415823,9.661973-3.3362491,13.9233061-2.794809,4.2614398-9.2241377,7.6377597-15.3133519,6.3353598-6.1030403-1.30528-9.570276-6.6267731-15.7260808-7.784213-7.8496715-1.4760533-14.7911119,4.8171731-15.938703,10.8252796-1.1475912,6.0081064,1.1299556,12.1462395.1719467,18.1730126s-7.3797693,12.5062395-15.3491919,11.4510929c-7.9571915-1.0535466-10.9461339-8.3210663-12.0749517-14.3219195-1.1288178-6.0008531-3.2871824-13.2509862-11.0028806-15.0506661-6.1462759-1.4337066-12.4913784,1.5346133-18.908161,1.9131733-7.8241046.4616533-15.2620097-2.9595732-23.1101502-2.9240532-8.9032203.04032-16.5461346,4.4157865-24.0744922,7.981013-7.5282493,3.5651199-17.064392,6.5179731-25.0813168,3.6131199-7.4753426-2.7085866-12.0376895-10.0321063-20.3390588-10.1161596-7.5611381-.0765867-12.3774584,6.0287998-14.4223296,11.4887462-2.0448712,5.4600531-3.5305246,11.7550929-9.8433427,14.8772261-4.0667384,2.0111999-9.6620455,2.1242666-13.8674147.28032-4.205227-1.8439466-6.8182761-5.5563731-6.4762316-9.2007463.3642311-3.8806399,3.6764447-7.1847464,6.3125338-10.5350396,2.6362313-3.3502932,4.6987381-7.5318397,2.4590224-11.0406396-2.3506491-3.6828799-8.5034673-5.0440531-13.9467388-4.9719465-5.4432715.072-10.8764453,1.1598933-16.2767657.6433066"/>
      <path class="cls-1" d="M811.0193134,551.5361923c-8.5489782.63264-11.7209606-8.6266663-9.0304005-14.7454928,2.6905601-6.1187198,7.9315915-12.6419195,4.3510047-18.4985593-3.614578-5.9124264-14.4445163-7.1997864-22.7300989-5.2786131-8.2855826,1.9210666-15.3521786,6.0814931-23.5033612,8.3023997-8.1513249,2.2209066-18.8542587,1.8050133-23.5766056-3.6504532-6.6274137-7.656213,1.3660267-21.3035725-9.6807827-25.1351457-4.7661514-1.6531199-10.5322672.0674133-14.3863474,2.7422932-3.853938,2.6748799-6.4644456,6.1950931-9.9421872,9.1459197-7.6188448,6.4645331-19.5750602,9.8959996-31.0017438,8.8973863-11.4267028-.9985066-22.0107389-6.3996798-27.4437703-14.0047995-5.3216714-7.4490664-8.3254049-18.2489593-19.5241254-19.1838926-13.2310762-1.10464-20.7998588,13.7992528-34.1125706,13.7526395-6.5173337-.0228267-12.7007295-3.8122665-19.0094232-2.5850666-8.1632715,1.5879466-10.2573516,10.1883729-17.8501923,12.9409062-6.2526356,2.2667732-13.5270182-.23968-20.4209563-.8683733-9.0396449-.8245333-17.9492987,1.6847999-26.9391658,2.7727999-8.9897488,1.088-19.6425966.21824-24.8668457-5.3755731-10.2259205-10.9493329,8.9911471-28.7521056-3.2261934-38.4859719-5.6496115-4.5012265-15.0727123-4.3676798-23.2921368-3.9054932-14.4605874.8130133-28.921317,1.6261333-43.3820467,2.4392532-6.4583114.3630933-13.4311829.63552-18.8929432-1.9747199-8.557796-4.0897065-9.4570671-13.0915195-8.753636-20.6837325s1.6627201-16.1880527-5.1542758-21.8253858c-6.4950048-5.3711998-17.3283564-5.7675731-26.9719045-6.2846931-9.6434929-.5170133-20.7488016-2.2947199-25.0565426-8.7862397-4.9910047-7.5213864,2.7268268-16.6553594,12.4179917-20.8687992,9.6911649-4.2134398,21.2134411-5.5063465,31.0759838-9.4906663,10.7527117-4.3439998,20.9816188-15.4254927,11.723805-24.0630391-6.0916625-5.6835198-16.8833703-2.2582399-22.2596278-8.027093-2.7709157-2.9733332-1.9699201-7.0798931-.0507733-10.4097063,1.9190045-3.3299199,4.8260269-6.3480531,6.1537864-9.836373,2.3606318-6.2013864-1.1154217-13.3981862-8.2239732-17.0268794-7.1084093-3.6286932-17.3102942-3.4142932-24.1366768.5073066-4.6479647,2.6702932-8.2457604,6.9865597-14.0572452,7.5204264-6.1387381.56384-11.1372806-3.3902932-16.7045986-5.4104531-8.0857316-2.9339732-17.5888787-1.7441066-26.5434748-1.2133333-8.9544538.5307733-19.2035565-.08512-24.8961435-5.2964265-4.7984358-4.3927465-4.7739736-10.7300263-3.1847824-16.282346,1.5891912-5.5522131,4.5011913-10.9545596,4.6728536-16.631786.1716622-5.6773331-3.3720891-12.0007462-10.564125-13.7766395-5.5958758-1.3817599-11.8411384.3917867-16.3676453,3.2200532s-7.7792715,6.6037331-11.4310005,10.0712529c-7.8384049,7.4431997-18.5817299,13.8980261-31.1668328,14.8322128-12.5838229.9339733-22.31353-4.3585065-25.8401049-13.2077862-1.5190431-3.8117332-2.4323943-7.8159997-4.9842878-11.3037862-2.5518935-3.4876799-7.2999826-6.4566398-12.5937784-6.2054398-5.4892092.26048-9.6577427,3.7438932-14.777743,5.2508798-7.3518937,2.1640533-15.5497252.0455467-23.0944723-1.7060266-7.5447471-1.7515733-16.4275208-2.9813332-22.7905434.5275733-5.1187203,2.8226132-6.9303817,7.814293-9.4549338,12.1868795-8.367076,14.4911994-41.4458332,32.5735454-61.4674883,18.9642659-4.777387-3.2473599-7.4804628-8.0381864-12.6995921-10.8773329-8.8156451-4.7956265-21.0503127-2.3822932-31.3745091.2170667.9342578.1661867,1.8685157.3323733,2.8027735.4986666"/>
      <path class="cls-1" d="M742.1392388,542.0126727c-4.3938136,3.2367999-12.324694.7867733-15.4282675-3.2030932-3.1034313-3.9897598-3.2253157-8.8489597-4.8028447-13.3140262s-5.7836276-9.1551997-11.9395562-9.2980263c-9.3077338-.2157867-13.3374585,9.3407996-21.9230069,12.0456529-11.2072348,3.5308799-22.0913795-5.9192531-34.1216538-7.2264531-10.0360538-1.09056-22.7413345,3.0170666-28.9870237-2.9748266-5.9777425-5.7348264-.5451378-17.0776527-9.6897427-19.5169059-4.4347736-1.1829333-9.3085871,1.2001066-11.7760006,4.2062932-2.4675557,3.0062932-3.355897,6.5805864-5.2805692,9.8022396-6.697387,11.2107729-27.4137614,16.1291727-41.4927666,9.8511996-4.9612803-2.2122666-9.2428805-5.5902931-14.9094408-6.4135464-12.9951296-1.8881066-23.9071301,10.4884263-36.953033,8.8086397-9.7533161-1.2558933-15.6329252-9.9329063-25.451119-10.8622929-6.3439404-.6005333-12.2224118,2.2408532-18.2165099,3.9105065-5.9942403,1.6696533-14.2660274,1.5526399-17.0517595-2.7640532-2.9621793-4.5901865,2.6025498-9.466453,5.9999544-13.8838395,4.0597335-5.2785065,5.174898-11.5026129,6.2114137-17.5465593.6503823-3.7921065,1.2129885-7.9210664-1.4334579-11.1887996-3.6970669-4.5650132-12.3737606-5.4920531-19.104001-3.7458132-6.7300981,1.7462399-12.1392362,5.4760531-17.8424898,8.6746663-5.7034219,3.1987199-12.4374762,6.0394664-19.5248366,5.5175465-15.6128987-1.14976-23.6101701-17.3637327-39.2758338-17.9896526-5.3106929-.2122667-10.371102,1.5003733-15.528649,2.4730666-5.1576892.9726933-11.318045,1.00736-15.0077163-1.8651733-5.1421869-4.0029865-2.1711646-10.8109863,2.6180268-15.0532261,6.3497959-5.6246398,21.0496011-14.7574394,10.9802672-22.8370125-3.8064637-3.0541866-11.4685161-3.3470932-16.460232-4.6085332-7.306667-1.8463999-14.389903-4.4083198-20.0379744-8.420053-10.0390405-7.1306664-13.5468096-20.5139192-3.5237268-27.6571723,5.7123847-4.0711465,15.4706785-6.4924798,15.6727763-12.4006395.2110578-6.1731198-11.1616006-11.3107196-7.6195559-16.885226,2.8222579-4.4414932,11.431965-3.3361065,17.8581342-4.3251198,7.3590048-1.1325866,13.2529785-6.3057064,13.5968718-11.9340795.3438655-5.6283731-4.8942936-11.1841062-12.0844806-12.8168528-8.0347026-1.8244266-17.7214587.7697066-24.5432901-2.8997332-2.993209-1.6099199-4.8298669-4.1756798-7.6435915-5.9585064-11.9493988-7.5716264-31.2851927,2.8907732-45.5278957-1.9611733-5.9002314-2.0100266-9.7302761-6.2952531-14.5735119-9.524373-4.8432358-3.2292265-12.4610851-5.3768531-17.6076809-2.4234666-6.2171025,3.5675732-3.5952357,10.8754129-5.3273603,16.6009594-2.5814757,8.5334397-17.0998053,13.2642128-27.7536725,9.6973863s-15.8592008-13.7667195-12.4201251-22.1282125c1.4489601-3.5228799,4.2009602-6.8654931,4.0985602-10.5512529-.1291378-4.6422398-5.0843025-8.6940797-10.9602139-10.1564796-5.8757692-1.4622933-12.3959473-.70304-18.1330498,1.0418133-6.5004092,1.9770666-14.2375829,5.1102931-19.8230766,1.9276799-6.208427-3.5374932-2.952249-10.8679463-4.3844269-16.616106-1.2969245-5.2055465-7.3888715-9.5319463-14.3900452-10.2194129-7.0010315-.68736-14.3726941,2.3169066-17.4126942,7.0966397-3.6983469,5.8149331-1.4630401,13.5743995-7.3753604,18.2482126-7.2580615,5.7375998-21.02073,2.4117332-29.6395743,6.9688531-5.3601786,2.8342399-7.3704898,7.9740797-10.8336011,12.1512529-3.4632535,4.1770665-10.8144361,7.722773-16.2834497,5.0081065-4.7101158-2.3379199-5.324658-8.1843197-10.675521-9.5409063-5.5778138-1.4141866-10.5892986,3.7369599-10.3150941,8.1481597s3.4833069,8.4431997,4.2557159,12.8210128c1.0441956,5.9188264-2.8706136,12.1698129-9.6109518,15.3463461-6.7404805,3.1764265-15.9483746,3.1095465-22.6055128-.16416"/>
      <path class="cls-1" d="M453.3198818,535.3106996c-17.4161076,2.5154132-35.9766774-8.7603197-36.3121796-22.0600525-.2062222-8.1743997,4.138098-18.612266-5.1081958-22.9430391-10.9599294-5.1336531-23.1180812,6.5013331-36.0211929,7.0227197-7.7819737.3144533-14.659983-3.5079465-22.1057434-5.2339198-10.716445-2.4842666-22.2877878-.5512533-33.4767234-1.14432-11.1887366-.5930666-23.882924-5.5212798-24.5085595-13.9207461-.7694223-10.3297063,16.9117875-17.1817593,17.1807298-27.5255456.24832-9.5562663-13.7666851-15.1826128-25.4933346-18.9253326-11.7265073-3.7426132-25.3294946-10.5620263-23.1330145-19.9770659,2.2388623-9.5961596,20.5852455-16.0613327,16.4370497-25.293119-2.598969-5.7841064-13.3671829-8.4577063-14.0113074-14.5422928-.7844978-7.4125864,12.7634495-9.7775996,20.6087122-14.3241595,8.8497782-5.1287465,10.599965-15.8760527,3.6560777-22.4515191-6.943829-6.5754664-21.2935127-7.759253-29.9770035-2.4729599-5.5052803,3.3514665-8.3968004,8.4964263-12.7513607,12.6933328-12.3837162,11.9355729-34.4931573,14.7675728-54.4873272,16.730346-8.8823471.872-19.7502588,1.1136-24.7068457-4.4828798-5.7153425-6.4534398-.0917333-17.474346-8.9600005-21.4472525-6.6806048-2.9927466-15.7127119,1.2996266-22.8997701-.9378133-7.6627915-2.3854932-8.405476-10.1586129-8.1049936-16.3769594.300691-6.2184531-1.0521268-14.0781861-8.9683584-15.9406927-8.182756-1.9251199-15.4857252,4.5244798-18.5982587,10.5178663s-5.6564966,13.1733328-13.5071638,15.7620261c-12.7464909,4.2031998-28.2069355-7.4659197-40.43787-2.4749866-8.3151649,3.3930665-8.9260448,12.0487462-8.0824893,19.1201059.84352,7.0713597,1.3437156,15.4857594-6.1504003,19.8232526-7.5454582,4.3671465-18.2539748,1.8115199-27.6884288.7966933s-22.2301884,2.2417066-21.4087127,9.3633063"/>
      <path class="cls-1" d="M397.6201101,540.8677127c-5.1542758,1.25856-10.2425605-2.7334399-11.1232006-6.7447464-.8807823-4.0114132.8356978-8.068373,1.0446223-12.1307729.2088978-4.0623998-1.9099023-8.8166397-7.1032893-9.981333-6.0994848-1.3678933-11.5639473,2.8936532-15.9506497,6.3539198-4.3868447,3.4602665-11.9732628,6.5432531-16.5452808,3.2205865-2.7175824-1.9750399-2.6769068-5.2401065-4.481138-7.7348264-4.5760002-6.3268264-17.0850142-4.7058132-26.1189702-2.2765866-9.0338138,2.4292266-21.7251567,3.7585065-25.879468-2.7299199-1.8292623-2.8569599-1.0719581-6.2837331-2.3900446-9.294933-4.4256713-10.1111463-28.1536014-9.9652263-30.7144549-20.4324259-2.7204268-11.1195729,22.6009612-17.8972793,19.5488721-28.9683189-1.6064001-5.8275198-10.6631117-8.7283197-18.5965521-8.811733-7.9335826-.0834133-15.8664541,1.6577066-23.7255123.8397866s-16.0266273-5.7045331-14.7020807-11.5718396c2.001209-8.8652797,22.8105664-11.8447995,20.4068988-20.6536525-1.3865549-5.0814931-10.3953072-7.494293-11.529245-12.6109862-1.5057067-6.7945597,11.2155028-10.2587729,14.7131741-16.627306,3.9914669-7.2675197-6.7456003-15.2774394-17.2236809-15.1288528-10.4779383.14848-19.4127654,5.5780265-26.7207125,11.2115196-7.307947,5.6335998-14.3210674,11.9654395-24.0567479,14.8746661-9.7355705,2.9091199-23.2109523.6853333-26.6045496-6.7510397-1.8674874-4.0922665-.9495851-9.5967996-5.9552387-11.7446396-4.6108447-1.9784533-10.2343116.7816533-13.9269696,3.6456532-3.6928002,2.8638932-8.0004605,6.2833064-13.2595207,5.7228798-5.9955203-.6388266-8.7596093-6.1880531-8.0527649-10.6986663.7066686-4.5107198,3.5834313-8.7635197,3.729778-13.3039995.23296-7.2216531-7.5215986-14.1051728-17.0542942-15.1385594-9.5327294-1.0333866-19.5688178,3.9214932-22.0720367,10.8971729-1.4280534,3.9794132-.6108445,8.2068264-1.2358036,12.3011195-.6248898,4.0943998-3.4451566,8.555093-8.7723747,9.5651196-4.2471824.80512-8.5370315-.8315733-12.7503651-1.7313066s-9.8174583-.5965866-11.5723739,2.4138666c-1.2672001,2.1739733.1586133,4.6808532-.0958223,7.0458664-.4859734,4.5155198-6.8242492,7.3579731-12.7210673,8.339733-5.8967118.9816533-12.2827745.9541333-17.4821349,3.2600532-5.7541693,2.5519999-8.8368362,7.423253-11.2564631,12.0971729-2.4194846,4.6738132-4.6849426,9.645333-9.6019918,13.0421328-4.9170493,3.3967999-13.506561,4.4265598-17.9969436.7122133"/>
      <path class="cls-1" d="M323.7643908,541.9729926c-5.086578,1.3980799-10.2839472-2.0766933-12.716374-5.7071998-2.4322846-3.6305065-3.7859557-7.9114664-7.9832182-10.4802129-10.6491739-6.5174398-30.0265555,2.9642666-39.2356998-4.6882132-5.8669514-4.8751998-2.3290312-12.8957862-5.9828625-18.8639993-4.0445158-6.6062931-15.0341697-8.4993063-24.3421879-10.5265063-9.3080183-2.0271999-19.8995921-6.8383997-19.0586321-14.0803195.5277557-4.5444265,5.4936181-7.9507197,9.6180627-11.3032529,4.1243024-3.3526399,7.8801071-8.052693,5.4741336-12.2422395-4.6175291-8.0409597-24.0334234-3.6019199-30.2205171-11.0259196-4.5128536-5.4150398,1.7658312-12.0684795,3.5666491-18.3097593,2.3893335-8.2813864-4.2985247-17.2338127-14.4557518-20.9432525-10.157085-3.7095465-22.8293701-2.4863999-32.268375,2.1692799-6.1472714,3.0319999-10.9895117,7.3194664-16.7139564,10.7859196-5.7243025,3.4665599-13.0002496,6.1866664-20.234241,5.1801598-11.383325-1.5837866-16.5110053-10.9685329-24.8038413-15.9899727-10.3076983-6.2414931-21.0651033-11.2890662-34.9100107-8.0793597-12.9746496,3.0078932-22.4634323,12.9583995-22.0657789,23.1393058.1207467,3.0890665,1.0116267,6.3555198-.7489423,9.1495463-2.0609423,3.2707199-7.3127826,4.8497065-12.1316984,4.6916265-7.2677342-.2385067-13.9405169-3.1310932-21.3083397-3.6271999-10.1218141-.6816-19.1132459,4.4580265-26.9491221,9.3113596"/>
      <path class="cls-1" d="M261.6472676,542.7951793c-15.3036808.64128-30.2397171-8.4545063-32.5449972-19.8194126-1.0245689-5.0506665.15616-10.3374929-1.8321068-15.2238928-3.8951824-9.5731196-21.3077344-14.3066661-32.4767305-8.8287997-2.920249,1.4323199-5.5691381,3.4563199-9.0265605,3.8092799-5.8907025.6014933-10.5002672-3.8241065-16.2591297-4.9310931-5.6230403-1.08096-11.3066672,1.1232-16.6587742,2.8089599-5.3519647,1.6857599-12.1112184,2.7461332-16.4956453-.1072-4.900978-3.1894399-3.413618-9.551573,1.237049-12.9452795,4.6506669-3.3938132,11.2927295-4.6349865,17.5617431-5.8910931,6.2690137-1.2561066,12.8871829-2.8519466,16.9462053-6.6488531s3.8822402-10.4633596-1.9084801-12.6593062c-6.7865603-2.5735466-17.4883564,1.7886933-21.4660278-3.0723199-2.3923201-2.9235199.3512889-6.6979197,3.5504357-9.149333,3.1991468-2.4513066,7.1859204-4.8548265,7.6781515-8.2650664.6256356-4.3348265-5.1890106-7.9692797-10.9771383-8.3770663-5.7881603-.40768-11.3780958,1.4715733-16.6531184,3.3045332-5.2750226,1.8330666-10.8697274,3.7074132-16.6566077,3.2892799-7.9910404-.5774933-14.2620452-5.3643731-18.7773165-10.3427196-4.5152713-4.9784531-8.1921426-10.5687463-14.4247474-14.3638395-6.2324625-3.7950932-16.2340986-5.0978131-21.9497256-.86976-4.3221336,3.1972265-4.7136714,8.2993063-4.117618,12.8303995.5959111,4.5310932,1.879609,9.224213-.044835,13.5425062-3.1104002,6.9799464-14.2384012,10.6677329-23.9186151,9.4631463-4.2646758-.53056-9.0063649-1.7565866-12.6181344.0251733-4.5191115,2.2292266-3.8973159,7.5111464-7.3888717,10.6097063-7.662365,6.7999997-25.5246242-2.4744532-33.5219226,4.1050665"/>
      <path class="cls-1" d="M203.9871046,543.6539526c.6683023-8.7655463-7.2425563-17.067306-17.6384009-21.1036792-10.3958761-4.0364798-22.7682145-4.3461332-34.2845173-2.7705599-10.1994672,1.3953066-20.3035033,4.1991465-30.6240016,3.4579199-11.8161073-.84864-22.9795567-6.9551997-26.591148-15.4357327s1.3388801-18.7975459,11.8641784-22.9134925c7.1843559-2.8095999,16.2410675-2.8299732,22.3829345-6.7932797,4.5366047-2.9273599,6.6160359-7.901333,4.8585958-12.1917862s-7.3871648-7.573973-13.3716252-7.5975464c-6.2533358-.0245333-12.5414072,3.1433599-18.4001097,1.5031466-9.2367649-2.5860266-7.8434137-13.9561595-16.2891386-17.7715193-6.3792359-2.8819199-14.9297785.3774933-19.0960365,5.0070398s-5.5789514,10.3243729-8.7827916,15.3665061c-3.2038402,5.0420265-9.4846583,9.8217596-16.8981342,9.2909863-3.2015646-.2292267-6.2714314-1.4417066-9.4711471-1.1984-5.2344892.3979733-8.5622049,4.3932798-13.3235567,6.0721064-5.6610138,1.9961599-12.2732098.4519466-18.3351481-.7058133-6.0620805-1.15776-13.3838232-1.6501333-17.7257258,1.7272533"/>
      <path class="cls-1" d="M110.8251443,538.7561394c-8.3654032-.7303466-16.9861698-1.5213866-24.3137435-4.6348798s-13.1013696-9.181333-11.8985962-15.4329594c.5630232-2.9258666,2.5790579-5.8324264,1.6058312-8.6970663-1.9673601-5.7905064-14.5795201-7.3567997-14.8043385-13.3299195-.1060978-2.8194132,2.9132801-5.1925331,6.2118403-6.5471997s7.0390048-2.0495999,10.242845-3.5265065c5.2519825-2.4210132,8.6720004-7.1917864,7.6204093-11.7475196s-7.0640359-8.339413-13.1785962-7.7513597c-6.0377603.5806933-10.3010139,4.7562665-12.7264718,8.943573-2.4254579,4.1871998-3.8094224,8.8076797-7.5246937,12.4241062-3.7152713,3.6163199-10.9767117,5.8338131-15.9573341,3.2093865-3.5241246-1.8569599-5.0567114-5.6510931-9.1426496-6.6724264-2.7802666-.69504-5.8618316.1946667-8.2019562,1.5177599-2.3401246,1.3231999-4.210347,3.0626132-6.5049605,4.4298665-8.0654228,4.8059731-21.223255,3.6954665-27.6629354-2.3345066"/>
      <path class="cls-1" d="M67.1337643,540.7723527c-5.6840536,1.4263466-12.2496006.7012266-17.1441787-1.8933333s-7.997156-6.9943464-8.1014049-11.4889596c-.1186133-5.1124265,3.3819024-10.0476796,2.7624892-15.1397328-.9244445-7.598293-12.6483564-13.2821328-22.2654236-10.7946663-3.9388806,1.0187733-7.2692987,3.1018665-11.2141168,4.1075198-7.202845,1.8362666-15.0115567-.1752533-22.271575-1.8804266-7.2600183-1.7051733-15.606899-3.0245332-22.1105795-.0642133"/>
      <path class="cls-1" d="M33.3387759,544.2204592c2.4280179-3.5848532.6675911-8.4489597-3.8441246-10.6210129-1.9787379-.95264-4.3100447-1.4027733-6.3950225-2.2183466-2.0848716-.81568-4.047254-2.1938132-4.2119473-3.9530665-.2673778-2.8561066,4.2172095-5.1748265,3.5241606-7.9903997-.4650667-1.8889599-3.0795739-3.0076799-5.5265074-3.5751465-10.6065075-2.4596266-23.1640195,1.2253866-28.7284644,8.430613"/>
    </g>
  </g>
</svg>