<?xml version="1.0" encoding="UTF-8" standalone="no"?>
<svg
   xmlns:dc="http://purl.org/dc/elements/1.1/"
   xmlns:cc="http://creativecommons.org/ns#"
   xmlns:rdf="http://www.w3.org/1999/02/22-rdf-syntax-ns#"
   xmlns:svg="http://www.w3.org/2000/svg"
   xmlns="http://www.w3.org/2000/svg"
   viewBox="0 0 1066.6667 533.33331"
   height="533.33331"
   width="1066.6667"
   xml:space="preserve"
   id="svg2"
   version="1.1"><metadata
     id="metadata8"><rdf:RDF><cc:Work
         rdf:about=""><dc:format>image/svg+xml</dc:format><dc:type
           rdf:resource="http://purl.org/dc/dcmitype/StillImage" /></cc:Work></rdf:RDF></metadata><defs
     id="defs6"><clipPath
       id="clipPath18"
       clipPathUnits="userSpaceOnUse"><path
         id="path16"
         d="M 0,0 H 800 V 400 H 0 Z" /></clipPath></defs><g
     transform="matrix(1.3333333,0,0,-1.3333333,0,533.33333)"
     id="g10"><g
       id="g12"><g
         clip-path="url(#clipPath18)"
         id="g14"><g
           transform="translate(-5.9565,223.8499)"
           id="g20"><path
             id="path22"
             style="fill:none;stroke:#bcbec0;stroke-width:1;stroke-linecap:butt;stroke-linejoin:miter;stroke-miterlimit:10;stroke-dasharray:none;stroke-opacity:1"
             d="m 0,0 v 17.253 c 2.681,3.333 5.994,6.341 7.903,10.069 3.38,6.599 5.895,13.641 8.792,20.488 3.223,7.62 7.45,14.429 15.026,18.529 9.385,5.078 18.955,4.054 28.49,0.679 13.204,-4.675 22.703,-13.803 29.678,-25.674 5.823,-9.911 11.535,-19.894 17.004,-30.004 3.006,-5.558 5.845,-11.285 7.979,-17.217 3.273,-9.096 2.209,-18.406 -0.574,-27.443 -5.746,-18.664 -9.039,-37.799 -11.569,-57.105 -2.105,-16.07 -5.318,-32.043 -3.782,-48.402 0.623,-6.628 1.71,-13.1 5.607,-18.718 2.284,-3.293 5.492,-4.13 9.118,-2.423 1.135,0.535 2.294,1.187 3.183,2.052 6.229,6.058 12.493,12.087 18.548,18.317 7.647,7.866 14.693,16.365 22.743,23.781 12.828,11.818 28.081,18.342 45.846,17.858 7.09,-0.193 14.169,-0.808 21.259,-0.944 9.375,-0.179 14.118,3.641 15.356,12.913 0.653,4.894 0.512,9.971 0.099,14.913 -0.791,9.478 -4.491,18.189 -8.097,26.852 -6.062,14.565 -9.368,29.76 -11.451,45.347 -1.924,14.398 -3.915,28.833 -6.946,43.023 -2.629,12.311 -6.927,24.211 -14.25,34.762 -6.212,8.949 -14.599,13.77 -25.525,13.367 -5.632,-0.209 -11.278,-1.013 -16.836,-2.004 -7.774,-1.384 -15.562,-2.49 -23.442,-1.886 -3.746,0.287 -7.608,0.945 -11.104,2.264 -10.651,4.017 -15.207,14.994 -11.293,26.117 2.127,6.044 5.689,11.188 10.237,15.535 5.491,5.249 11.456,10.001 17.028,15.17 9.395,8.714 15.696,19.38 19.296,31.659 h 9.642 c -0.123,-0.491 -0.261,-0.98 -0.366,-1.476 -3.942,-18.559 -12.686,-34.217 -27.401,-46.498 -3.995,-3.334 -7.249,-7.549 -9.307,-12.52 -2.672,-6.456 0.012,-12.341 6.604,-14.525 4.599,-1.523 9.187,-1.168 13.78,-0.201 6.7,1.412 13.329,3.228 20.076,4.336 18.097,2.97 29.742,-2.787 37.519,-19.404 3.99,-8.526 6.894,-17.632 9.557,-26.691 5.174,-17.601 6.99,-35.827 8.864,-53.995 2.066,-20.026 8.12,-38.435 20.455,-54.619 5.512,-7.23 8.918,-15.483 10.327,-24.543 0.739,-4.758 1.636,-9.507 2.775,-14.183 3.575,-14.678 12.687,-22.558 27.796,-23.826 6.219,-0.521 12.492,-0.572 18.74,-0.563 23.104,0.035 41.532,-9.796 55.96,-27.211 5.127,-6.189 9.091,-13.42 13.064,-20.469 5.722,-10.153 12.918,-18.767 23.011,-24.788 7.332,-4.375 14.639,-8.792 21.962,-13.182 4.276,-2.564 8.487,-5.249 12.86,-7.636 5.747,-3.137 11.386,-2.93 16.518,1.43 1.854,1.576 3.646,3.275 5.209,5.133 11.052,13.147 17.61,28.087 16.903,45.513 -0.572,14.091 -2.026,28.147 -2.572,42.238 -0.472,12.154 -0.188,24.338 -0.29,36.508 -0.078,9.283 0.532,18.657 -0.555,27.825 -1.389,11.717 -4.159,23.272 -6.37,34.89 -0.853,4.483 -1.947,8.925 -2.666,13.428 -0.56,3.508 0.904,5.439 4.329,6.34 1.141,0.3 2.319,0.567 3.491,0.619 9.029,0.404 18.064,1.112 27.091,1.023 10.894,-0.107 21.455,-2.541 30.682,-8.488 8.574,-5.526 16.744,-11.709 24.859,-17.907 8.525,-6.512 16.446,-13.829 25.99,-18.943 9.183,-4.921 18.641,-6.466 28.531,-2.305 2.487,1.047 4.943,2.222 7.271,3.582 6.349,3.709 12.521,7.729 18.954,11.282 5.84,3.225 9.392,2.188 13.741,-2.96 4.252,-5.033 8.575,-10.015 13.045,-14.855 11.297,-12.231 24.257,-22.521 37.753,-32.201 8.192,-5.875 15.975,-12.297 22.007,-20.482 6.067,-8.232 12.034,-16.546 17.763,-25.015 10.936,-16.168 25.783,-26.172 45.213,-28.701 10.205,-1.329 20.513,-1.862 30.775,-2.755 v -11.163 c -8.1,-1.142 -16.231,-2.107 -24.284,-3.515 -3.015,-0.528 -5.959,-1.864 -8.738,-3.234 -3.719,-1.833 -5.38,-5.092 -5.56,-9.258 -0.246,-5.663 1.68,-10.806 3.586,-15.94 4.655,-12.532 10.573,-24.473 17.235,-36.051 h -17.253 c -0.201,0.82 -0.283,1.692 -0.62,2.451 -3.835,8.641 -7.332,17.459 -11.679,25.836 -4.251,8.193 -9.843,15.571 -17.037,21.541 -8.815,7.314 -18.745,10.995 -30.322,8.953 -8.822,-1.555 -16.439,-5.691 -23.116,-11.484 -8.355,-7.249 -16.364,-14.9 -24.771,-22.085 -14.221,-12.152 -30.5,-17.798 -49.32,-14.642 -8.498,1.425 -16.946,3.266 -25.492,4.262 -11.974,1.396 -21.874,-3.648 -26.71,-14.832 h -13.194 c 1.023,3.038 1.739,6.225 3.124,9.088 4.936,10.201 12.708,16.924 24.36,17.76 4.905,0.351 9.962,-0.067 14.829,-0.87 5.905,-0.974 11.697,-2.669 17.512,-4.153 13.845,-3.535 27.457,-3.874 40.503,2.992 9.784,5.149 17.779,12.573 25.245,20.561 7.579,8.108 15.417,15.915 24.596,22.212 5.015,3.44 10.343,6.423 15.373,9.844 6.788,4.618 8.712,9.876 6.552,17.77 -1.001,3.657 -2.245,7.278 -3.732,10.765 -5.693,13.348 -13.385,25.524 -25.178,34.109 -15.496,11.281 -31.529,21.854 -47.646,32.242 -9.144,5.893 -19.348,6.608 -29.787,3.293 -3.3,-1.049 -6.683,-1.842 -10.039,-2.712 -8.489,-2.2 -16.759,-1.457 -24.829,1.894 -7.648,3.176 -14.385,7.839 -20.876,12.88 -10.215,7.933 -20.208,16.165 -30.637,23.804 -8.336,6.106 -17.453,10.546 -28.303,10.328 -12.443,-0.25 -20.02,-6.673 -21.476,-19.053 -0.611,-5.194 -0.775,-10.442 -1.137,-15.665 -0.611,-8.848 -0.908,-17.73 -1.888,-26.536 -2.34,-21.045 -2.548,-41.972 1.605,-62.857 1.614,-8.112 3.091,-16.317 3.702,-24.549 1.021,-13.743 -4.219,-25.958 -10.462,-37.863 -6.119,-11.668 -11.898,-23.515 -17.826,-35.284 h -30.954 c -4.364,9.372 -10.575,17.387 -18.82,23.532 -6.215,4.633 -12.852,8.773 -19.614,12.578 -10.71,6.027 -18.121,14.628 -22.703,25.982 -3.193,7.915 -6.729,15.752 -12.28,22.371 -10.004,11.929 -22.579,19.208 -38.437,18.954 -14.597,-0.234 -29.191,-1.138 -43.764,-2.096 -10.281,-0.676 -14.8,-5.029 -15.933,-15.241 -0.619,-5.585 -0.662,-11.287 -0.383,-16.907 0.464,-9.363 2.484,-18.438 6.916,-26.803 5.647,-10.658 13.639,-18.873 25.674,-21.765 6.182,-1.486 12.679,-1.758 19.058,-2.3 7.294,-0.619 14.487,-1.408 20.833,-5.522 4.725,-3.063 7.074,-7.816 9.128,-12.783 h -57.849 c -6.492,5.843 -12.394,12.214 -17.468,19.341 -8.148,11.444 -12.873,24.275 -15.565,37.958 -1.959,9.952 -3.71,19.957 -6.091,29.809 -2.357,9.756 -7.428,17.873 -16.304,23.242 -18.371,11.111 -39.761,9.958 -56.312,-3.768 -14.329,-11.884 -25.054,-26.742 -32.927,-43.553 -2.963,-6.328 -4.049,-13.175 -3.057,-20.295 1.06,-7.607 3.968,-14.478 7.639,-21.091 4.02,-7.241 8.135,-14.431 12.209,-21.643 H 141.07 c -0.481,0.888 -0.84,1.875 -1.462,2.65 -5.118,6.379 -10.097,12.885 -15.517,18.998 -2.705,3.051 -6.044,5.665 -9.461,7.927 -3.819,2.529 -7.155,1.875 -10.141,-1.55 -1.647,-1.888 -3.335,-3.972 -4.196,-6.271 -2.684,-7.174 -4.982,-14.492 -7.43,-21.754 H 60.386 c -0.927,6.725 -3.41,12.891 -7.01,18.581 -6.517,10.302 -16.267,16.659 -27.313,20.898 -8.489,3.258 -17.361,5.517 -26.063,8.221 v 10.656 c 9.513,-2.692 19.039,-5.342 28.536,-8.088 8.686,-2.512 17.277,-5.38 26.028,-7.632 10.598,-2.726 16.55,0.428 19.882,10.9 2.141,6.73 3.49,13.761 4.64,20.748 2.195,13.341 3.433,26.859 6.079,40.102 5.085,25.445 10.82,50.762 16.397,76.107 2.603,11.825 3.69,23.582 -0.814,35.182 C 95.027,13.583 87.776,27.502 77.597,39.697 71.967,46.443 65.003,51.441 56.458,53.965 44.731,57.43 34.963,53.841 29.028,43.173 25.592,36.997 23.049,30.318 20.199,23.824 15.828,13.864 10.25,4.96 0,0 Z" /></g><g
           transform="translate(454.8795,143.6147)"
           id="g24"><path
             id="path26"
             style="fill:none;stroke:#bcbec0;stroke-width:1;stroke-linecap:butt;stroke-linejoin:miter;stroke-miterlimit:10;stroke-dasharray:none;stroke-opacity:1"
             d="m 0,0 c 0.034,0.003 0.067,0.006 0.101,0.009 -0.226,4.216 -0.55,8.43 -0.659,12.648 -0.259,10.015 -1.407,19.907 -4.126,29.559 -3.069,10.897 -7.534,21.083 -16.602,28.443 -13.554,11.002 -34.22,13.473 -48.173,-4 -7.225,-9.048 -14.988,-17.661 -23.883,-25.152 -12.697,-10.693 -26.001,-20.561 -40.436,-28.798 -7.521,-4.292 -15.587,-6.817 -24.423,-6.629 -3.522,0.075 -7.118,-0.278 -10.576,-0.965 -5.816,-1.154 -7.419,-5.985 -3.743,-10.654 0.615,-0.781 1.43,-1.438 2.246,-2.02 3.711,-2.651 8.07,-3.484 12.434,-3.986 11.439,-1.316 22.014,-5.002 31.98,-10.728 20.102,-11.547 37.512,-25.864 49.466,-46.189 2.935,-4.99 6.465,-9.815 10.522,-13.924 10.554,-10.687 23.622,-16.742 38.456,-18.889 3.947,-0.571 7.784,0.372 11.239,2.354 5.734,3.289 9.418,8.389 11.966,14.347 4.494,10.513 4.982,21.744 5.043,32.876 C 0.925,-34.467 0.313,-17.233 0,0 Z m 351.077,-67.431 c -10.261,0.892 -20.57,1.425 -30.775,2.754 -19.43,2.529 -34.277,12.533 -45.213,28.701 -5.729,8.469 -11.696,16.783 -17.763,25.015 -6.031,8.186 -13.815,14.607 -22.007,20.482 -13.496,9.68 -26.456,19.97 -37.753,32.201 -4.471,4.84 -8.793,9.822 -13.045,14.855 -4.349,5.148 -7.901,6.185 -13.741,2.96 -6.432,-3.552 -12.605,-7.573 -18.954,-11.282 -2.328,-1.36 -4.784,-2.535 -7.271,-3.582 -9.89,-4.161 -19.348,-2.616 -28.531,2.305 C 106.48,52.093 98.559,59.41 90.034,65.921 81.919,72.119 73.749,78.302 65.175,83.828 55.948,89.776 45.387,92.209 34.493,92.316 25.466,92.405 16.431,91.697 7.402,91.294 6.23,91.241 5.052,90.974 3.911,90.674 0.486,89.773 -0.978,87.843 -0.418,84.335 0.301,79.831 1.395,75.389 2.248,70.906 4.459,59.288 7.229,47.734 8.618,36.016 9.705,26.848 9.095,17.474 9.173,8.191 c 0.102,-12.17 -0.182,-24.353 0.29,-36.508 0.546,-14.091 2,-28.147 2.572,-42.237 0.707,-17.427 -5.851,-32.367 -16.903,-45.513 -1.563,-1.859 -3.355,-3.558 -5.209,-5.133 -5.132,-4.36 -10.771,-4.568 -16.518,-1.431 -4.373,2.387 -8.584,5.072 -12.86,7.636 -7.323,4.391 -14.63,8.807 -21.962,13.182 -10.093,6.021 -17.289,14.635 -23.011,24.788 -3.973,7.049 -7.937,14.28 -13.064,20.469 -14.428,17.415 -32.856,27.246 -55.96,27.211 -6.248,-0.009 -12.521,0.042 -18.74,0.564 -15.109,1.267 -24.221,9.148 -27.796,23.825 -1.139,4.676 -2.036,9.425 -2.775,14.183 -1.409,9.061 -4.815,17.313 -10.327,24.543 -12.335,16.184 -18.389,34.593 -20.455,54.619 -1.874,18.168 -3.69,36.394 -8.864,53.995 -2.663,9.059 -5.567,18.165 -9.557,26.691 -7.777,16.617 -19.422,22.374 -37.519,19.404 -6.747,-1.107 -13.376,-2.924 -20.076,-4.336 -4.593,-0.967 -9.181,-1.322 -13.78,0.201 -6.592,2.184 -9.276,8.069 -6.604,14.525 2.058,4.971 5.312,9.186 9.307,12.52 14.715,12.281 23.459,27.94 27.401,46.499 0.105,0.495 0.243,0.984 0.366,1.476 h 10.148 c -1.654,-11.034 -3.453,-22.048 -4.912,-33.107 -0.924,-7.006 2.061,-11.794 8.736,-14.232 5.311,-1.94 10.826,-3.313 16.19,-5.121 5.76,-1.94 10.748,-5.069 13.699,-10.612 1.819,-3.416 3.683,-6.886 4.881,-10.544 7.531,-22.988 12.009,-46.622 14.709,-70.634 1.359,-12.087 2.661,-24.201 4.675,-36.187 1.678,-9.984 5.698,-19.086 13.396,-26.178 7.19,-6.625 14.547,-5.447 18.968,3.266 1.449,2.854 2.722,5.843 3.678,8.894 5.699,18.196 9.588,36.847 12.379,55.653 2.141,14.43 2.89,29.07 4.16,43.625 1.546,17.732 7.826,33.463 19.53,46.954 5.481,6.318 11.039,12.571 16.432,18.962 7.409,8.78 13.689,18.261 17.384,29.261 h 11.164 c -2.395,-12.303 -6.804,-23.854 -14.708,-33.608 -7.059,-8.713 -14.802,-16.89 -22.495,-25.066 -10.576,-11.24 -16.742,-24.466 -18.619,-39.707 -1.405,-11.406 -2.142,-22.916 -4.041,-34.234 -2.643,-15.75 -6.215,-31.342 -9.158,-47.045 -1.898,-10.128 -3.848,-20.28 -3.54,-30.677 0.208,-7.031 1.97,-13.559 7.622,-18.116 7.893,-6.363 17.154,-8.841 27.253,-8.294 9.852,0.534 18.466,4.641 26.774,9.447 16.877,9.764 30.404,22.942 40.31,39.828 3.69,6.29 7.996,12.156 14.283,16.232 7.067,4.581 15.001,6.076 23.203,6.273 8.451,0.204 16.91,0.012 25.365,0.07 5.257,0.035 7.029,2.337 5.895,7.461 -0.165,0.741 -0.336,1.502 -0.656,2.183 -3.273,6.944 -6.145,14.124 -9.964,20.757 -7.927,13.771 -16.45,27.198 -24.555,40.87 -4.963,8.373 -9.488,16.99 -11.697,26.596 -2.493,10.836 0.057,20.138 9.272,26.692 4.556,3.24 9.702,5.893 14.933,7.892 15.723,6.01 30.679,4.814 44.194,-6.058 5.73,-4.609 11.452,-9.226 17.177,-13.84 6.259,-5.044 12.53,-10.066 19.96,-13.363 7.308,-3.244 14.44,-3.541 21.085,1.537 3.976,3.038 6.722,7.034 8.558,11.731 3.369,8.62 3.519,17.605 2.453,26.512 -1.042,8.705 -3.093,17.289 -4.701,25.927 3.045,0 6.089,0 9.134,0 0.698,-3.309 1.445,-6.609 2.085,-9.929 2.497,-12.955 4.978,-25.899 3.495,-39.228 -1.28,-11.497 -5.309,-21.638 -14.03,-29.537 -7.533,-6.825 -18.754,-11.873 -30.862,-2.698 -7.514,5.693 -14.212,12.451 -21.447,18.528 -6.525,5.48 -12.979,11.13 -20.011,15.897 -9.261,6.279 -19.566,8.468 -30.693,5.283 -15.073,-4.313 -21.935,-16.181 -17.633,-31.23 1.271,-4.448 2.891,-8.864 4.927,-13.012 9.801,-19.966 23.193,-37.285 39.808,-52.006 4.109,-3.641 8.952,-6.918 14.029,-8.89 7.189,-2.793 14.854,-4.468 22.416,-6.168 9.825,-2.21 19.311,-5.263 27.693,-10.886 9.54,-6.4 18.713,-13.344 28.187,-19.845 6.952,-4.77 13.854,-9.734 21.279,-13.669 10.903,-5.778 21.932,-3.517 30.596,5.291 5.239,5.325 8.402,11.816 8.973,19.154 0.646,8.312 0.902,16.711 0.511,25.035 -0.742,15.777 -2.041,31.524 -0.295,47.312 1.523,13.777 4.411,27.192 10.233,39.864 6.608,14.382 17.55,24.662 30.926,32.595 13.849,8.213 27.109,17.224 39.002,28.139 h 22.835 c -6.999,-1.805 -13.604,-4.437 -19.748,-8.366 -13.318,-8.517 -26.768,-16.826 -40.178,-25.197 -8.612,-5.375 -16.413,-11.642 -22.199,-20.117 -10.183,-14.915 -13.646,-31.919 -14.699,-49.479 -1.087,-18.113 1.216,-35.958 5.965,-53.47 2.017,-7.436 4.149,-14.859 8.333,-21.436 3.445,-5.414 7.402,-5.927 12.117,-1.596 2.547,2.338 5.186,4.712 7.162,7.509 4.921,6.966 9.589,14.118 14.17,21.316 5.792,9.099 11.952,17.862 20.552,24.588 6.293,4.921 13.184,8.664 21.273,9.45 9.636,0.936 17.376,-3.222 24.238,-9.534 9.582,-8.815 16.875,-19.576 25.154,-29.497 5.553,-6.655 11.448,-12.858 19.26,-16.989 10.038,-5.308 20.966,-6.181 31.97,-6.818 v -6.597 c -5.064,0.179 -10.152,0.099 -15.186,0.59 -10.551,1.028 -20.504,3.873 -28.269,11.622 -3.813,3.806 -7.429,7.859 -10.74,12.107 -7.118,9.131 -13.759,18.646 -22.317,26.56 -8.485,7.847 -18.016,12.385 -29.806,8.738 -7.474,-2.311 -13.558,-6.881 -18.45,-12.903 -10.497,-12.92 -16.7,-27.95 -20.646,-43.928 -1.011,-4.094 -1.272,-8.598 -0.796,-12.791 1.424,-12.549 8.874,-21.987 17.567,-30.312 6.203,-5.94 13.179,-11.092 19.955,-16.41 8.478,-6.654 16.44,-13.784 22.889,-22.499 5.027,-6.793 10.087,-13.566 15.292,-20.222 6.653,-8.508 14.724,-15.291 24.565,-19.961 8.391,-3.983 17.187,-6.633 26.23,-8.494 6.535,-1.346 13.139,-2.362 19.712,-3.525 z" /></g><g
           transform="translate(70.8104,204.0008)"
           id="g28"><path
             id="path30"
             style="fill:none;stroke:#bcbec0;stroke-width:1;stroke-linecap:butt;stroke-linejoin:miter;stroke-miterlimit:10;stroke-dasharray:none;stroke-opacity:1"
             d="m 0,0 c -0.188,2.228 -0.245,5.285 -0.735,8.27 -1.36,8.285 -4.019,16.164 -9.472,22.659 -6.718,8.003 -14.413,8.508 -19.797,-1.262 -4.83,-8.764 -7.298,-18.358 -9.157,-28.075 -2.745,-14.344 2.446,-25.959 13.426,-35 6.344,-5.223 13.025,-3.868 17.572,2.94 C -2.169,-21.495 -0.379,-11.358 0,0 Z m -76.767,-97.371 v 32.477 c 5.863,-1.791 11.805,-3.034 17.861,-1.182 4.729,1.447 6.834,5.243 5.671,10.061 -0.467,1.933 -1.24,3.882 -2.284,5.57 -4.873,7.875 -12.31,11.677 -21.248,12.953 V 1.074 c 10.136,3.372 17.541,10.075 22.676,19.233 2.926,5.219 5.245,10.778 7.829,16.187 2.293,4.8 4.223,9.815 6.936,14.363 5.266,8.825 13.563,11.296 22.913,7.202 1.993,-0.873 3.851,-2.119 5.64,-3.379 6.742,-4.744 11.179,-11.437 15.227,-18.412 9.06,-15.61 12.756,-32.156 9.463,-50.199 -3.403,-18.645 -8.716,-36.66 -16.109,-54.093 -3.613,-8.518 -6.417,-17.279 -7.37,-26.545 -0.588,-5.717 -1.073,-11.447 -1.784,-17.149 -0.9,-7.216 -1.874,-14.423 -4.833,-21.19 -3.302,-7.55 -8.784,-12.395 -17.163,-12.565 -5.597,-0.114 -11.348,0.385 -16.8,1.622 -8.973,2.037 -17.76,4.895 -26.625,7.407 v 21.313 c 3.426,-1.202 6.813,-2.535 10.289,-3.571 4.602,-1.372 9.225,-2.77 13.931,-3.676 4.503,-0.867 9.072,1.474 10.352,4.679 1.388,3.477 -0.152,7.743 -4.386,10.335 -2.986,1.828 -6.323,3.24 -9.675,4.281 -6.775,2.104 -13.667,3.83 -20.511,5.712 z" /></g><g
           transform="translate(152.3665,402.9782)"
           id="g32"><path
             id="path34"
             style="fill:none;stroke:#bcbec0;stroke-width:1;stroke-linecap:butt;stroke-linejoin:miter;stroke-miterlimit:10;stroke-dasharray:none;stroke-opacity:1"
             d="m 0,0 c -3.6,-12.28 -9.901,-22.945 -19.296,-31.66 -5.572,-5.169 -11.537,-9.92 -17.028,-15.169 -4.548,-4.348 -8.11,-9.491 -10.237,-15.536 -3.914,-11.123 0.642,-22.099 11.293,-26.117 3.496,-1.318 7.358,-1.976 11.104,-2.263 7.88,-0.604 15.668,0.501 23.441,1.886 5.559,0.99 11.205,1.795 16.837,2.003 10.926,0.404 19.313,-4.417 25.525,-13.366 7.323,-10.551 11.621,-22.452 14.25,-34.762 3.031,-14.19 5.022,-28.625 6.946,-43.023 2.083,-15.587 5.389,-30.782 11.451,-45.348 3.606,-8.662 7.306,-17.373 8.097,-26.851 0.413,-4.942 0.554,-10.019 -0.099,-14.913 -1.238,-9.272 -5.981,-13.093 -15.356,-12.913 -7.09,0.136 -14.17,0.75 -21.259,0.943 -17.765,0.484 -33.018,-6.039 -45.846,-17.857 -8.05,-7.416 -15.096,-15.915 -22.743,-23.782 -6.055,-6.229 -12.319,-12.258 -18.548,-18.317 -0.889,-0.864 -2.048,-1.516 -3.183,-2.051 -3.626,-1.708 -6.834,-0.871 -9.118,2.422 -3.897,5.619 -4.984,12.09 -5.607,18.719 -1.536,16.358 1.677,32.331 3.782,48.401 2.53,19.307 5.823,38.442 11.569,57.105 2.783,9.038 3.847,18.347 0.574,27.443 -2.134,5.932 -4.973,11.66 -7.979,17.217 -5.469,10.11 -11.181,20.093 -17.004,30.005 -6.975,11.871 -16.474,20.999 -29.678,25.673 -9.535,3.376 -19.105,4.4 -28.49,-0.679 -7.576,-4.1 -11.803,-10.908 -15.026,-18.528 -2.897,-6.848 -5.412,-13.889 -8.792,-20.488 -1.909,-3.728 -5.222,-6.737 -7.903,-10.069 v 20.298 c 0.465,0.898 0.995,1.769 1.385,2.699 3.001,7.172 5.495,14.603 9.055,21.483 7.966,15.393 22.018,22.283 38.432,21.337 9.864,-0.568 19.324,-3.166 28.384,-7.183 6.668,-2.957 11.898,-7.383 14.913,-14.136 3.86,-8.646 7.171,-17.578 11.603,-25.917 5.705,-10.734 12.313,-20.985 18.481,-31.475 4.518,-7.685 8.258,-15.722 7.042,-24.917 -0.68,-5.145 -2.1,-10.234 -3.618,-15.216 -2.018,-6.626 -4.878,-13.013 -6.632,-19.697 -4.303,-16.401 -5.1,-33.217 -4.745,-50.078 0.083,-3.921 0.809,-7.936 1.927,-11.703 2.18,-7.346 7.494,-9.715 14.114,-5.951 5.622,3.198 10.942,7.044 16,11.098 15.553,12.464 32.523,21.857 52.342,25.544 4.399,0.818 8.782,1.826 13.081,3.063 7.554,2.175 11.931,7.185 13.119,15.087 0.995,6.621 -0.301,13.004 -1.696,19.34 -3.257,14.792 -6.096,29.629 -7.743,44.711 -1.238,11.336 -2.786,22.67 -4.929,33.864 -2.511,13.114 -6.975,25.597 -14.646,36.745 -6.873,9.988 -16.585,14.529 -28.406,14.24 -7.668,-0.187 -15.31,-1.381 -22.966,-2.104 -10.628,-1.004 -21.287,-1.604 -31.844,0.374 -12.089,2.265 -17.534,9.04 -17.753,21.383 -0.268,15.098 6.886,26.748 17.433,36.618 5.545,5.19 11.672,9.753 17.402,14.754 8.768,7.653 16.242,16.289 19.961,27.614 z" /></g><g
           transform="translate(531.4284,402.9783)"
           id="g36"><path
             id="path38"
             style="fill:none;stroke:#bcbec0;stroke-width:1;stroke-linecap:butt;stroke-linejoin:miter;stroke-miterlimit:10;stroke-dasharray:none;stroke-opacity:1"
             d="m 0,0 c 1.608,-8.637 3.659,-17.221 4.701,-25.926 1.066,-8.908 0.916,-17.892 -2.453,-26.513 -1.836,-4.696 -4.581,-8.693 -8.558,-11.731 -6.645,-5.077 -13.777,-4.781 -21.085,-1.537 -7.43,3.298 -13.701,8.32 -19.96,13.364 -5.725,4.614 -11.447,9.231 -17.177,13.839 -13.515,10.872 -28.471,12.069 -44.194,6.059 -5.23,-2 -10.377,-4.653 -14.933,-7.893 -9.215,-6.553 -11.765,-15.855 -9.272,-26.692 2.209,-9.606 6.734,-18.223 11.697,-26.596 8.105,-13.671 16.628,-27.098 24.555,-40.87 3.819,-6.633 6.691,-13.812 9.964,-20.757 0.32,-0.68 0.491,-1.442 0.656,-2.183 1.134,-5.123 -0.638,-7.426 -5.895,-7.461 -8.455,-0.057 -16.914,0.134 -25.365,-0.069 -8.202,-0.198 -16.136,-1.693 -23.203,-6.274 -6.287,-4.075 -10.593,-9.941 -14.283,-16.232 -9.906,-16.885 -23.433,-30.063 -40.31,-39.827 -8.308,-4.807 -16.922,-8.914 -26.774,-9.447 -10.099,-0.547 -19.36,1.93 -27.253,8.293 -5.652,4.558 -7.414,11.086 -7.622,18.116 -0.308,10.398 1.642,20.549 3.54,30.677 2.943,15.703 6.515,31.295 9.158,47.045 1.899,11.319 2.636,22.828 4.041,34.234 1.877,15.242 8.043,28.467 18.619,39.707 7.693,8.177 15.436,16.354 22.495,25.066 7.904,9.755 12.313,21.306 14.708,33.608 3.891,0 7.781,0 11.671,0 -0.178,-5.488 -0.324,-10.978 -0.543,-16.465 -0.52,-13.096 -4.73,-24.504 -15.287,-32.937 -5.547,-4.432 -11.257,-8.667 -16.683,-13.24 -4.705,-3.966 -9.452,-7.976 -13.581,-12.512 -8.224,-9.035 -11.449,-20.314 -13.281,-32.107 -1.958,-12.61 -3.797,-25.245 -6.097,-37.795 -1.645,-8.974 -4.347,-17.759 -5.868,-26.749 -1.404,-8.302 -2.156,-16.747 -2.639,-25.161 -0.322,-5.601 0.863,-11.186 3.811,-16.093 5.998,-9.983 15.481,-13.173 26.346,-11.908 17.13,1.995 30.23,11.463 41.306,24.079 6.336,7.216 10.225,15.929 14.212,24.499 5.444,11.7 14.208,19.507 26.126,24.096 3.623,1.395 7.176,3.02 10.624,4.804 5.87,3.036 8.923,7.779 8.387,14.612 -0.487,6.209 -2.546,11.967 -5.473,17.298 -6.955,12.667 -14.3,25.119 -21.408,37.702 -3.787,6.704 -7.476,13.479 -8.803,21.209 -1.069,6.224 -0.278,12.096 4.351,16.743 2.3,2.309 4.971,4.4 7.808,5.994 16.036,9.012 33.352,14.809 51.035,19.485 8.918,2.358 17.101,0.119 24.12,-5.962 6.576,-5.698 13.024,-11.549 19.711,-17.114 5.028,-4.184 10.558,-7.616 17.051,-9.175 7.517,-1.804 13.657,1.006 17.031,7.908 2.937,6.005 3.224,12.452 2.345,18.863 C -8.848,-13.239 -10.398,-6.638 -11.671,0 -7.781,0 -3.89,0 0,0 Z" /></g><g
           transform="translate(122.4128,148.2405)"
           id="g40"><path
             id="path42"
             style="fill:none;stroke:#bcbec0;stroke-width:1;stroke-linecap:butt;stroke-linejoin:miter;stroke-miterlimit:10;stroke-dasharray:none;stroke-opacity:1"
             d="m 0,0 c 0.031,-5.366 0.458,-10.647 3.193,-15.46 1.769,-3.111 4.286,-4.759 7.993,-4.879 4.502,-0.145 8.47,1.47 12.393,3.238 14.793,6.663 29.584,13.33 44.299,20.163 8.337,3.873 13.696,10.228 14.203,19.714 0.323,6.052 0.297,12.149 -0.025,18.202 -0.618,11.635 -1.485,23.259 -2.383,34.877 -1.101,14.228 -3.526,28.186 -9.249,41.383 -3.112,7.177 -6.813,14.036 -12.601,19.446 -7.811,7.3 -17.507,9.265 -27.749,8.812 -6.655,-0.294 -13.33,-0.994 -19.898,-2.096 -5.885,-0.987 -11.863,-2.189 -17.391,-4.345 -7.901,-3.084 -10.503,-8.667 -9.206,-17.044 1.641,-10.596 7.039,-19.438 13.035,-28.016 C 1.161,87.49 5.989,81.142 10.031,74.331 14.566,66.689 16.582,58.26 15.133,49.252 14.095,42.798 11.178,37.074 8.323,31.312 3.434,21.443 -0.118,11.208 0,0 Z m 21.327,254.738 c -3.72,-11.325 -11.193,-19.961 -19.961,-27.614 -5.73,-5.001 -11.857,-9.564 -17.403,-14.754 -10.546,-9.871 -17.701,-21.52 -17.433,-36.618 0.22,-12.343 5.664,-19.119 17.753,-21.383 10.558,-1.978 21.216,-1.378 31.845,-0.374 7.655,0.723 15.298,1.917 22.966,2.104 11.821,0.289 21.533,-4.252 28.405,-14.24 7.672,-11.148 12.136,-23.632 14.646,-36.745 C 84.289,93.92 85.836,82.585 87.074,71.25 88.721,56.168 91.561,41.331 94.818,26.539 96.213,20.203 97.508,13.82 96.514,7.199 95.326,-0.703 90.949,-5.713 83.395,-7.888 79.096,-9.126 74.713,-10.133 70.313,-10.951 50.494,-14.638 33.525,-24.031 17.972,-36.496 12.914,-40.549 7.594,-44.395 1.971,-47.593 c -6.619,-3.765 -11.933,-1.395 -14.114,5.95 -1.118,3.768 -1.844,7.783 -1.926,11.703 -0.355,16.862 0.442,33.678 4.745,50.078 1.754,6.685 4.613,13.072 6.632,19.697 1.517,4.983 2.937,10.071 3.618,15.216 1.216,9.196 -2.524,17.232 -7.043,24.918 -6.167,10.49 -12.776,20.741 -18.48,31.475 -4.432,8.339 -7.743,17.271 -11.603,25.917 -3.015,6.753 -8.245,11.179 -14.913,14.135 -9.061,4.018 -18.52,6.616 -28.384,7.184 -16.415,0.946 -30.467,-5.944 -38.432,-21.337 -3.56,-6.88 -6.054,-14.311 -9.056,-21.483 -0.389,-0.93 -0.919,-1.801 -1.384,-2.7 v 32.984 c 0.871,1.136 1.775,2.249 2.609,3.412 6.24,8.703 14.219,15.231 24.001,19.652 8.315,3.759 17.175,4.793 26.073,5.91 4.498,0.564 9.03,1.341 13.357,2.649 6.272,1.898 10.023,6.954 13.393,12.199 8.396,13.073 18.788,24.197 31.281,33.503 7.157,5.331 13.919,11.237 20.52,17.256 4.189,3.819 7.35,8.588 9.328,14.013 z" /></g><g
           transform="translate(315.6468,187.9349)"
           id="g44"><path
             id="path46"
             style="fill:none;stroke:#bcbec0;stroke-width:1;stroke-linecap:butt;stroke-linejoin:miter;stroke-miterlimit:10;stroke-dasharray:none;stroke-opacity:1"
             d="m 0,0 c 1.352,0 2.707,-0.066 4.053,0.023 0.92,0.061 1.839,0.285 2.735,0.526 14.428,3.888 25.236,12.47 32.018,25.708 3.027,5.91 5.287,12.258 7.435,18.565 3.849,11.3 10.303,20.43 20.548,26.79 3.008,1.867 5.866,4.008 8.631,6.225 5.545,4.447 8.028,10.226 6.41,17.27 -0.845,3.678 -2.072,7.327 -3.601,10.778 -4.466,10.08 -11.125,18.723 -18.469,26.834 -2.312,2.555 -4.962,4.849 -7.671,6.992 -6.137,4.858 -13.201,6.533 -20.787,4.743 -19.957,-4.709 -33.565,-16.128 -37.977,-36.892 -0.913,-4.298 -1.529,-8.658 -2.413,-12.963 -2.039,-9.931 -4.061,-19.867 -6.272,-29.761 -1.898,-8.492 -4.307,-16.877 -6.008,-25.406 -1.423,-7.134 -1.92,-14.393 -0.42,-21.663 C -19.412,6.247 -11.738,-0.107 0,0 Z m 204.11,215.043 c 1.274,-6.638 2.824,-13.238 3.741,-19.926 0.878,-6.41 0.592,-12.858 -2.345,-18.863 -3.375,-6.901 -9.515,-9.712 -17.031,-7.907 -6.494,1.558 -12.023,4.991 -17.052,9.174 -6.687,5.565 -13.134,11.416 -19.711,17.114 -7.018,6.081 -15.202,8.321 -24.119,5.963 -17.683,-4.676 -35,-10.473 -51.035,-19.485 -2.837,-1.595 -5.509,-3.686 -7.808,-5.995 -4.629,-4.646 -5.42,-10.519 -4.352,-16.743 1.327,-7.729 5.016,-14.505 8.803,-21.209 7.109,-12.583 14.454,-25.035 21.409,-37.702 2.926,-5.33 4.985,-11.089 5.472,-17.297 C 100.619,75.333 97.566,70.59 91.696,67.554 88.247,65.771 84.694,64.146 81.072,62.751 69.154,58.161 60.389,50.354 54.945,38.654 50.958,30.084 47.069,21.371 40.734,14.155 29.657,1.54 16.557,-7.928 -0.572,-9.923 c -10.865,-1.266 -20.348,1.924 -26.346,11.907 -2.948,4.907 -4.134,10.492 -3.812,16.094 0.484,8.414 1.235,16.859 2.64,25.161 1.521,8.989 4.223,17.775 5.867,26.748 2.3,12.55 4.14,25.185 6.098,37.796 1.831,11.792 5.057,23.071 13.28,32.106 4.129,4.537 8.877,8.546 13.582,12.512 5.426,4.574 11.136,8.809 16.683,13.24 10.557,8.434 14.766,19.841 15.287,32.937 0.218,5.487 0.364,10.977 0.543,16.465 3.891,0 7.781,0 11.671,0 0.747,-2.494 1.244,-5.099 2.286,-7.463 3.214,-7.287 8.756,-10.993 16.915,-10.841 11.045,0.206 21.343,3.401 31.103,8.103 5.705,2.748 10.802,6.759 16.172,10.201 27.571,0 55.142,0 82.713,0 z" /></g><g
           transform="translate(665.4508,86.0122)"
           id="g48"><path
             id="path50"
             style="fill:none;stroke:#bcbec0;stroke-width:1;stroke-linecap:butt;stroke-linejoin:miter;stroke-miterlimit:10;stroke-dasharray:none;stroke-opacity:1"
             d="m 0,0 c 0.27,7.6 -2.586,13.882 -7.936,19.093 -6.121,5.96 -13.696,9.115 -21.997,10.001 -7.959,0.85 -16.011,0.865 -24.026,1.153 -10.918,0.393 -21.17,2.962 -29.718,10.04 -7.082,5.863 -13.609,12.397 -20.667,18.292 -5.817,4.858 -11.698,9.809 -18.174,13.676 -14.755,8.813 -27.707,4.333 -34.456,-11.436 -6.009,-14.042 -4.546,-27.878 3.149,-40.625 7.197,-11.92 15.462,-23.205 23.467,-34.623 2.89,-4.122 6.743,-7.415 11.678,-8.99 3.775,-1.205 7.612,-2.266 11.484,-3.102 4.789,-1.035 9.745,-1.404 14.449,-2.708 12.533,-3.476 24.936,-7.418 37.461,-10.925 4.94,-1.383 10.027,-2.67 15.113,-3.007 11.124,-0.737 20.278,3.83 27.482,12.15 C -5.003,-22.132 -0.331,-11.923 0,0 Z m -175.126,-88.991 h -14.208 c 4.79,13.316 12.916,24.632 21.341,35.787 2.899,3.839 5.734,7.767 8.166,11.908 4.169,7.096 5.984,14.781 5.006,23.096 -1.056,8.987 -4.603,17.106 -8.413,25.131 -6.789,14.301 -11.101,29.069 -8.814,45.107 1.789,12.542 5.365,24.459 13.356,34.59 4.371,5.543 10.195,7.794 17.273,6.781 7.567,-1.083 14.287,-4.31 20.37,-8.633 10.948,-7.782 21.659,-15.9 32.386,-23.989 C -76.3,51.465 -62.414,47.242 -47.042,48.676 -27.183,50.529 -9.801,44.772 5.519,32.366 17.107,22.983 20.656,10.36 15.421,-2.993 9.482,-18.139 0.967,-31.643 -11.273,-42.54 c -5.992,-5.336 -12.985,-8.707 -21.015,-9.952 -7.927,-1.23 -15.472,0.445 -23.004,2.484 -9.378,2.538 -18.671,5.449 -28.139,7.579 -8.645,1.945 -17.484,1.816 -26.177,-0.16 -10.789,-2.452 -18.628,-8.497 -22.531,-19.121 -3.236,-8.81 -4.424,-18.027 -5.436,-27.281 h -13.701 c -0.679,2.856 -1.044,5.834 -2.104,8.54 -2.166,5.527 -6.635,6.796 -11.573,3.439 -4.47,-3.04 -7.777,-7.14 -10.173,-11.979 z" /></g><g
           transform="translate(452.2669,-2.9783)"
           id="g52"><path
             id="path54"
             style="fill:none;stroke:#bcbec0;stroke-width:1;stroke-linecap:butt;stroke-linejoin:miter;stroke-miterlimit:10;stroke-dasharray:none;stroke-opacity:1"
             d="m 0,0 c 5.928,11.769 11.706,23.616 17.826,35.285 6.243,11.904 11.483,24.119 10.462,37.862 -0.612,8.232 -2.089,16.437 -3.702,24.549 -4.154,20.885 -3.945,41.812 -1.605,62.857 0.979,8.807 1.277,17.689 1.888,26.536 0.361,5.224 0.526,10.471 1.137,15.666 1.456,12.379 9.033,18.802 21.475,19.052 10.851,0.218 19.968,-4.222 28.303,-10.327 10.429,-7.639 20.423,-15.872 30.638,-23.805 6.491,-5.041 13.227,-9.704 20.876,-12.88 8.069,-3.351 16.34,-4.094 24.829,-1.894 3.355,0.87 6.738,1.663 10.039,2.712 10.439,3.315 20.643,2.601 29.787,-3.293 16.117,-10.388 32.15,-20.961 47.646,-32.242 11.793,-8.584 19.485,-20.761 25.177,-34.109 1.487,-3.487 2.732,-7.108 3.733,-10.765 2.16,-7.894 0.235,-13.152 -6.553,-17.769 C 256.927,74.014 251.599,71.03 246.584,67.59 237.405,61.293 229.567,53.486 221.988,45.378 214.522,37.39 206.527,29.967 196.743,24.817 183.696,17.951 170.085,18.29 156.239,21.825 c -5.815,1.484 -11.606,3.179 -17.511,4.153 -4.867,0.804 -9.924,1.221 -14.829,0.87 C 112.246,26.012 104.474,19.289 99.539,9.089 98.153,6.226 97.438,3.038 96.415,0 H 86.266 c 1.733,5.988 2.732,12.319 5.342,17.897 6.845,14.629 18.405,19.834 33.007,19.371 7.007,-0.222 13.994,-2.157 20.915,-3.663 7.263,-1.58 14.366,-3.942 21.661,-5.308 13.622,-2.551 25.735,1.312 36.577,9.686 7.691,5.941 14.015,13.201 20.087,20.698 7.021,8.667 14.173,17.24 20.868,26.155 5.885,7.836 6.17,16.57 2.49,25.513 -3.597,8.743 -9.448,15.74 -16.8,21.557 -9.939,7.863 -21,13.85 -32.29,19.501 -10.539,5.275 -21.512,7.004 -33.208,5.663 -6.934,-0.795 -14.037,-1.441 -20.945,-0.823 -10.828,0.969 -19.922,6.7 -28.587,12.875 -11.359,8.096 -22.521,16.47 -33.939,24.48 -6.116,4.29 -12.8,7.669 -20.255,9.015 -7.178,1.297 -13.062,-0.922 -17.002,-7.267 -1.237,-1.992 -2.458,-4.135 -3.03,-6.376 -3.113,-12.197 -6.447,-24.362 -8.893,-36.699 -3.305,-16.668 -2.439,-33.319 2.232,-49.717 1.877,-6.587 3.858,-13.149 5.541,-19.785 C 42.982,71.157 42.43,59.678 37.054,48.874 32.088,38.894 26.299,29.323 21.31,19.353 18.187,13.111 15.872,6.465 13.194,0 Z" /></g><g
           transform="translate(336.0618,402.9782)"
           id="g56"><path
             id="path58"
             style="fill:none;stroke:#bcbec0;stroke-width:1;stroke-linecap:butt;stroke-linejoin:miter;stroke-miterlimit:10;stroke-dasharray:none;stroke-opacity:1"
             d="m 0,0 c -3.696,-11 -9.975,-20.48 -17.384,-29.26 -5.394,-6.392 -10.951,-12.645 -16.432,-18.962 -11.704,-13.491 -17.984,-29.223 -19.531,-46.955 -1.27,-14.555 -2.018,-29.194 -4.16,-43.624 -2.79,-18.807 -6.679,-37.458 -12.379,-55.653 -0.956,-3.052 -2.229,-6.04 -3.677,-8.895 -4.421,-8.712 -11.778,-9.89 -18.969,-3.265 -7.697,7.091 -11.718,16.193 -13.396,26.177 -2.014,11.986 -3.315,24.1 -4.674,36.187 -2.7,24.012 -7.179,47.647 -14.71,70.635 -1.198,3.657 -3.061,7.127 -4.88,10.544 -2.951,5.543 -7.939,8.671 -13.7,10.612 -5.363,1.807 -10.879,3.18 -16.19,5.12 -6.675,2.439 -9.659,7.227 -8.735,14.232 1.459,11.059 3.257,22.074 4.912,33.107 4.905,0 9.811,0 14.716,0 0.656,-3.138 1.003,-6.382 2.027,-9.395 2.584,-7.603 8.948,-10.869 16.679,-8.729 9.733,2.695 15.985,9.378 20.367,18.124 h 46.178 c -2.508,-4.483 -4.335,-9.576 -7.683,-13.305 -5.041,-5.613 -10.864,-10.636 -16.857,-15.258 -11.497,-8.867 -18.549,-20.164 -19.575,-34.658 -0.558,-7.883 -0.423,-15.895 0.277,-23.772 2.034,-22.894 4.512,-45.748 6.813,-68.619 0.814,-8.088 1.59,-16.218 4.935,-23.736 1.174,-2.638 2.968,-5.136 4.96,-7.244 2.792,-2.953 6.596,-2.933 9.505,-0.124 1.734,1.675 3.453,3.617 4.422,5.778 1.896,4.224 3.54,8.608 4.802,13.063 6.482,22.89 8.274,46.37 8.384,70.03 0.058,12.687 1.695,25.109 5.535,37.228 3.364,10.616 8.309,20.361 15.944,28.548 5.648,6.057 11.765,11.687 17.24,17.89 3.881,4.396 7.039,9.43 10.52,14.179 C -9.811,0 -4.905,0 0,0 Z" /></g><g
           transform="translate(465.4605,-2.9783)"
           id="g60"><path
             id="path62"
             style="fill:none;stroke:#bcbec0;stroke-width:1;stroke-linecap:butt;stroke-linejoin:miter;stroke-miterlimit:10;stroke-dasharray:none;stroke-opacity:1"
             d="m 0,0 c 2.678,6.465 4.993,13.111 8.117,19.353 4.989,9.97 10.777,19.541 15.744,29.521 5.375,10.804 5.927,22.283 2.982,33.899 -1.682,6.636 -3.664,13.198 -5.54,19.785 -4.671,16.398 -5.537,33.049 -2.233,49.717 2.446,12.337 5.781,24.502 8.893,36.699 0.572,2.241 1.794,4.384 3.031,6.376 3.939,6.345 9.824,8.564 17.001,7.267 7.456,-1.346 14.139,-4.725 20.256,-9.015 11.418,-8.01 22.579,-16.384 33.938,-24.48 8.665,-6.175 17.759,-11.906 28.587,-12.875 6.908,-0.618 14.011,0.028 20.945,0.823 11.696,1.341 22.669,-0.388 33.208,-5.663 11.29,-5.651 22.351,-11.638 32.291,-19.501 7.351,-5.817 13.202,-12.814 16.8,-21.557 3.68,-8.943 3.394,-17.677 -2.491,-25.513 -6.695,-8.915 -13.847,-17.488 -20.867,-26.155 -6.073,-7.497 -12.397,-14.757 -20.088,-20.698 -10.841,-8.374 -22.955,-12.237 -36.576,-9.686 -7.296,1.366 -14.399,3.728 -21.661,5.308 -6.921,1.506 -13.909,3.441 -20.915,3.663 C 96.819,37.731 85.26,32.526 78.415,17.897 75.805,12.319 74.805,5.988 73.072,0 H 62.416 c 1.011,9.253 2.199,18.471 5.436,27.281 3.902,10.623 11.742,16.669 22.531,19.121 8.693,1.975 17.532,2.104 26.176,0.16 9.469,-2.13 18.761,-5.042 28.139,-7.58 7.532,-2.038 15.077,-3.713 23.004,-2.484 8.03,1.246 15.023,4.617 21.015,9.952 12.241,10.898 20.756,24.401 26.694,39.548 5.235,13.352 1.686,25.975 -9.901,35.359 -15.32,12.406 -32.702,18.162 -52.562,16.31 -15.372,-1.434 -29.258,2.789 -41.62,12.111 -10.727,8.088 -21.439,16.206 -32.387,23.988 -6.083,4.324 -12.803,7.55 -20.37,8.633 -7.078,1.013 -12.901,-1.238 -17.273,-6.781 C 33.308,165.488 29.731,153.57 27.943,141.028 25.656,124.99 29.968,110.222 36.757,95.922 40.567,87.897 44.113,79.777 45.17,70.79 46.147,62.476 44.333,54.791 40.164,47.695 37.731,43.554 34.896,39.626 31.997,35.787 23.572,24.631 15.446,13.316 10.656,0 Z" /></g><g
           transform="translate(442.6995,322.6648)"
           id="g64"><path
             id="path66"
             style="fill:none;stroke:#bcbec0;stroke-width:1;stroke-linecap:butt;stroke-linejoin:miter;stroke-miterlimit:10;stroke-dasharray:none;stroke-opacity:1"
             d="m 0,0 c 0.28,-7.382 8.031,-17.961 16.718,-20.152 5.418,-1.366 8.875,1.964 7.695,7.449 C 23.078,-6.499 19.786,-1.398 14.752,2.326 12.393,4.07 9.463,5.401 6.598,6.016 2.681,6.857 -0.04,4.04 0,0 Z m 106.997,80.313 c 3.214,0 6.428,0 9.641,0 0.111,-1.176 0.178,-2.359 0.338,-3.529 2.129,-15.48 4.592,-30.922 6.306,-46.447 1.373,-12.434 -0.985,-24.416 -8.443,-34.703 -4.637,-6.396 -10.285,-12.056 -15.442,-18.078 -4.445,-5.19 -9.144,-10.198 -13.177,-15.693 -5.346,-7.282 -4.894,-15.147 0.357,-22.162 3.909,-5.223 8.53,-10.063 13.482,-14.321 6.964,-5.988 14.866,-10.646 24.156,-12.223 7.013,-1.191 12.806,1.113 17.374,6.548 4.118,4.9 6.237,10.787 6.893,16.924 1.373,12.834 2.306,25.723 3.099,38.61 0.747,12.146 2.732,23.993 6.885,35.459 7.679,21.195 20.173,38.444 39.969,50.034 6.324,3.702 12.235,8.148 18.12,12.542 2.656,1.983 4.786,4.671 7.155,7.039 3.721,0 7.442,0 11.163,0 -0.732,-0.817 -1.429,-1.669 -2.203,-2.445 C 223.937,69.112 213.652,62.437 203.155,56.09 186.237,45.86 174.331,31.664 167.633,12.963 c -6.064,-16.933 -8.265,-34.446 -8.875,-52.266 -0.352,-10.297 -0.453,-20.61 -1.111,-30.887 -0.51,-7.966 -2.068,-15.801 -6.629,-22.635 -4.888,-7.324 -11.466,-11.275 -20.589,-10.073 -5.833,0.769 -11.23,2.912 -15.965,6.157 -11.494,7.878 -23,15.79 -33.976,24.362 -12.425,9.702 -25.207,18.08 -41.302,20.358 -4.751,0.673 -9.461,2.664 -13.837,4.782 -16.242,7.86 -28.365,20.211 -37.524,35.594 -3.262,5.48 -5.763,11.291 -6.863,17.626 -2.235,12.881 4.764,21.381 17.776,20.91 4.007,-0.145 8.202,-1.381 11.883,-3.056 9.565,-4.354 17.062,-11.489 23.651,-19.513 5.521,-6.724 10.63,-13.786 16.052,-20.596 8.903,-11.183 17.644,-12.698 29.938,-5.486 6.765,3.97 12.83,8.779 18.112,14.564 9.502,10.408 14.521,22.563 14.767,36.768 0.186,10.713 -0.921,21.261 -2.806,31.767 -1.135,6.321 -2.227,12.649 -3.338,18.974 z" /></g><g
           transform="translate(549.6965,402.9783)"
           id="g68"><path
             id="path70"
             style="fill:none;stroke:#bcbec0;stroke-width:1;stroke-linecap:butt;stroke-linejoin:miter;stroke-miterlimit:10;stroke-dasharray:none;stroke-opacity:1"
             d="M 0,0 C 1.111,-6.325 2.203,-12.654 3.338,-18.975 5.223,-29.48 6.33,-40.028 6.144,-50.741 5.898,-64.946 0.879,-77.101 -8.623,-87.509 c -5.282,-5.786 -11.346,-10.595 -18.112,-14.564 -12.294,-7.213 -21.035,-5.698 -29.938,5.486 -5.422,6.809 -10.531,13.871 -16.052,20.596 -6.589,8.024 -14.086,15.159 -23.651,19.512 -3.681,1.676 -7.876,2.911 -11.883,3.056 -13.012,0.471 -20.011,-8.029 -17.776,-20.909 1.1,-6.336 3.601,-12.146 6.863,-17.626 9.159,-15.384 21.282,-27.735 37.524,-35.594 4.376,-2.118 9.086,-4.11 13.837,-4.782 16.095,-2.278 28.877,-10.656 41.302,-20.359 10.976,-8.571 22.482,-16.483 33.976,-24.362 4.735,-3.245 10.132,-5.387 15.965,-6.156 9.123,-1.203 15.701,2.749 20.589,10.073 4.561,6.834 6.119,14.668 6.629,22.634 0.658,10.278 0.759,20.59 1.111,30.888 0.61,17.819 2.811,35.332 8.875,52.266 6.698,18.7 18.604,32.897 35.522,43.126 10.497,6.347 20.782,13.023 29.515,21.778 0.774,0.776 1.471,1.629 2.203,2.446 4.06,0 8.119,0 12.179,0 -11.893,-10.915 -25.153,-19.926 -39.002,-28.139 -13.376,-7.932 -24.318,-18.212 -30.926,-32.595 -5.822,-12.672 -8.71,-26.086 -10.233,-39.864 -1.746,-15.788 -0.446,-31.535 0.295,-47.312 0.391,-8.323 0.135,-16.723 -0.511,-25.035 -0.571,-7.337 -3.734,-13.829 -8.972,-19.154 -8.665,-8.808 -19.694,-11.069 -30.597,-5.29 -7.425,3.934 -14.327,8.898 -21.279,13.669 -9.474,6.501 -18.647,13.445 -28.187,19.844 -8.382,5.623 -17.868,8.677 -27.693,10.886 -7.562,1.701 -15.227,3.376 -22.416,6.168 -5.077,1.973 -9.92,5.25 -14.029,8.89 -16.615,14.721 -30.007,32.041 -39.808,52.006 -2.036,4.148 -3.656,8.565 -4.927,13.012 -4.302,15.05 2.56,26.917 17.633,31.231 11.127,3.184 21.432,0.995 30.693,-5.283 7.032,-4.768 13.486,-10.418 20.011,-15.897 7.235,-6.077 13.933,-12.835 21.447,-18.529 12.108,-9.175 23.329,-4.127 30.863,2.698 8.72,7.899 12.749,18.041 14.029,29.537 1.483,13.33 -0.998,26.274 -3.495,39.229 -0.64,3.32 -1.387,6.619 -2.085,9.928 3.045,0 6.089,0 9.134,0 z" /></g><g
           transform="translate(321.3459,402.9783)"
           id="g72"><path
             id="path74"
             style="fill:none;stroke:#bcbec0;stroke-width:1;stroke-linecap:butt;stroke-linejoin:miter;stroke-miterlimit:10;stroke-dasharray:none;stroke-opacity:1"
             d="m 0,0 c -3.481,-4.749 -6.639,-9.783 -10.52,-14.179 -5.475,-6.203 -11.592,-11.833 -17.24,-17.89 -7.635,-8.187 -12.58,-17.932 -15.944,-28.548 -3.841,-12.119 -5.477,-24.541 -5.535,-37.228 -0.11,-23.66 -1.902,-47.14 -8.384,-70.03 -1.262,-4.455 -2.906,-8.839 -4.802,-13.063 -0.97,-2.161 -2.688,-4.103 -4.422,-5.778 -2.909,-2.809 -6.713,-2.829 -9.505,0.124 -1.992,2.108 -3.786,4.606 -4.96,7.244 -3.345,7.518 -4.121,15.648 -4.935,23.736 -2.301,22.871 -4.779,45.725 -6.813,68.619 -0.7,7.877 -0.835,15.889 -0.277,23.772 1.026,14.494 8.078,25.791 19.575,34.658 5.993,4.622 11.816,9.645 16.857,15.258 3.348,3.729 5.175,8.822 7.683,13.305 C -32.815,0 -16.407,0 0,0 Z" /></g><g
           transform="translate(581.8098,285.3582)"
           id="g76"><path
             id="path78"
             style="fill:none;stroke:#bcbec0;stroke-width:1;stroke-linecap:butt;stroke-linejoin:miter;stroke-miterlimit:10;stroke-dasharray:none;stroke-opacity:1"
             d="m 0,0 c -0.56,3.131 -1.159,8.7 -2.62,14.031 -1.485,5.419 -5.235,6.74 -10.209,4.361 -0.684,-0.328 -1.364,-0.68 -2,-1.091 -6.951,-4.494 -13.042,-9.942 -17.751,-16.768 -3.447,-4.996 -5.639,-10.434 -3.832,-16.688 1.506,-5.212 4.903,-8.959 9.367,-11.858 9.453,-6.138 19.367,-3.155 23.669,7.224 C -0.946,-14.928 -0.338,-8.707 0,0 Z M 84.599,117.62 C 82.23,115.252 80.1,112.564 77.444,110.581 71.56,106.187 65.648,101.741 59.325,98.039 39.529,86.449 27.035,69.2 19.356,48.004 15.202,36.538 13.218,24.692 12.471,12.545 11.678,-0.341 10.745,-13.23 9.372,-26.064 8.715,-32.202 6.597,-38.089 2.478,-42.989 c -4.567,-5.434 -10.36,-7.738 -17.374,-6.547 -9.29,1.577 -17.191,6.235 -24.155,12.223 -4.952,4.258 -9.573,9.098 -13.483,14.321 -5.251,7.015 -5.702,14.879 -0.357,22.162 4.034,5.494 8.733,10.503 13.177,15.692 5.158,6.022 10.805,11.683 15.442,18.079 7.458,10.287 9.817,22.269 8.444,34.703 -1.714,15.525 -4.178,30.967 -6.306,46.446 -0.161,1.17 -0.227,2.353 -0.338,3.53 4.229,0 8.457,0 12.686,0 1.252,-13.063 3.368,-25.982 7.059,-38.582 1.199,-4.093 2.874,-8.132 4.934,-11.863 1.772,-3.21 4.778,-3.596 7.834,-1.521 1.865,1.266 3.614,2.794 5.134,4.461 4.208,4.616 8.218,9.412 12.398,14.054 8.251,9.164 18.634,15.507 28.93,22.026 5.388,3.411 10.289,7.592 15.41,11.425 4.229,0 8.457,0 12.686,0 z" /></g><g
           transform="translate(733.2232,210.8472)"
           id="g80"><path
             id="path82"
             style="fill:none;stroke:#bcbec0;stroke-width:1;stroke-linecap:butt;stroke-linejoin:miter;stroke-miterlimit:10;stroke-dasharray:none;stroke-opacity:1"
             d="m 0,0 c -0.488,10.245 -3.051,19.697 -9.788,27.527 -9.558,11.11 -21.522,8.883 -27.119,-3.351 -2.432,-5.315 -3.282,-10.907 -2.539,-16.802 1.646,-13.06 12.076,-23.628 25.101,-25.161 6.388,-0.752 11.361,2.546 12.897,8.825 0.717,2.93 0.98,5.971 1.448,8.962 z m 72.733,-92.546 v -12.686 c -5.227,1.395 -10.56,2.484 -15.657,4.254 -8.684,3.015 -17.51,5.862 -25.751,9.861 -12.27,5.956 -20.434,16.443 -27.253,27.916 -7.159,12.046 -15.983,22.372 -28.223,29.558 -3.193,1.874 -6.113,4.236 -9.06,6.502 -7.239,5.568 -13.327,12.227 -16.064,21.05 -5.355,17.265 -2.055,33.123 9.395,47.061 5.998,7.302 15.979,9.01 24.476,4.951 7.206,-3.443 12.575,-8.968 16.586,-15.602 4.977,-8.229 9.329,-16.838 13.885,-25.318 3.192,-5.942 7.022,-11.43 13.664,-13.622 4.51,-1.488 9.371,-2.482 14.103,-2.603 9.957,-0.256 19.932,0.208 29.899,0.377 v -11.164 c -7.019,-1.028 -14.068,-1.889 -21.05,-3.127 -9.081,-1.609 -18.058,-3.686 -26.463,-7.688 -5.619,-2.675 -8.382,-7.054 -8.323,-13.313 0.055,-5.898 1.642,-11.373 4.464,-16.467 5.302,-9.571 13.447,-16.083 23.417,-20.075 9.166,-3.67 18.625,-6.606 27.955,-9.865 z" /></g><g
           transform="translate(-5.9565,67.5567)"
           id="g84"><path
             id="path86"
             style="fill:none;stroke:#bcbec0;stroke-width:1;stroke-linecap:butt;stroke-linejoin:miter;stroke-miterlimit:10;stroke-dasharray:none;stroke-opacity:1"
             d="m 0,0 c 8.865,-2.512 17.652,-5.37 26.625,-7.407 5.452,-1.237 11.203,-1.736 16.8,-1.622 8.379,0.17 13.861,5.015 17.163,12.565 2.959,6.767 3.933,13.974 4.833,21.19 0.711,5.702 1.196,11.432 1.784,17.15 0.953,9.265 3.757,18.026 7.37,26.545 7.393,17.432 12.706,35.447 16.109,54.092 3.293,18.043 -0.403,34.589 -9.463,50.199 -4.048,6.975 -8.485,13.668 -15.227,18.412 -1.789,1.26 -3.647,2.506 -5.64,3.379 -9.35,4.094 -17.647,1.623 -22.913,-7.202 -2.713,-4.548 -4.643,-9.563 -6.936,-14.363 C 27.921,167.529 25.602,161.97 22.676,156.751 17.541,147.593 10.136,140.89 0,137.518 v 18.775 c 10.25,4.96 15.828,13.864 20.199,23.824 2.85,6.494 5.393,13.173 8.829,19.35 5.935,10.667 15.703,14.257 27.43,10.792 8.545,-2.525 15.509,-7.523 21.139,-14.268 10.179,-12.196 17.43,-26.115 23.151,-40.851 4.504,-11.6 3.417,-23.356 0.814,-35.182 C 95.985,94.613 90.25,69.296 85.165,43.851 82.519,30.609 81.281,17.09 79.086,3.75 c -1.15,-6.988 -2.499,-14.018 -4.64,-20.749 -3.332,-10.472 -9.284,-13.626 -19.882,-10.899 -8.751,2.251 -17.342,5.119 -26.028,7.631 -9.497,2.746 -19.023,5.396 -28.536,8.088 z" /></g><g
           transform="translate(330.9874,-2.9783)"
           id="g88"><path
             id="path90"
             style="fill:none;stroke:#bcbec0;stroke-width:1;stroke-linecap:butt;stroke-linejoin:miter;stroke-miterlimit:10;stroke-dasharray:none;stroke-opacity:1"
             d="m 0,0 c -2.054,4.967 -4.403,9.72 -9.128,12.783 -6.346,4.114 -13.539,4.903 -20.833,5.522 -6.379,0.542 -12.876,0.814 -19.058,2.3 -12.035,2.892 -20.027,11.107 -25.674,21.765 -4.432,8.365 -6.452,17.44 -6.916,26.803 -0.279,5.621 -0.236,11.322 0.383,16.908 1.134,10.211 5.652,14.565 15.933,15.24 14.573,0.958 29.167,1.862 43.764,2.096 15.858,0.254 28.433,-7.025 38.438,-18.954 5.55,-6.619 9.086,-14.455 12.279,-22.371 C 33.77,50.738 41.181,42.137 51.891,36.11 58.653,32.305 65.29,28.165 71.505,23.533 79.75,17.388 85.961,9.372 90.325,0 H 75.102 c -4.443,9.279 -11.4,16.281 -20.599,20.544 -7.706,3.572 -15.837,6.313 -23.942,8.918 -9.549,3.07 -11.495,5.015 -12.717,14.925 -0.042,0.336 -0.05,0.677 -0.11,1.009 -1.044,5.818 -1.635,11.764 -3.229,17.427 -4.277,15.194 -13.681,25.627 -29.866,27.619 -14.704,1.809 -28.771,-1.587 -41.83,-8.578 -4.857,-2.6 -7.387,-7.223 -8.111,-12.557 -1.692,-12.479 5.053,-23.791 16.684,-28.661 8.555,-3.582 17.677,-4.33 26.703,-5.648 9.277,-1.355 18.543,-2.809 27.779,-4.416 5.213,-0.907 8.103,-4.246 8.616,-9.546 0.131,-1.343 0.219,-2.696 0.225,-4.045 C 14.729,11.327 14.716,5.664 14.716,0 Z" /></g><g
           transform="translate(345.7033,-2.9783)"
           id="g92"><path
             id="path94"
             style="fill:none;stroke:#bcbec0;stroke-width:1;stroke-linecap:butt;stroke-linejoin:miter;stroke-miterlimit:10;stroke-dasharray:none;stroke-opacity:1"
             d="m 0,0 c 0,5.664 0.014,11.327 -0.011,16.991 -0.006,1.349 -0.094,2.702 -0.224,4.045 -0.514,5.3 -3.404,8.639 -8.617,9.546 -9.236,1.607 -18.502,3.061 -27.779,4.416 -9.026,1.318 -18.148,2.066 -26.703,5.648 -11.631,4.87 -18.376,16.182 -16.683,28.661 0.723,5.334 3.254,9.957 8.111,12.557 13.058,6.991 27.126,10.387 41.829,8.578 C -13.892,88.45 -4.488,78.017 -0.211,62.823 1.383,57.16 1.975,51.214 3.018,45.396 3.078,45.064 3.086,44.723 3.128,44.387 4.35,34.477 6.296,32.532 15.845,29.462 23.95,26.857 32.081,24.116 39.787,20.544 48.986,16.281 55.944,9.279 60.386,0 H 44.148 C 40.767,4.217 36.23,6.519 31.043,7.423 24.327,8.593 18.954,5.771 16.238,0 Z" /></g><g
           transform="translate(805.9565,223.3425)"
           id="g96"><path
             id="path98"
             style="fill:none;stroke:#bcbec0;stroke-width:1;stroke-linecap:butt;stroke-linejoin:miter;stroke-miterlimit:10;stroke-dasharray:none;stroke-opacity:1"
             d="m 0,0 c -11.004,0.637 -21.932,1.511 -31.97,6.818 -7.812,4.131 -13.707,10.334 -19.26,16.989 -8.279,9.922 -15.572,20.682 -25.154,29.497 -6.862,6.313 -14.602,10.47 -24.238,9.534 -8.089,-0.785 -14.98,-4.528 -21.273,-9.45 -8.6,-6.726 -14.76,-15.488 -20.552,-24.588 -4.581,-7.198 -9.249,-14.35 -14.17,-21.316 -1.976,-2.797 -4.615,-5.171 -7.162,-7.509 -4.715,-4.331 -8.672,-3.818 -12.117,1.597 -4.184,6.576 -6.316,13.999 -8.333,21.435 -4.749,17.512 -7.052,35.357 -5.965,53.471 1.053,17.56 4.516,34.563 14.699,49.478 5.786,8.475 13.587,14.743 22.199,20.118 13.41,8.37 26.86,16.679 40.178,25.196 6.144,3.929 12.749,6.561 19.748,8.366 h 9.642 c 12.577,-2.614 22.723,-9.699 32.433,-17.605 5.438,-4.428 10.791,-8.98 16.43,-13.142 10.333,-7.628 22.037,-11.652 34.865,-12.386 v -10.657 c -17.631,1.627 -33.134,8.243 -46.794,19.509 -6.382,5.263 -12.961,10.34 -19.812,14.968 -7.627,5.151 -16.09,8.179 -25.552,7.655 -6.56,-0.363 -12.695,-2.301 -18.365,-5.366 -14.128,-7.636 -28.289,-15.244 -42.078,-23.465 -12.551,-7.482 -21.188,-18.455 -25.748,-32.49 -2.469,-7.603 -3.945,-15.376 -4.513,-23.346 -1.025,-14.377 0.487,-28.407 6.202,-41.727 1.431,-3.335 3.687,-6.487 6.175,-9.154 3.205,-3.438 7.479,-4.034 11.613,-1.647 2.896,1.672 5.678,3.711 8.081,6.032 5.042,4.87 9.659,10.181 14.709,15.043 7.774,7.487 16.24,14.081 26.406,18.09 10.35,4.082 20.474,3.926 29.598,-2.994 4.062,-3.08 7.763,-6.802 11.03,-10.73 7.186,-8.642 13.791,-17.769 21.013,-26.38 6.506,-7.759 13.978,-14.467 23.7,-18.17 C -16.487,8.684 -8.277,7.745 0,7.104 Z" /></g><g
           transform="translate(805.9565,248.7148)"
           id="g100"><path
             id="path102"
             style="fill:none;stroke:#bcbec0;stroke-width:1;stroke-linecap:butt;stroke-linejoin:miter;stroke-miterlimit:10;stroke-dasharray:none;stroke-opacity:1"
             d="m 0,0 v -6.089 c -1.34,0.185 -2.676,0.402 -4.021,0.55 -15.72,1.735 -28.568,8.66 -38.669,20.904 -6.716,8.141 -12.034,17.137 -17.223,26.257 -3.885,6.829 -7.661,13.747 -13.694,19.069 -5.5,4.85 -11.937,7.004 -19.139,6.577 -6.488,-0.385 -12.672,-2.262 -18.365,-5.395 -6.216,-3.422 -12.251,-7.171 -18.417,-10.686 -6.087,-3.47 -12.001,-7.391 -18.42,-10.095 -9.078,-3.824 -15.862,-0.22 -19.042,9.11 -5.584,16.389 0.741,37.927 14.257,48.771 6.128,4.917 12.932,8.676 20.184,11.547 9.815,3.885 19.619,7.889 29.681,11.033 8.68,2.712 17.53,1.84 25.535,-2.799 5.243,-3.038 10.11,-6.727 15.137,-10.135 6.561,-4.448 12.743,-9.633 19.749,-13.203 C -29.221,88.675 -14.564,86.937 0,85.251 v -7.104 c -1.34,0.175 -2.678,0.373 -4.022,0.521 -18.646,2.05 -37.293,4.102 -55.942,6.131 -3.833,0.417 -6.942,1.954 -9.037,5.321 -1.027,1.649 -2.152,3.238 -3.275,4.825 -6.985,9.87 -16.218,15.595 -28.616,14.487 -12.386,-1.107 -24.217,-4.689 -35.622,-9.55 -7.092,-3.023 -13.365,-7.315 -17.757,-13.842 -4.779,-7.1 -6.927,-14.839 -4.804,-23.356 1.657,-6.648 6.71,-9.746 13.403,-8.311 1.97,0.423 3.997,0.927 5.774,1.833 4.283,2.181 8.507,4.499 12.621,6.985 8.023,4.847 15.724,10.281 23.986,14.667 9.259,4.916 19.488,6.468 29.964,6.153 4.68,-0.141 7.482,-2.798 8.989,-6.962 2.357,-6.515 4.669,-13.05 6.864,-19.622 2.921,-8.747 5.975,-17.419 10.537,-25.492 6.42,-11.36 14.691,-20.828 26.66,-26.598 C -13.868,2.247 -6.932,1.122 0,0 Z" /></g><g
           transform="translate(805.9565,248.7148)"
           id="g104"><path
             id="path106"
             style="fill:none;stroke:#bcbec0;stroke-width:1;stroke-linecap:butt;stroke-linejoin:miter;stroke-miterlimit:10;stroke-dasharray:none;stroke-opacity:1"
             d="m 0,0 c -6.932,1.122 -13.868,2.247 -20.277,5.337 -11.969,5.77 -20.24,15.238 -26.66,26.598 -4.562,8.073 -7.616,16.745 -10.537,25.492 -2.195,6.572 -4.507,13.107 -6.864,19.622 -1.507,4.164 -4.309,6.821 -8.989,6.962 -10.476,0.315 -20.705,-1.237 -29.964,-6.153 -8.262,-4.386 -15.963,-9.82 -23.986,-14.667 -4.114,-2.486 -8.338,-4.804 -12.621,-6.985 -1.777,-0.906 -3.804,-1.41 -5.774,-1.833 -6.693,-1.435 -11.746,1.663 -13.403,8.311 -2.123,8.517 0.025,16.256 4.804,23.356 4.392,6.527 10.665,10.819 17.757,13.842 11.405,4.861 23.236,8.443 35.622,9.55 12.398,1.108 21.631,-4.617 28.616,-14.487 1.123,-1.587 2.248,-3.176 3.275,-4.825 2.095,-3.367 5.204,-4.904 9.037,-5.321 18.649,-2.029 37.296,-4.081 55.942,-6.131 C -2.678,78.52 -1.34,78.322 0,78.147 v -7.612 c -4.631,0.304 -9.258,0.684 -13.893,0.894 -6.697,0.302 -13.359,-0.018 -19.799,-2.086 C -41.043,66.981 -44.9,60.954 -44.46,53.202 -43.855,42.534 -40.054,33.114 -33.438,24.86 -24.885,14.188 -13.587,8.63 0,7.612 Z" /></g><g
           transform="translate(805.9565,230.4467)"
           id="g108"><path
             id="path110"
             style="fill:none;stroke:#bcbec0;stroke-width:1;stroke-linecap:butt;stroke-linejoin:miter;stroke-miterlimit:10;stroke-dasharray:none;stroke-opacity:1"
             d="m 0,0 c -8.277,0.64 -16.487,1.58 -24.335,4.569 -9.722,3.703 -17.194,10.411 -23.7,18.171 -7.222,8.611 -13.827,17.737 -21.013,26.379 -3.267,3.929 -6.968,7.651 -11.03,10.731 -9.124,6.919 -19.248,7.075 -29.598,2.994 -10.166,-4.009 -18.632,-10.603 -26.406,-18.09 -5.05,-4.862 -9.667,-10.173 -14.709,-15.044 -2.403,-2.32 -5.185,-4.359 -8.081,-6.031 -4.134,-2.387 -8.408,-1.791 -11.613,1.646 -2.488,2.668 -4.744,5.82 -6.175,9.155 -5.715,13.32 -7.227,27.35 -6.202,41.727 0.568,7.97 2.044,15.743 4.513,23.346 4.56,14.035 13.197,25.008 25.748,32.49 13.789,8.221 27.95,15.829 42.078,23.465 5.67,3.065 11.805,5.003 18.365,5.366 9.462,0.524 17.925,-2.504 25.552,-7.656 6.851,-4.627 13.43,-9.704 19.812,-14.967 13.66,-11.266 29.163,-17.882 46.794,-19.509 v -8.119 c -1.337,0.201 -2.673,0.415 -4.013,0.599 -12.237,1.683 -24.172,4.533 -34.796,11.054 -6.171,3.788 -11.819,8.425 -17.719,12.655 -5.01,3.591 -9.843,7.48 -15.107,10.653 -12.823,7.733 -26.142,7.22 -39.339,1.049 -11.709,-5.474 -23.357,-11.115 -34.775,-17.165 -10.848,-5.749 -19.537,-13.937 -24.656,-25.356 -5.313,-11.85 -6.905,-24.298 -5.408,-37.159 0.698,-6.006 2.113,-11.814 5.052,-17.166 4.134,-7.527 10.148,-9.54 17.888,-5.919 1.601,0.75 3.185,1.604 4.62,2.628 6.4,4.565 12.692,9.28 19.118,13.807 8.46,5.961 17.195,11.425 27.49,13.742 7.987,1.797 15.697,0.905 22.234,-4.035 4.385,-3.314 8.351,-7.422 11.733,-11.773 6.791,-8.735 12.861,-18.028 19.589,-26.814 6.379,-8.329 13.992,-15.355 23.732,-19.76 C -16.605,8.156 -8.346,6.954 0,6.089 Z" /></g><g
           transform="translate(805.9565,236.5361)"
           id="g112"><path
             id="path114"
             style="fill:none;stroke:#bcbec0;stroke-width:1;stroke-linecap:butt;stroke-linejoin:miter;stroke-miterlimit:10;stroke-dasharray:none;stroke-opacity:1"
             d="m 0,0 c -8.346,0.865 -16.605,2.067 -24.357,5.573 -9.74,4.406 -17.353,11.432 -23.732,19.761 -6.728,8.786 -12.798,18.078 -19.589,26.813 -3.382,4.352 -7.348,8.46 -11.733,11.774 -6.537,4.94 -14.247,5.832 -22.234,4.034 -10.295,-2.316 -19.03,-7.78 -27.49,-13.742 -6.426,-4.527 -12.718,-9.242 -19.118,-13.806 -1.435,-1.024 -3.019,-1.879 -4.62,-2.628 -7.74,-3.622 -13.754,-1.608 -17.888,5.918 -2.939,5.353 -4.354,11.161 -5.052,17.166 -1.497,12.862 0.095,25.31 5.408,37.16 5.119,11.419 13.808,19.607 24.656,25.355 11.418,6.051 23.066,11.691 34.775,17.166 13.197,6.17 26.516,6.684 39.339,-1.049 5.264,-3.174 10.097,-7.062 15.107,-10.653 5.9,-4.231 11.548,-8.867 17.719,-12.655 10.624,-6.522 22.559,-9.371 34.796,-11.054 1.34,-0.185 2.676,-0.399 4.013,-0.599 L 0,97.43 c -14.564,1.686 -29.221,3.424 -42.447,10.164 -7.006,3.571 -13.188,8.756 -19.749,13.204 -5.027,3.408 -9.894,7.097 -15.137,10.135 -8.005,4.638 -16.855,5.51 -25.535,2.798 -10.062,-3.144 -19.866,-7.147 -29.681,-11.033 -7.252,-2.871 -14.056,-6.629 -20.184,-11.546 -13.516,-10.845 -19.841,-32.382 -14.257,-48.771 3.18,-9.331 9.964,-12.934 19.042,-9.11 6.419,2.703 12.333,6.625 18.42,10.095 6.166,3.514 12.201,7.264 18.417,10.685 5.693,3.133 11.877,5.011 18.365,5.396 7.202,0.427 13.639,-1.727 19.139,-6.578 6.033,-5.321 9.809,-12.24 13.694,-19.068 C -54.724,44.68 -49.406,35.685 -42.69,27.543 -32.589,15.299 -19.741,8.375 -4.021,6.64 -2.676,6.492 -1.34,6.274 0,6.089 Z" /></g><g
           transform="translate(805.9565,200)"
           id="g116"><path
             id="path118"
             style="fill:none;stroke:#bcbec0;stroke-width:1;stroke-linecap:butt;stroke-linejoin:miter;stroke-miterlimit:10;stroke-dasharray:none;stroke-opacity:1"
             d="m 0,0 c -9.967,-0.169 -19.942,-0.632 -29.899,-0.377 -4.732,0.122 -9.594,1.116 -14.103,2.604 -6.642,2.191 -10.472,7.679 -13.665,13.621 -4.555,8.481 -8.908,17.09 -13.884,25.319 -4.012,6.634 -9.38,12.158 -16.586,15.601 -8.497,4.06 -18.478,2.351 -24.476,-4.951 -11.45,-13.938 -14.751,-29.796 -9.395,-47.061 2.737,-8.822 8.825,-15.482 16.064,-21.049 2.947,-2.267 5.867,-4.629 9.059,-6.503 12.24,-7.185 21.065,-17.511 28.224,-29.558 6.819,-11.473 14.983,-21.96 27.253,-27.915 8.241,-4 17.066,-6.847 25.751,-9.862 C -10.56,-91.9 -5.227,-92.99 0,-94.385 v -10.149 c -8.701,2.084 -17.46,3.953 -26.086,6.31 -8.997,2.459 -17.578,6.005 -25.35,11.322 -8.804,6.022 -15.302,14.191 -21.615,22.602 -5.013,6.679 -9.852,13.599 -15.66,19.541 -6.047,6.187 -13.071,11.446 -19.841,16.896 -6.473,5.211 -12.768,10.566 -17.648,17.362 -4.617,6.43 -7.775,13.455 -8.254,21.48 -0.437,7.327 0.376,14.527 2.55,21.54 3.517,11.345 8.088,22.135 17.588,29.926 8.282,6.792 17.503,8.184 27.232,3.523 5.609,-2.687 10.543,-6.559 14.315,-11.518 6.134,-8.064 12.263,-16.168 17.779,-24.656 C -47.018,17.527 -36.315,10.205 -21.533,9.527 -14.364,9.198 -7.178,9.253 0,9.134 Z" /></g><g
           transform="translate(805.9565,209.134)"
           id="g120"><path
             id="path122"
             style="fill:none;stroke:#bcbec0;stroke-width:1;stroke-linecap:butt;stroke-linejoin:miter;stroke-miterlimit:10;stroke-dasharray:none;stroke-opacity:1"
             d="m 0,0 c -7.178,0.119 -14.364,0.064 -21.533,0.393 -14.782,0.678 -25.485,8 -33.457,20.267 -5.516,8.488 -11.645,16.592 -17.779,24.656 -3.772,4.959 -8.706,8.831 -14.315,11.518 -9.729,4.661 -18.95,3.269 -27.232,-3.523 -9.5,-7.791 -14.071,-18.581 -17.588,-29.926 -2.174,-7.013 -2.987,-14.213 -2.55,-21.54 0.479,-8.025 3.637,-15.05 8.254,-21.48 4.88,-6.796 11.175,-12.151 17.648,-17.362 6.77,-5.45 13.794,-10.709 19.841,-16.896 5.808,-5.942 10.647,-12.862 15.66,-19.541 6.313,-8.411 12.811,-16.58 21.615,-22.602 7.772,-5.317 16.353,-8.863 25.35,-11.322 8.626,-2.357 17.385,-4.226 26.086,-6.31 v -10.149 c -6.573,1.163 -13.177,2.18 -19.712,3.525 -9.043,1.862 -17.839,4.512 -26.23,8.494 -9.841,4.671 -17.912,11.454 -24.565,19.961 -5.205,6.657 -10.265,13.429 -15.292,20.223 -6.448,8.715 -14.411,15.844 -22.889,22.498 -6.776,5.319 -13.752,10.471 -19.955,16.411 -8.693,8.325 -16.143,17.762 -17.567,30.312 -0.476,4.193 -0.215,8.697 0.796,12.791 3.946,15.978 10.149,31.008 20.646,43.927 4.892,6.022 10.976,10.593 18.45,12.904 11.79,3.647 21.321,-0.891 29.806,-8.739 8.558,-7.913 15.199,-17.429 22.317,-26.559 3.311,-4.248 6.927,-8.301 10.74,-12.107 C -35.69,12.074 -25.737,9.229 -15.186,8.201 -10.152,7.711 -5.064,7.79 0,7.612 Z" /></g><g
           transform="translate(-5.9565,318.7423)"
           id="g124"><path
             id="path126"
             style="fill:none;stroke:#bcbec0;stroke-width:1;stroke-linecap:butt;stroke-linejoin:miter;stroke-miterlimit:10;stroke-dasharray:none;stroke-opacity:1"
             d="m 0,0 v 33.999 c 6.582,-0.166 13.163,-0.404 19.746,-0.481 8.975,-0.104 16.057,3.408 19.947,11.726 2.743,5.865 5.349,11.891 7.076,18.107 1.889,6.805 2.697,13.91 3.976,20.885 H 67.49 c 0.575,-1.763 1.062,-3.561 1.741,-5.284 2.862,-7.263 8.036,-10.345 15.75,-9.08 3.302,0.541 6.622,1.397 9.728,2.627 6.993,2.769 13.757,6.023 18.959,11.737 h 16.746 C 126.696,77.942 121.632,72.806 115.698,68.734 102.615,59.754 89.341,51.048 76.055,42.368 66.021,35.813 55.124,31.496 43.091,30.23 36.882,29.577 31.447,27.041 26.7,22.914 17.848,15.221 8.905,7.632 0,0 Z" /></g><g
           transform="translate(-5.9565,318.7423)"
           id="g128"><path
             id="path130"
             style="fill:none;stroke:#bcbec0;stroke-width:1;stroke-linecap:butt;stroke-linejoin:miter;stroke-miterlimit:10;stroke-dasharray:none;stroke-opacity:1"
             d="m 0,0 c 8.905,7.632 17.848,15.221 26.7,22.914 4.747,4.127 10.182,6.663 16.391,7.316 12.033,1.266 22.93,5.583 32.964,12.138 13.286,8.68 26.56,17.386 39.643,26.366 5.934,4.072 10.998,9.208 14.716,15.502 h 10.148 C 138.584,78.811 135.424,74.043 131.235,70.223 124.633,64.204 117.872,58.299 110.714,52.967 98.221,43.661 87.83,32.537 79.433,19.464 76.064,14.219 72.312,9.163 66.04,7.265 61.713,5.957 57.181,5.181 52.684,4.616 43.786,3.499 34.925,2.465 26.61,-1.294 16.828,-5.715 8.849,-12.243 2.609,-20.946 1.776,-22.109 0.872,-23.222 0,-24.357 Z" /></g><g
           transform="translate(145.2623,-2.9783)"
           id="g132"><path
             id="path134"
             style="fill:none;stroke:#bcbec0;stroke-width:1;stroke-linecap:butt;stroke-linejoin:miter;stroke-miterlimit:10;stroke-dasharray:none;stroke-opacity:1"
             d="m 0,0 c -4.074,7.212 -8.189,14.402 -12.209,21.644 -3.671,6.612 -6.579,13.484 -7.639,21.09 -0.992,7.121 0.094,13.967 3.057,20.295 7.873,16.812 18.598,31.669 32.927,43.553 16.551,13.726 37.941,14.88 56.312,3.768 8.876,-5.368 13.947,-13.485 16.305,-23.242 2.38,-9.852 4.131,-19.857 6.09,-29.809 C 97.535,43.617 102.26,30.785 110.408,19.341 115.482,12.214 121.384,5.843 127.876,0 h -19.79 c -0.41,0.834 -0.792,1.683 -1.232,2.5 -5.091,9.458 -10.51,18.812 -13.409,29.221 -3.196,11.474 -5.651,23.154 -8.807,34.64 -1.919,6.983 -3.796,14.146 -7.004,20.574 C 66.632,108.985 40.81,114.705 21.119,99.97 10.874,92.304 3.665,82.159 -2.659,71.275 -11.563,55.953 -12.457,40.223 -4.584,24.256 -0.549,16.072 3.872,8.079 8.119,0 Z" /></g><g
           transform="translate(561.8752,-2.9783)"
           id="g136"><path
             id="path138"
             style="fill:none;stroke:#bcbec0;stroke-width:1;stroke-linecap:butt;stroke-linejoin:miter;stroke-miterlimit:10;stroke-dasharray:none;stroke-opacity:1"
             d="m 0,0 c 4.837,11.184 14.737,16.228 26.71,14.832 8.547,-0.996 16.994,-2.836 25.492,-4.262 18.821,-3.156 35.1,2.491 49.32,14.643 8.408,7.184 16.416,14.835 24.771,22.084 6.677,5.793 14.294,9.929 23.116,11.484 11.577,2.042 21.508,-1.639 30.322,-8.953 7.194,-5.97 12.787,-13.348 17.037,-21.54 4.347,-8.378 7.844,-17.196 11.679,-25.837 0.337,-0.759 0.42,-1.631 0.621,-2.451 h -11.164 c -1.359,3.986 -2.443,8.093 -4.129,11.936 -4.569,10.417 -10.672,19.817 -19.802,26.861 -8.453,6.523 -17.735,10.51 -28.762,8.235 -5.817,-1.2 -11.195,-3.544 -15.76,-7.25 C 122.047,33.772 114.897,27.447 107.713,21.171 101.201,15.482 94.561,9.891 86.617,6.381 80.78,3.801 74.557,2.095 68.505,0 Z" /></g><g
           transform="translate(153.3814,-2.9783)"
           id="g140"><path
             id="path142"
             style="fill:none;stroke:#bcbec0;stroke-width:1;stroke-linecap:butt;stroke-linejoin:miter;stroke-miterlimit:10;stroke-dasharray:none;stroke-opacity:1"
             d="m 0,0 c -4.247,8.079 -8.669,16.072 -12.703,24.256 -7.873,15.967 -6.979,31.697 1.924,47.019 6.325,10.884 13.534,21.029 23.778,28.695 19.692,14.735 45.514,9.015 56.516,-13.035 C 72.723,80.507 74.6,73.344 76.519,66.361 79.675,54.875 82.13,43.195 85.326,31.721 88.225,21.312 93.644,11.958 98.734,2.5 99.175,1.683 99.557,0.834 99.967,0 H 86.266 C 82.978,10.92 79.414,21.766 76.486,32.781 73.86,42.659 72.129,52.773 69.639,62.691 67.49,71.254 64.41,79.502 58.699,86.468 49.589,97.579 34.954,102.41 20.497,94.476 13.226,90.486 7.694,84.61 2.749,78.093 -11.355,59.506 -13.821,39.897 -2.43,19.081 1.058,12.705 4.601,6.359 8.119,0 Z" /></g><g
           transform="translate(211.9254,26.8973)"
           id="g144"><path
             id="path146"
             style="fill:none;stroke:#bcbec0;stroke-width:1;stroke-linecap:butt;stroke-linejoin:miter;stroke-miterlimit:10;stroke-dasharray:none;stroke-opacity:1"
             d="m 0,0 c -0.25,3.198 -0.4,6.408 -0.767,9.593 -1.097,9.497 -3.187,18.683 -8.852,26.671 -6.941,9.788 -18.017,11.956 -27.431,4.917 -8.577,-6.414 -13.779,-15.219 -13.746,-25.987 0.06,-19.258 10.127,-32.872 26.411,-41.968 9.007,-5.032 17.278,-1.492 21.151,8.104 C -0.822,-12.692 -0.171,-6.403 0,0 Z m 13.006,-29.876 h -53.789 c -4.094,6.4 -8.399,12.677 -12.228,19.231 -4.669,7.993 -7.707,16.674 -7.265,26.029 0.726,15.383 7.992,27.528 19.908,36.937 10.699,8.448 23.832,7.5 33.444,-2.134 5.471,-5.484 8.715,-12.289 10.76,-19.563 5.56,-19.769 7.962,-40.052 9.17,-60.5 z" /></g><g
           transform="translate(805.9565,118.3012)"
           id="g148"><path
             id="path150"
             style="fill:none;stroke:#bcbec0;stroke-width:1;stroke-linecap:butt;stroke-linejoin:miter;stroke-miterlimit:10;stroke-dasharray:none;stroke-opacity:1"
             d="m 0,0 c -9.33,3.259 -18.789,6.195 -27.955,9.865 -9.971,3.991 -18.115,10.504 -23.417,20.075 -2.822,5.094 -4.409,10.569 -4.464,16.467 -0.06,6.259 2.704,10.638 8.323,13.313 8.405,4.002 17.382,6.079 26.463,7.688 6.982,1.238 14.031,2.099 21.05,3.127 L 0,55.819 c -1.965,-0.493 -3.939,-0.952 -5.893,-1.486 -5.494,-1.5 -10.742,-3.534 -15.311,-7.059 -6.933,-5.349 -7.598,-13.013 -1.483,-19.218 C -16.363,21.639 -8.446,17.94 0,15.223 Z" /></g><g
           transform="translate(224.9313,-2.9783)"
           id="g152"><path
             id="path154"
             style="fill:none;stroke:#bcbec0;stroke-width:1;stroke-linecap:butt;stroke-linejoin:miter;stroke-miterlimit:10;stroke-dasharray:none;stroke-opacity:1"
             d="m 0,0 c -1.208,20.448 -3.61,40.731 -9.17,60.5 -2.045,7.274 -5.288,14.079 -10.76,19.563 -9.612,9.634 -22.744,10.582 -33.444,2.133 C -65.289,72.788 -72.556,60.642 -73.282,45.26 -73.724,35.905 -70.686,27.223 -66.017,19.231 -62.188,12.676 -57.883,6.4 -53.789,0 h -9.642 c -3.518,6.359 -7.061,12.705 -10.549,19.081 -11.391,20.816 -8.925,40.425 5.179,59.012 4.945,6.517 10.477,12.393 17.748,16.383 14.457,7.934 29.092,3.103 38.202,-8.008 C -7.14,79.502 -4.06,71.254 -1.911,62.691 0.579,52.773 2.31,42.659 4.936,32.781 7.864,21.766 11.428,10.92 14.716,0 Z" /></g><g
           transform="translate(653.7228,402.9782)"
           id="g156"><path
             id="path158"
             style="fill:none;stroke:#bcbec0;stroke-width:1;stroke-linecap:butt;stroke-linejoin:miter;stroke-miterlimit:10;stroke-dasharray:none;stroke-opacity:1"
             d="m 0,0 c -5.121,-3.833 -10.022,-8.014 -15.41,-11.425 -10.296,-6.519 -20.679,-12.862 -28.93,-22.026 -4.18,-4.642 -8.19,-9.438 -12.398,-14.054 -1.52,-1.667 -3.269,-3.195 -5.134,-4.461 -3.056,-2.075 -6.062,-1.689 -7.834,1.521 -2.06,3.731 -3.735,7.769 -4.934,11.863 -3.691,12.6 -5.807,25.519 -7.059,38.582 6.259,0 12.517,0 18.776,0 0.256,-1.324 0.495,-2.652 0.773,-3.972 2.273,-10.779 7.21,-13.541 17.444,-9.496 5.642,2.23 11.207,4.679 16.685,7.285 3.864,1.838 7.524,4.107 11.275,6.183 z" /></g><g
           transform="translate(788.1959,-2.9783)"
           id="g160"><path
             id="path162"
             style="fill:none;stroke:#bcbec0;stroke-width:1;stroke-linecap:butt;stroke-linejoin:miter;stroke-miterlimit:10;stroke-dasharray:none;stroke-opacity:1"
             d="m 0,0 c -6.663,11.579 -12.58,23.519 -17.235,36.051 -1.907,5.134 -3.833,10.277 -3.587,15.94 0.181,4.166 1.842,7.425 5.561,9.259 2.778,1.369 5.723,2.706 8.738,3.233 8.053,1.409 16.184,2.374 24.284,3.515 V 55.312 C 3.531,51.23 -2.172,41.537 3.857,27.929 6.873,21.122 11.43,15.64 17.761,11.671 V 0 Z" /></g><g
           transform="translate(630.3803,-2.9783)"
           id="g164"><path
             id="path166"
             style="fill:none;stroke:#bcbec0;stroke-width:1;stroke-linecap:butt;stroke-linejoin:miter;stroke-miterlimit:10;stroke-dasharray:none;stroke-opacity:1"
             d="m 0,0 c 6.051,2.095 12.275,3.801 18.112,6.381 7.943,3.51 14.584,9.101 21.096,14.79 7.184,6.276 14.334,12.601 21.738,18.611 4.565,3.706 9.943,6.05 15.76,7.25 11.027,2.275 20.309,-1.712 28.762,-8.235 9.13,-7.044 15.233,-16.444 19.802,-26.861 1.686,-3.843 2.77,-7.95 4.129,-11.936 h -9.642 c -0.373,1.033 -0.747,2.066 -1.119,3.1 -3.703,10.296 -9.288,19.34 -17.898,26.259 -6.465,5.194 -13.784,8.314 -22.241,7.594 C 70.639,36.284 63.917,32.676 58.021,27.683 51.258,21.955 44.798,15.871 38.148,10.008 34.287,6.605 30.311,3.332 26.387,0 Z" /></g><g
           transform="translate(44.788,402.9782)"
           id="g168"><path
             id="path170"
             style="fill:none;stroke:#bcbec0;stroke-width:1;stroke-linecap:butt;stroke-linejoin:miter;stroke-miterlimit:10;stroke-dasharray:none;stroke-opacity:1"
             d="m 0,0 c -1.279,-6.975 -2.086,-14.08 -3.976,-20.885 -1.726,-6.216 -4.333,-12.242 -7.076,-18.107 -3.89,-8.318 -10.971,-11.83 -19.947,-11.725 -6.583,0.076 -13.164,0.314 -19.746,0.48 v 13.701 c 10.897,1.313 20.612,5.156 28.26,13.33 6.144,6.567 9.163,14.682 11.321,23.206 z" /></g><g
           transform="translate(656.7675,-2.9783)"
           id="g172"><path
             id="path174"
             style="fill:none;stroke:#bcbec0;stroke-width:1;stroke-linecap:butt;stroke-linejoin:miter;stroke-miterlimit:10;stroke-dasharray:none;stroke-opacity:1"
             d="m 0,0 c 3.924,3.332 7.9,6.605 11.761,10.008 6.65,5.863 13.11,11.947 19.873,17.675 5.896,4.993 12.618,8.601 20.478,9.27 8.457,0.72 15.776,-2.4 22.24,-7.594 C 82.963,22.44 88.548,13.396 92.251,3.1 92.623,2.066 92.997,1.033 93.37,0 H 83.221 C 80.325,4.93 77.975,10.299 74.427,14.704 65.047,26.353 51.491,29.441 38.875,21.578 29.645,15.826 22.594,7.753 15.223,0 Z" /></g><g
           transform="translate(805.9565,256.3265)"
           id="g176"><path
             id="path178"
             style="fill:none;stroke:#bcbec0;stroke-width:1;stroke-linecap:butt;stroke-linejoin:miter;stroke-miterlimit:10;stroke-dasharray:none;stroke-opacity:1"
             d="m 0,0 c -13.587,1.018 -24.885,6.577 -33.438,17.248 -6.616,8.255 -10.417,17.675 -11.022,28.342 -0.44,7.752 3.417,13.779 10.768,16.141 6.44,2.069 13.102,2.389 19.799,2.086 4.635,-0.21 9.262,-0.59 13.893,-0.894 v -7.612 c -3.632,-0.002 -7.269,0.113 -10.896,-0.034 -5.262,-0.213 -10.443,-0.916 -15.113,-3.651 -4.529,-2.653 -6.783,-6.578 -6.987,-11.848 -0.379,-9.776 4.117,-17.283 11.119,-23.403 C -15.672,10.952 -8.099,8.295 0,7.104 Z" /></g><g
           transform="translate(751.1524,402.9783)"
           id="g180"><path
             id="path182"
             style="fill:none;stroke:#bcbec0;stroke-width:1;stroke-linecap:butt;stroke-linejoin:miter;stroke-miterlimit:10;stroke-dasharray:none;stroke-opacity:1"
             d="m 0,0 c 10.149,0 20.298,0 30.447,0 7.284,-5.974 15.389,-7.574 24.357,-4.567 v -25.88 c -3.109,0.303 -6.242,0.45 -9.322,0.94 -8.011,1.273 -15.286,4.483 -21.585,9.509 C 15.78,-13.521 7.952,-6.683 0,0 Z" /></g><g
           transform="translate(86.906,-2.9783)"
           id="g184"><path
             id="path186"
             style="fill:none;stroke:#bcbec0;stroke-width:1;stroke-linecap:butt;stroke-linejoin:miter;stroke-miterlimit:10;stroke-dasharray:none;stroke-opacity:1"
             d="m 0,0 c 2.448,7.262 4.746,14.581 7.431,21.755 0.86,2.298 2.549,4.382 4.196,6.271 2.986,3.424 6.321,4.078 10.141,1.549 3.416,-2.262 6.755,-4.875 9.46,-7.927 C 36.648,15.535 41.627,9.029 46.745,2.65 47.367,1.875 47.726,0.889 48.207,0 Z" /></g><g
           transform="translate(671.9909,-2.9783)"
           id="g188"><path
             id="path190"
             style="fill:none;stroke:#bcbec0;stroke-width:1;stroke-linecap:butt;stroke-linejoin:miter;stroke-miterlimit:10;stroke-dasharray:none;stroke-opacity:1"
             d="M 0,0 C 7.371,7.753 14.421,15.826 23.651,21.578 36.268,29.441 49.824,26.353 59.204,14.704 62.751,10.299 65.102,4.93 67.998,0 H 52.774 C 47.43,9.061 38.391,12.359 29.327,8.428 25.079,6.585 21.667,3.594 18.775,0 Z" /></g><g
           transform="translate(751.1524,402.9783)"
           id="g192"><path
             id="path194"
             style="fill:none;stroke:#bcbec0;stroke-width:1;stroke-linecap:butt;stroke-linejoin:miter;stroke-miterlimit:10;stroke-dasharray:none;stroke-opacity:1"
             d="m 0,0 c 7.952,-6.683 15.78,-13.521 23.897,-19.998 6.299,-5.026 13.574,-8.236 21.585,-9.509 3.08,-0.49 6.213,-0.637 9.322,-0.94 V -43.133 C 41.976,-42.399 30.272,-38.374 19.939,-30.747 14.3,-26.585 8.948,-22.033 3.509,-17.605 -6.201,-9.699 -16.347,-2.614 -28.924,0 -19.283,0 -9.642,0 0,0 Z" /></g><g
           transform="translate(805.9565,263.4307)"
           id="g196"><path
             id="path198"
             style="fill:none;stroke:#bcbec0;stroke-width:1;stroke-linecap:butt;stroke-linejoin:miter;stroke-miterlimit:10;stroke-dasharray:none;stroke-opacity:1"
             d="m 0,0 c -8.099,1.19 -15.672,3.848 -21.877,9.271 -7.002,6.12 -11.498,13.627 -11.119,23.403 0.204,5.27 2.458,9.195 6.987,11.848 4.67,2.735 9.851,3.438 15.113,3.651 3.627,0.147 7.264,0.032 10.896,0.034 L 0,38.058 c -4.116,-0.713 -8.446,-0.849 -12.3,-2.273 -6.26,-2.312 -8.193,-8.374 -5.176,-14.36 0.709,-1.407 1.729,-2.693 2.774,-3.888 3.9,-4.463 9.238,-6.309 14.702,-7.895 z" /></g><g
           transform="translate(-5.9565,44.7216)"
           id="g200"><path
             id="path202"
             style="fill:none;stroke:#bcbec0;stroke-width:1;stroke-linecap:butt;stroke-linejoin:miter;stroke-miterlimit:10;stroke-dasharray:none;stroke-opacity:1"
             d="m 0,0 c 8.702,-2.704 17.574,-4.963 26.063,-8.221 11.046,-4.239 20.796,-10.596 27.313,-20.898 3.6,-5.69 6.083,-11.856 7.01,-18.581 H 47.192 c -0.145,0.83 -0.223,1.678 -0.447,2.486 -3.479,12.576 -11.148,21.735 -22.623,27.837 C 16.515,-13.331 8.304,-11.111 0,-9.134 Z" /></g><g
           transform="translate(805.9565,133.5246)"
           id="g204"><path
             id="path206"
             style="fill:none;stroke:#bcbec0;stroke-width:1;stroke-linecap:butt;stroke-linejoin:miter;stroke-miterlimit:10;stroke-dasharray:none;stroke-opacity:1"
             d="m 0,0 c -8.446,2.717 -16.363,6.415 -22.687,12.833 -6.115,6.205 -5.45,13.869 1.483,19.218 4.569,3.525 9.817,5.558 15.311,7.059 1.954,0.533 3.928,0.993 5.893,1.486 z" /></g><g
           transform="translate(437.0435,402.9783)"
           id="g208"><path
             id="path210"
             style="fill:none;stroke:#bcbec0;stroke-width:1;stroke-linecap:butt;stroke-linejoin:miter;stroke-miterlimit:10;stroke-dasharray:none;stroke-opacity:1"
             d="m 0,0 c -5.37,-3.443 -10.466,-7.453 -16.171,-10.201 -9.761,-4.702 -20.058,-7.898 -31.104,-8.103 -8.159,-0.152 -13.701,3.553 -16.914,10.841 -1.043,2.364 -1.54,4.968 -2.286,7.463 5.243,0 10.487,0 15.731,0 7.989,-6.737 20.169,-5.212 28.924,0 7.273,0 14.547,0 21.82,0 z" /></g><g
           transform="translate(-5.9565,106.63)"
           id="g212"><path
             id="path214"
             style="fill:none;stroke:#bcbec0;stroke-width:1;stroke-linecap:butt;stroke-linejoin:miter;stroke-miterlimit:10;stroke-dasharray:none;stroke-opacity:1"
             d="m 0,0 c 6.844,-1.882 13.736,-3.608 20.511,-5.712 3.352,-1.042 6.689,-2.454 9.675,-4.282 4.234,-2.591 5.774,-6.857 4.386,-10.335 -1.28,-3.204 -5.849,-5.545 -10.352,-4.678 -4.706,0.906 -9.329,2.304 -13.931,3.676 -3.476,1.036 -6.863,2.369 -10.289,3.57 z" /></g><g
           transform="translate(-5.9565,35.5876)"
           id="g216"><path
             id="path218"
             style="fill:none;stroke:#bcbec0;stroke-width:1;stroke-linecap:butt;stroke-linejoin:miter;stroke-miterlimit:10;stroke-dasharray:none;stroke-opacity:1"
             d="m 0,0 c 8.304,-1.977 16.515,-4.197 24.122,-8.243 11.475,-6.102 19.144,-15.261 22.623,-27.837 0.224,-0.808 0.302,-1.656 0.447,-2.486 H 36.536 c -1.237,3.035 -2.097,6.298 -3.775,9.064 C 25.315,-17.231 13.448,-11.864 0,-9.134 Z" /></g><g
           transform="translate(-5.9565,166.5086)"
           id="g220"><path
             id="path222"
             style="fill:none;stroke:#bcbec0;stroke-width:1;stroke-linecap:butt;stroke-linejoin:miter;stroke-miterlimit:10;stroke-dasharray:none;stroke-opacity:1"
             d="m 0,0 c 8.938,-1.276 16.375,-5.077 21.248,-12.953 1.044,-1.688 1.817,-3.637 2.284,-5.57 1.163,-4.817 -0.942,-8.614 -5.671,-10.061 C 11.805,-30.436 5.863,-29.193 0,-27.402 Z" /></g><g
           transform="translate(225.9461,402.9782)"
           id="g224"><path
             id="path226"
             style="fill:none;stroke:#bcbec0;stroke-width:1;stroke-linecap:butt;stroke-linejoin:miter;stroke-miterlimit:10;stroke-dasharray:none;stroke-opacity:1"
             d="m 0,0 c -4.382,-8.746 -10.635,-15.429 -20.367,-18.124 -7.731,-2.14 -14.096,1.126 -16.679,8.729 C -38.07,-6.382 -38.418,-3.138 -39.073,0 -26.049,0 -13.024,0 0,0 Z" /></g><g
           transform="translate(33.6242,402.9782)"
           id="g228"><path
             id="path230"
             style="fill:none;stroke:#bcbec0;stroke-width:1;stroke-linecap:butt;stroke-linejoin:miter;stroke-miterlimit:10;stroke-dasharray:none;stroke-opacity:1"
             d="m 0,0 c -2.159,-8.524 -5.178,-16.639 -11.322,-23.206 -7.647,-8.174 -17.362,-12.017 -28.259,-13.33 v 9.641 c 0.984,0.245 1.986,0.43 2.947,0.743 13.261,4.312 22.295,12.997 26.993,26.152 z" /></g><g
           transform="translate(805.9565,8.693)"
           id="g232"><path
             id="path234"
             style="fill:none;stroke:#bcbec0;stroke-width:1;stroke-linecap:butt;stroke-linejoin:miter;stroke-miterlimit:10;stroke-dasharray:none;stroke-opacity:1"
             d="M 0,0 C -6.331,3.969 -10.887,9.451 -13.903,16.258 -19.932,29.866 -14.23,39.559 0,43.64 Z" /></g><g
           transform="translate(107.7113,402.9782)"
           id="g236"><path
             id="path238"
             style="fill:none;stroke:#bcbec0;stroke-width:1;stroke-linecap:butt;stroke-linejoin:miter;stroke-miterlimit:10;stroke-dasharray:none;stroke-opacity:1"
             d="m 0,0 c -5.202,-5.714 -11.966,-8.968 -18.958,-11.737 -3.107,-1.23 -6.427,-2.086 -9.729,-2.627 -7.714,-1.265 -12.888,1.817 -15.75,9.08 -0.679,1.723 -1.166,3.521 -1.741,5.284 z" /></g><g
           transform="translate(636.9771,402.9782)"
           id="g240"><path
             id="path242"
             style="fill:none;stroke:#bcbec0;stroke-width:1;stroke-linecap:butt;stroke-linejoin:miter;stroke-miterlimit:10;stroke-dasharray:none;stroke-opacity:1"
             d="m 0,0 c -3.751,-2.076 -7.411,-4.345 -11.275,-6.183 -5.478,-2.606 -11.044,-5.055 -16.685,-7.285 -10.235,-4.045 -15.172,-1.283 -17.445,9.496 -0.278,1.32 -0.516,2.648 -0.773,3.972 C -30.785,0 -15.393,0 0,0 Z" /></g><g
           transform="translate(-5.9565,26.4536)"
           id="g244"><path
             id="path246"
             style="fill:none;stroke:#bcbec0;stroke-width:1;stroke-linecap:butt;stroke-linejoin:miter;stroke-miterlimit:10;stroke-dasharray:none;stroke-opacity:1"
             d="m 0,0 c 13.448,-2.73 25.315,-8.097 32.761,-20.368 1.678,-2.766 2.538,-6.029 3.775,-9.064 H 25.88 C 20.713,-18.311 11.66,-12.272 0,-9.641 Z" /></g><g
           transform="translate(805.9565,273.0722)"
           id="g248"><path
             id="path250"
             style="fill:none;stroke:#bcbec0;stroke-width:1;stroke-linecap:butt;stroke-linejoin:miter;stroke-miterlimit:10;stroke-dasharray:none;stroke-opacity:1"
             d="m 0,0 c -5.464,1.586 -10.802,3.433 -14.702,7.895 -1.045,1.195 -2.065,2.482 -2.774,3.889 -3.017,5.985 -1.084,12.047 5.176,14.36 3.854,1.424 8.184,1.559 12.3,2.273 z" /></g><g
           transform="translate(23.9828,402.9782)"
           id="g252"><path
             id="path254"
             style="fill:none;stroke:#bcbec0;stroke-width:1;stroke-linecap:butt;stroke-linejoin:miter;stroke-miterlimit:10;stroke-dasharray:none;stroke-opacity:1"
             d="m 0,0 c -4.698,-13.155 -13.731,-21.84 -26.992,-26.152 -0.961,-0.313 -1.964,-0.498 -2.947,-0.743 v 8.627 C -21.18,-14.394 -13.833,-8.95 -9.642,0 Z" /></g><g
           transform="translate(-5.9565,16.8121)"
           id="g256"><path
             id="path258"
             style="fill:none;stroke:#bcbec0;stroke-width:1;stroke-linecap:butt;stroke-linejoin:miter;stroke-miterlimit:10;stroke-dasharray:none;stroke-opacity:1"
             d="M 0,0 C 11.66,-2.63 20.713,-8.67 25.88,-19.79 H 10.149 C 7.484,-16.397 4.024,-14.139 0,-12.686 Z" /></g><g
           transform="translate(690.7664,-2.9783)"
           id="g260"><path
             id="path262"
             style="fill:none;stroke:#bcbec0;stroke-width:1;stroke-linecap:butt;stroke-linejoin:miter;stroke-miterlimit:10;stroke-dasharray:none;stroke-opacity:1"
             d="M 0,0 C 2.891,3.594 6.304,6.585 10.551,8.428 19.616,12.359 28.655,9.061 33.999,0 Z" /></g><g
           transform="translate(490.3253,-2.9783)"
           id="g264"><path
             id="path266"
             style="fill:none;stroke:#bcbec0;stroke-width:1;stroke-linecap:butt;stroke-linejoin:miter;stroke-miterlimit:10;stroke-dasharray:none;stroke-opacity:1"
             d="M 0,0 C 2.395,4.839 5.703,8.939 10.173,11.978 15.111,15.335 19.58,14.066 21.745,8.54 22.805,5.834 23.17,2.855 23.85,0 Z" /></g><g
           transform="translate(14.3413,402.9782)"
           id="g268"><path
             id="path270"
             style="fill:none;stroke:#bcbec0;stroke-width:1;stroke-linecap:butt;stroke-linejoin:miter;stroke-miterlimit:10;stroke-dasharray:none;stroke-opacity:1"
             d="m 0,0 c -4.191,-8.95 -11.538,-14.394 -20.298,-18.268 v 10.656 c 3.045,2.538 6.09,5.075 9.134,7.612 z" /></g><g
           transform="translate(361.9416,-2.9783)"
           id="g272"><path
             id="path274"
             style="fill:none;stroke:#bcbec0;stroke-width:1;stroke-linecap:butt;stroke-linejoin:miter;stroke-miterlimit:10;stroke-dasharray:none;stroke-opacity:1"
             d="M 0,0 C 2.716,5.771 8.088,8.593 14.805,7.423 19.992,6.519 24.529,4.217 27.91,0 Z" /></g><g
           transform="translate(805.9565,398.4113)"
           id="g276"><path
             id="path278"
             style="fill:none;stroke:#bcbec0;stroke-width:1;stroke-linecap:butt;stroke-linejoin:miter;stroke-miterlimit:10;stroke-dasharray:none;stroke-opacity:1"
             d="M 0,0 C -8.968,-3.007 -17.073,-1.407 -24.357,4.567 H 0 Z" /></g><g
           transform="translate(415.2234,402.9782)"
           id="g280"><path
             id="path282"
             style="fill:none;stroke:#bcbec0;stroke-width:1;stroke-linecap:butt;stroke-linejoin:miter;stroke-miterlimit:10;stroke-dasharray:none;stroke-opacity:1"
             d="M 0,0 C -8.755,-5.212 -20.935,-6.737 -28.924,0 Z" /></g><g
           transform="translate(-5.9565,4.126)"
           id="g284"><path
             id="path286"
             style="fill:none;stroke:#bcbec0;stroke-width:1;stroke-linecap:butt;stroke-linejoin:miter;stroke-miterlimit:10;stroke-dasharray:none;stroke-opacity:1"
             d="M 0,0 C 4.024,-1.452 7.484,-3.711 10.149,-7.104 H 0 Z" /></g><g
           transform="translate(3.1775,402.9782)"
           id="g288"><path
             id="path290"
             style="fill:none;stroke:#bcbec0;stroke-width:1;stroke-linecap:butt;stroke-linejoin:miter;stroke-miterlimit:10;stroke-dasharray:none;stroke-opacity:1"
             d="M 0,0 C -3.045,-2.537 -6.089,-5.074 -9.134,-7.612 V 0 Z" /></g><g
           transform="translate(446.8024,120.7651)"
           id="g292"><path
             id="path294"
             style="fill:none;stroke:#bcbec0;stroke-width:1;stroke-linecap:butt;stroke-linejoin:miter;stroke-miterlimit:10;stroke-dasharray:none;stroke-opacity:1"
             d="m 0,0 c -0.142,0.022 -0.284,0.045 -0.426,0.067 -0.232,4.722 -0.482,9.443 -0.692,14.167 -0.587,13.201 -1.878,26.311 -5.609,39.047 -3.168,10.815 -7.934,20.721 -17.468,27.476 -6.537,4.63 -13.851,6.22 -21.385,3.214 -4.236,-1.69 -8.23,-4.327 -11.851,-7.155 -8.923,-6.967 -17.663,-14.177 -26.292,-21.506 -7.395,-6.281 -14.816,-12.577 -21.72,-19.38 -9.995,-9.85 -9.816,-18.955 0.125,-28.781 3.839,-3.795 7.916,-7.374 12.101,-10.785 9.578,-7.805 18.868,-15.892 26.945,-25.292 5.502,-6.403 10.845,-12.964 16.667,-19.065 5.322,-5.577 12.06,-8.987 19.777,-10.026 7.892,-1.062 14.497,1.333 19.418,7.828 4.538,5.989 6.614,12.992 7.557,20.213 C -1.554,-20.031 -0.919,-9.997 0,0 Z M 8.077,22.85 C 8.39,5.617 9.002,-11.618 8.909,-28.848 8.848,-39.981 8.361,-51.212 3.866,-61.724 1.318,-67.682 -2.366,-72.782 -8.1,-76.071 c -3.455,-1.982 -7.292,-2.926 -11.239,-2.355 -14.834,2.147 -27.902,8.203 -38.455,18.89 -4.058,4.109 -7.588,8.933 -10.523,13.923 -11.954,20.325 -29.364,34.642 -49.466,46.19 -9.966,5.725 -20.541,9.412 -31.98,10.728 -4.364,0.502 -8.723,1.335 -12.434,3.985 -0.816,0.583 -1.631,1.24 -2.245,2.02 -3.677,4.669 -2.074,9.5 3.742,10.655 3.458,0.686 7.054,1.04 10.577,0.965 8.835,-0.189 16.901,2.337 24.422,6.628 14.435,8.237 27.739,18.106 40.436,28.799 8.895,7.491 16.658,16.104 23.883,25.152 13.953,17.472 34.619,15.002 48.173,4 C -4.141,86.148 0.324,75.963 3.393,65.066 6.112,55.413 7.26,45.521 7.519,35.507 7.628,31.288 7.952,27.075 8.178,22.859 8.145,22.856 8.111,22.853 8.077,22.85 Z" /></g><g
           transform="translate(70.8104,204.0008)"
           id="g296"><path
             id="path298"
             style="fill:none;stroke:#bcbec0;stroke-width:1;stroke-linecap:butt;stroke-linejoin:miter;stroke-miterlimit:10;stroke-dasharray:none;stroke-opacity:1"
             d="m 0,0 c -0.379,-11.358 -2.169,-21.495 -8.163,-30.468 -4.547,-6.808 -11.228,-8.163 -17.572,-2.94 -10.98,9.041 -16.171,20.656 -13.426,35 1.859,9.717 4.327,19.311 9.157,28.075 5.384,9.77 13.079,9.265 19.797,1.262 C -4.754,24.434 -2.095,16.555 -0.735,8.27 -0.245,5.285 -0.188,2.228 0,0 Z" /></g><g
           transform="translate(149.8225,282.1958)"
           id="g300"><path
             id="path302"
             style="fill:none;stroke:#bcbec0;stroke-width:1;stroke-linecap:butt;stroke-linejoin:miter;stroke-miterlimit:10;stroke-dasharray:none;stroke-opacity:1"
             d="m 0,0 c -0.509,0 -1.78,0.052 -3.045,-0.009 -5.894,-0.284 -11.589,-1.52 -16.872,-4.159 -6.912,-3.453 -9.452,-9.077 -7.721,-16.572 1.572,-6.806 5.704,-12.212 9.894,-17.518 6.708,-8.494 13.652,-16.795 17.889,-26.938 5.813,-13.921 8.113,-28.025 2.938,-42.714 -0.973,-2.761 -1.712,-5.695 -1.962,-8.601 -0.347,-4.036 2.212,-6.313 6.193,-5.492 9.418,1.94 18.076,5.663 25.229,12.262 5.269,4.861 7.533,11.382 8.921,18.152 2.387,11.64 3.208,23.387 2.257,35.29 -1.002,12.54 -3.626,24.589 -9.606,35.728 C 26.996,-7.312 16.44,0.545 0,0 Z m -27.41,-133.955 c -0.118,11.208 3.434,21.443 8.323,31.311 2.855,5.763 5.772,11.486 6.81,17.941 1.449,9.007 -0.566,17.437 -5.101,25.079 -4.042,6.81 -8.87,13.159 -13.418,19.664 -5.996,8.577 -11.394,17.42 -13.034,28.015 -1.297,8.378 1.304,13.961 9.206,17.044 5.527,2.157 11.505,3.359 17.39,4.346 6.568,1.102 13.244,1.801 19.898,2.096 10.242,0.452 19.939,-1.512 27.749,-8.813 5.788,-5.409 9.49,-12.269 12.601,-19.445 5.723,-13.197 8.148,-27.155 9.249,-41.383 0.899,-11.618 1.765,-23.242 2.383,-34.878 0.322,-6.052 0.348,-12.15 0.025,-18.201 -0.506,-9.487 -5.865,-15.842 -14.203,-19.714 -14.714,-6.833 -29.506,-13.5 -44.298,-20.164 -3.924,-1.767 -7.892,-3.382 -12.394,-3.237 -3.706,0.12 -6.224,1.768 -7.992,4.879 -2.736,4.813 -3.162,10.093 -3.194,15.46 z" /></g><g
           transform="translate(302.6253,219.8084)"
           id="g304"><path
             id="path306"
             style="fill:none;stroke:#bcbec0;stroke-width:1;stroke-linecap:butt;stroke-linejoin:miter;stroke-miterlimit:10;stroke-dasharray:none;stroke-opacity:1"
             d="m 0,0 c 0,-1.268 -0.135,-2.553 0.022,-3.801 0.835,-6.621 2.752,-12.678 9.495,-15.667 5.67,-2.513 11.34,-1.604 16.693,0.935 10.404,4.936 16.473,13.519 19.297,24.435 1.5,5.802 2.471,11.742 3.647,17.626 1.187,5.942 2.851,11.776 6.597,16.599 3.668,4.724 7.735,9.159 11.854,13.508 6.731,7.107 7.897,14.664 2.983,23.121 C 66.399,83.965 60.313,89.052 52.345,91.671 41.812,95.133 29.754,91.118 23.167,82.232 19.281,76.99 17.312,70.991 16.135,64.733 13.691,51.742 10.476,38.999 5.765,26.613 2.517,18.073 -0.108,9.305 0,0 Z m 13.021,-31.873 c -11.737,-0.108 -19.411,6.247 -21.788,17.768 -1.499,7.27 -1.003,14.53 0.42,21.664 1.702,8.528 4.11,16.913 6.008,25.406 2.211,9.893 4.234,19.83 6.273,29.761 0.883,4.305 1.5,8.665 2.413,12.963 4.411,20.764 18.019,32.183 37.976,36.891 7.586,1.79 14.65,0.115 20.788,-4.742 2.708,-2.144 5.358,-4.437 7.671,-6.992 7.343,-8.112 14.002,-16.755 18.468,-26.834 1.53,-3.452 2.756,-7.1 3.601,-10.778 C 96.47,56.19 93.987,50.411 88.442,45.964 85.677,43.746 82.818,41.606 79.81,39.739 69.565,33.379 63.112,24.249 59.262,12.948 57.114,6.642 54.855,0.294 51.827,-5.617 45.045,-18.855 34.238,-27.436 19.809,-31.324 c -0.895,-0.241 -1.815,-0.466 -2.734,-0.527 -1.346,-0.089 -2.702,-0.022 -4.054,-0.022 z" /></g><g
           transform="translate(624.3901,57.4908)"
           id="g308"><path
             id="path310"
             style="fill:none;stroke:#bcbec0;stroke-width:1;stroke-linecap:butt;stroke-linejoin:miter;stroke-miterlimit:10;stroke-dasharray:none;stroke-opacity:1"
             d="m 0,0 c 6.905,0.406 12.143,2.882 16.407,8.141 6.38,7.866 4.352,19.464 -4.573,24.213 -3.281,1.745 -7.082,3.173 -10.736,3.423 -9.172,0.628 -18.406,0.287 -27.595,0.748 -6.637,0.332 -13.264,1.153 -19.852,2.07 -8.081,1.126 -13.177,5.929 -16.484,13.341 -2.879,6.455 -6.19,12.785 -9.979,18.744 -3.035,4.773 -7.204,8.727 -12.868,10.621 -6.114,2.044 -11.981,-1.632 -12.76,-8.058 -0.509,-4.194 0.478,-8.039 2.618,-11.649 2.51,-4.234 5.869,-7.692 10.022,-10.227 5.617,-3.429 11.352,-6.68 17.163,-9.771 4.184,-2.226 7.643,-5.171 10.755,-8.705 3.173,-3.605 6.286,-7.391 10.017,-10.35 C -36.514,13.538 -23.709,7.043 -10.085,2.22 -6.865,1.079 -3.369,0.719 0,0 Z M 41.061,28.521 C 40.729,16.598 36.058,6.389 28.37,-2.49 21.166,-10.809 12.012,-15.377 0.888,-14.639 c -5.086,0.337 -10.173,1.624 -15.113,3.007 -12.525,3.506 -24.929,7.449 -37.462,10.924 -4.704,1.305 -9.659,1.673 -14.449,2.708 -3.871,0.837 -7.708,1.898 -11.483,3.103 -4.935,1.575 -8.788,4.867 -11.678,8.99 -8.005,11.417 -16.271,22.702 -23.467,34.623 -7.696,12.746 -9.158,26.583 -3.149,40.625 6.749,15.769 19.701,20.248 34.456,11.436 6.476,-3.868 12.357,-8.818 18.174,-13.677 7.058,-5.895 13.584,-12.428 20.666,-18.292 8.549,-7.078 18.8,-9.646 29.719,-10.039 8.015,-0.289 16.067,-0.303 24.026,-1.153 8.301,-0.887 15.875,-4.041 21.997,-10.002 5.35,-5.21 8.206,-11.492 7.936,-19.093 z" /></g><g
           transform="translate(442.6995,322.6648)"
           id="g312"><path
             id="path314"
             style="fill:none;stroke:#bcbec0;stroke-width:1;stroke-linecap:butt;stroke-linejoin:miter;stroke-miterlimit:10;stroke-dasharray:none;stroke-opacity:1"
             d="m 0,0 c -0.04,4.04 2.681,6.857 6.598,6.016 2.865,-0.615 5.795,-1.946 8.154,-3.69 5.034,-3.724 8.326,-8.825 9.661,-15.029 1.18,-5.485 -2.277,-8.815 -7.695,-7.449 C 8.031,-17.961 0.28,-7.382 0,0 Z" /></g><g
           transform="translate(581.8098,285.3582)"
           id="g316"><path
             id="path318"
             style="fill:none;stroke:#bcbec0;stroke-width:1;stroke-linecap:butt;stroke-linejoin:miter;stroke-miterlimit:10;stroke-dasharray:none;stroke-opacity:1"
             d="m 0,0 c -0.338,-8.707 -0.946,-14.928 -3.376,-20.789 -4.302,-10.379 -14.216,-13.362 -23.669,-7.224 -4.464,2.899 -7.861,6.646 -9.367,11.858 -1.807,6.254 0.385,11.692 3.832,16.688 4.709,6.826 10.8,12.274 17.751,16.768 0.636,0.411 1.316,0.763 2,1.091 4.974,2.379 8.724,1.058 10.209,-4.361 C -1.159,8.7 -0.56,3.131 0,0 Z" /></g><g
           transform="translate(733.2232,210.8472)"
           id="g320"><path
             id="path322"
             style="fill:none;stroke:#bcbec0;stroke-width:1;stroke-linecap:butt;stroke-linejoin:miter;stroke-miterlimit:10;stroke-dasharray:none;stroke-opacity:1"
             d="m 0,0 c -0.468,-2.991 -0.731,-6.032 -1.448,-8.962 -1.536,-6.279 -6.509,-9.577 -12.897,-8.825 -13.025,1.533 -23.455,12.101 -25.101,25.161 -0.743,5.895 0.107,11.487 2.539,16.802 5.597,12.234 17.561,14.461 27.119,3.351 C -3.051,19.697 -0.488,10.245 0,0 Z" /></g><g
           transform="translate(200.3939,35.2583)"
           id="g324"><path
             id="path326"
             style="fill:none;stroke:#bcbec0;stroke-width:1;stroke-linecap:butt;stroke-linejoin:miter;stroke-miterlimit:10;stroke-dasharray:none;stroke-opacity:1"
             d="m 0,0 c -0.339,5.413 -2.169,11.788 -4.828,15.701 -5.351,7.877 -14.728,7.866 -20.093,-0.023 -6.464,-9.505 -2.994,-24.55 6.985,-30.285 6.662,-3.828 13.39,-1.511 15.974,5.749 C -0.956,-6.031 -0.634,-2.96 0,0 Z m 11.532,-8.361 c -0.171,-6.403 -0.823,-12.692 -3.235,-18.67 -3.872,-9.596 -12.144,-13.136 -21.151,-8.104 -16.283,9.097 -26.351,22.71 -26.41,41.968 -0.034,10.768 5.168,19.573 13.746,25.987 9.414,7.039 20.49,4.871 27.431,-4.917 5.664,-7.988 7.755,-17.174 8.851,-26.671 0.368,-3.185 0.518,-6.395 0.768,-9.593 z" /></g><g
           transform="translate(435.6779,128.5054)"
           id="g328"><path
             id="path330"
             style="fill:none;stroke:#bcbec0;stroke-width:1;stroke-linecap:butt;stroke-linejoin:miter;stroke-miterlimit:10;stroke-dasharray:none;stroke-opacity:1"
             d="m 0,0 c -0.554,4.463 -1.166,12.053 -2.504,19.512 -1.786,9.957 -4.864,19.524 -11.087,27.762 -7.77,10.286 -17.455,12.808 -29.285,7.689 -10.016,-4.334 -18.979,-10.354 -27.299,-17.325 -5.061,-4.242 -9.688,-8.93 -12.537,-15.069 -2.37,-5.106 -2.636,-10.416 0.335,-15.081 2.957,-4.642 6.479,-9.119 10.514,-12.843 9.49,-8.757 19.389,-17.076 29.218,-25.459 3.658,-3.12 7.398,-6.214 11.433,-8.799 4.892,-3.134 10.308,-4.918 16.123,-2.483 5.065,2.122 8.001,6.299 10.094,11.182 3.806,8.88 4.66,18.269 4.995,30.914 z m 11.125,-7.74 c -0.92,-9.997 -1.554,-20.031 -2.853,-29.978 -0.943,-7.222 -3.02,-14.224 -7.558,-20.214 -4.921,-6.495 -11.526,-8.889 -19.417,-7.827 -7.718,1.039 -14.456,4.448 -19.778,10.025 -5.822,6.102 -11.165,12.663 -16.667,19.066 -8.076,9.4 -17.366,17.487 -26.944,25.292 -4.186,3.41 -8.263,6.99 -12.101,10.784 -9.941,9.826 -10.121,18.932 -0.125,28.782 6.903,6.802 14.324,13.098 21.719,19.379 8.63,7.33 17.37,14.54 26.292,21.507 3.621,2.828 7.615,5.464 11.851,7.155 7.534,3.006 14.849,1.416 21.385,-3.215 9.535,-6.754 14.3,-16.66 17.469,-27.475 3.73,-12.737 5.021,-25.847 5.609,-39.048 0.21,-4.723 0.46,-9.444 0.692,-14.166 0.142,-0.023 0.283,-0.045 0.426,-0.067 z" /></g><g
           transform="translate(173.1406,237.6388)"
           id="g332"><path
             id="path334"
             style="fill:none;stroke:#bcbec0;stroke-width:1;stroke-linecap:butt;stroke-linejoin:miter;stroke-miterlimit:10;stroke-dasharray:none;stroke-opacity:1"
             d="m 0,0 c -0.027,6.985 -5.139,15.392 -11.232,18.431 -2.009,1.003 -4.137,1.884 -6.147,0.115 -2.056,-1.81 -1.401,-4.061 -0.443,-6.073 3.004,-6.31 6.986,-11.962 12.21,-16.623 0.894,-0.797 2.766,-1.266 3.816,-0.881 0.879,0.322 1.291,2.087 1.762,3.271 C 0.169,-1.249 0,-0.591 0,0 Z m -23.318,44.557 c 16.44,0.545 26.996,-7.312 34.115,-20.571 5.98,-11.139 8.604,-23.188 9.606,-35.728 0.951,-11.903 0.13,-23.65 -2.257,-35.29 -1.388,-6.77 -3.652,-13.291 -8.921,-18.152 -7.153,-6.599 -15.811,-10.322 -25.23,-12.262 -3.98,-0.82 -6.539,1.456 -6.192,5.492 0.25,2.906 0.989,5.84 1.962,8.601 5.175,14.689 2.875,28.793 -2.939,42.714 -4.236,10.143 -11.18,18.444 -17.888,26.938 -4.191,5.306 -8.322,10.712 -9.894,17.518 -1.732,7.495 0.809,13.119 7.72,16.572 5.284,2.639 10.979,3.875 16.873,4.159 1.265,0.061 2.536,0.009 3.045,0.009 z" /></g><g
           transform="translate(330.4823,229.7426)"
           id="g336"><path
             id="path338"
             style="fill:none;stroke:#bcbec0;stroke-width:1;stroke-linecap:butt;stroke-linejoin:miter;stroke-miterlimit:10;stroke-dasharray:none;stroke-opacity:1"
             d="m 0,0 c -0.376,0.982 -0.799,2.631 -1.611,4.06 -0.914,1.608 -2.51,1.9 -4.203,1.191 -3.711,-1.554 -6.351,-8.655 -4.588,-12.273 1.399,-2.872 3.885,-3.532 6.442,-1.613 C -1.336,-6.666 -0.39,-3.826 0,0 Z m -27.857,-9.934 c -0.108,9.305 2.517,18.073 5.765,26.612 4.711,12.387 7.926,25.13 10.37,38.121 1.177,6.258 3.146,12.256 7.032,17.499 6.587,8.886 18.645,12.9 29.178,9.439 C 32.456,79.118 38.542,74.031 42.731,66.821 47.645,58.365 46.479,50.807 39.748,43.7 35.629,39.352 31.562,34.916 27.894,30.192 24.148,25.37 22.484,19.536 21.297,13.594 20.121,7.71 19.15,1.77 17.65,-4.032 14.826,-14.948 8.757,-23.531 -1.647,-28.467 -7,-31.007 -12.67,-31.916 -18.34,-29.402 c -6.743,2.989 -8.66,9.046 -9.495,15.667 -0.157,1.248 -0.022,2.533 -0.022,3.801 z" /></g><g
           transform="translate(624.3901,57.4908)"
           id="g340"><path
             id="path342"
             style="fill:none;stroke:#bcbec0;stroke-width:1;stroke-linecap:butt;stroke-linejoin:miter;stroke-miterlimit:10;stroke-dasharray:none;stroke-opacity:1"
             d="m 0,0 c -3.369,0.719 -6.865,1.079 -10.085,2.22 -13.624,4.823 -26.429,11.318 -37.78,20.321 -3.731,2.959 -6.844,6.745 -10.017,10.35 -3.112,3.534 -6.571,6.479 -10.755,8.705 -5.811,3.091 -11.546,6.342 -17.163,9.771 -4.153,2.535 -7.512,5.993 -10.022,10.227 -2.14,3.61 -3.127,7.455 -2.618,11.649 0.779,6.426 6.646,10.102 12.76,8.058 5.664,-1.894 9.833,-5.848 12.868,-10.621 3.789,-5.959 7.1,-12.289 9.979,-18.744 3.307,-7.412 8.403,-12.215 16.484,-13.341 6.588,-0.917 13.215,-1.738 19.852,-2.07 9.189,-0.461 18.423,-0.12 27.595,-0.748 3.654,-0.25 7.455,-1.678 10.736,-3.423 C 20.759,27.605 22.787,16.007 16.407,8.141 12.143,2.882 6.905,0.406 0,0 Z" /></g><g
           transform="translate(200.3939,35.2583)"
           id="g344"><path
             id="path346"
             style="fill:none;stroke:#bcbec0;stroke-width:1;stroke-linecap:butt;stroke-linejoin:miter;stroke-miterlimit:10;stroke-dasharray:none;stroke-opacity:1"
             d="m 0,0 c -0.634,-2.96 -0.956,-6.031 -1.962,-8.858 -2.584,-7.26 -9.312,-9.577 -15.974,-5.749 -9.979,5.735 -13.449,20.78 -6.985,30.285 5.365,7.889 14.742,7.9 20.093,0.023 C -2.169,11.788 -0.339,5.413 0,0 Z" /></g><g
           transform="translate(395.7372,162.9402)"
           id="g348"><path
             id="path350"
             style="fill:none;stroke:#bcbec0;stroke-width:1;stroke-linecap:butt;stroke-linejoin:miter;stroke-miterlimit:10;stroke-dasharray:none;stroke-opacity:1"
             d="m 0,0 c -6.283,0.026 -12.478,-2.371 -17.428,-6.37 -6.964,-5.625 -8.023,-13.636 -2.88,-20.924 3.436,-4.867 8.077,-8.368 12.894,-11.665 4.543,-3.11 9.273,-5.883 14.717,-7.195 6.361,-1.533 11.017,0.794 13.372,6.861 0.576,1.484 1.065,3.054 1.258,4.626 1.299,10.541 -1.509,19.959 -8.362,28.015 C 9.85,-2.278 4.861,-0.082 0,0 Z m 39.941,-34.435 c -0.335,-12.644 -1.19,-22.034 -4.995,-30.914 -2.093,-4.883 -5.029,-9.06 -10.094,-11.181 -5.815,-2.436 -11.231,-0.652 -16.123,2.482 -4.035,2.585 -7.776,5.679 -11.433,8.799 -9.829,8.383 -19.728,16.702 -29.218,25.459 -4.036,3.724 -7.557,8.201 -10.514,12.843 -2.971,4.665 -2.705,9.976 -0.336,15.081 2.85,6.139 7.477,10.828 12.538,15.069 8.32,6.972 17.283,12.991 27.299,17.325 11.83,5.119 21.515,2.597 29.285,-7.689 6.223,-8.237 9.301,-17.805 11.087,-27.762 1.338,-7.459 1.95,-15.049 2.504,-19.512 z" /></g><g
           transform="translate(173.1406,237.6388)"
           id="g352"><path
             id="path354"
             style="fill:none;stroke:#bcbec0;stroke-width:1;stroke-linecap:butt;stroke-linejoin:miter;stroke-miterlimit:10;stroke-dasharray:none;stroke-opacity:1"
             d="m 0,0 c 0,-0.591 0.169,-1.249 -0.034,-1.76 -0.471,-1.184 -0.883,-2.949 -1.762,-3.271 -1.05,-0.385 -2.922,0.084 -3.816,0.881 -5.224,4.661 -9.206,10.313 -12.21,16.623 -0.958,2.012 -1.613,4.263 0.443,6.073 2.01,1.769 4.138,0.888 6.147,-0.115 C -5.139,15.392 -0.027,6.985 0,0 Z" /></g><g
           transform="translate(330.4823,229.7426)"
           id="g356"><path
             id="path358"
             style="fill:none;stroke:#bcbec0;stroke-width:1;stroke-linecap:butt;stroke-linejoin:miter;stroke-miterlimit:10;stroke-dasharray:none;stroke-opacity:1"
             d="m 0,0 c -0.39,-3.826 -1.336,-6.666 -3.96,-8.635 -2.557,-1.919 -5.043,-1.259 -6.442,1.613 -1.763,3.618 0.877,10.719 4.588,12.273 C -4.121,5.96 -2.525,5.668 -1.611,4.06 -0.799,2.631 -0.376,0.982 0,0 Z" /></g><g
           transform="translate(395.7372,162.9402)"
           id="g360"><path
             id="path362"
             style="fill:none;stroke:#bcbec0;stroke-width:1;stroke-linecap:butt;stroke-linejoin:miter;stroke-miterlimit:10;stroke-dasharray:none;stroke-opacity:1"
             d="m 0,0 c 4.861,-0.082 9.85,-2.278 13.571,-6.652 6.853,-8.056 9.661,-17.474 8.362,-28.015 -0.193,-1.572 -0.682,-3.142 -1.258,-4.626 -2.355,-6.067 -7.011,-8.394 -13.372,-6.861 -5.444,1.312 -10.174,4.085 -14.717,7.195 -4.817,3.297 -9.458,6.798 -12.894,11.665 -5.143,7.288 -4.084,15.299 2.88,20.924 C -12.478,-2.371 -6.283,0.026 0,0 Z" /></g></g></g></g></svg>